%FSTAX23Y23*%
%MOMM*%
%SFA1B1*%

%IPPOS*%
%ADD11C,0.253999*%
%LNpcb1-1*%
%LPD*%
G54D11*
X15618Y02539D02*
Y0127D01*
X15872Y01016*
X1638*
X16634Y0127*
Y02539*
X18157Y02285D02*
X17903Y02539D01*
X17396*
X17142Y02285*
Y02031*
X17396Y01778*
X17903*
X18157Y01524*
Y0127*
X17903Y01016*
X17396*
X17142Y0127*
X18665Y02539D02*
Y01016D01*
X19427*
X19681Y0127*
Y01524*
X19427Y01778*
X18665*
X19427*
X19681Y02031*
Y02285*
X19427Y02539*
X18665*
X32385Y30099D02*
X32131Y29845D01*
Y29337*
X32385Y29083*
X32639*
X32893Y29337*
Y29845*
X33146Y30099*
X334*
X33654Y29845*
Y29337*
X334Y29083*
X32131Y30607D02*
X33654D01*
X33146Y31115*
X33654Y31622*
X32131*
Y3213D02*
X33654D01*
Y32892*
X334Y33146*
X32385*
X32131Y32892*
Y3213*
X15531Y27238D02*
Y28761D01*
X16292*
X16546Y28507*
Y27999*
X16292Y27746*
X15531*
X17054Y28761D02*
Y27238D01*
X17562Y27746*
X1807Y27238*
Y28761*
X18578Y27238D02*
Y28761D01*
X19339*
X19593Y28507*
Y27999*
X19339Y27746*
X18578*
X19085D02*
X19593Y27238D01*
X10016Y07449D02*
X09763Y07703D01*
X09255*
X09001Y07449*
Y06434*
X09255Y0618*
X09763*
X10016Y06434*
X10524Y0618D02*
X11032D01*
X10778*
Y07703*
X10524Y07449*
X2324Y3556D02*
X23747D01*
X24001Y35814*
Y36829*
X23747Y37083*
X2324*
X22986Y36829*
Y35814*
X2324Y3556*
X21462D02*
X22478D01*
Y36322*
X2197*
X22478*
Y37083*
X19939Y3556D02*
X20954D01*
Y36322*
X20447*
X20954*
Y37083*
X12575Y3556D02*
X13083D01*
X13337Y35814*
Y36829*
X13083Y37083*
X12575*
X12321Y36829*
Y35814*
X12575Y3556*
X11813Y37083D02*
Y3556D01*
X10798Y37083*
Y3556*
X25236Y0645D02*
X2549Y06196D01*
X25998*
X26252Y0645*
Y07465*
X25998Y07719*
X2549*
X25236Y07465*
X23713Y07719D02*
X24729D01*
X23713Y06704*
Y0645*
X23967Y06196*
X24475*
X24729Y0645*
X04826Y39428D02*
X05841D01*
X06349Y3892*
X05841Y38412*
X04826*
X05588*
Y39428*
X04826Y37904D02*
X06349D01*
X05841Y37397*
X06349Y36889*
X04826*
X06095Y35365D02*
X06349Y35619D01*
Y36127*
X06095Y36381*
X05841*
X05588Y36127*
Y35619*
X05334Y35365*
X0508*
X04826Y35619*
Y36127*
X0508Y36381*
X04826Y34857D02*
Y3435D01*
Y34603*
X06349*
X06095Y34857*
X04826Y33588D02*
Y3308D01*
Y33334*
X06349*
X06095Y33588*
X04826Y32318D02*
Y3181D01*
Y32064*
X06349*
X06095Y32318*
X06349Y31049D02*
Y30033D01*
X06095*
X0508Y31049*
X04826*
X12136Y55515D02*
X10613D01*
Y54754*
X10867Y545*
X11121*
X11374Y54754*
Y55515*
Y54754*
X11628Y545*
X11882*
X12136Y54754*
Y55515*
Y53992D02*
X10867D01*
X10613Y53738*
Y5323*
X10867Y52976*
X12136*
X11882Y51453D02*
X12136Y51707D01*
Y52214*
X11882Y52468*
X10867*
X10613Y52214*
Y51707*
X10867Y51453*
X12136Y50945D02*
X10613D01*
X11121*
X12136Y49929*
X11374Y50691*
X10613Y49929*
X11882Y49421D02*
X12136Y49167D01*
Y4866*
X11882Y48406*
X11628*
X11374Y4866*
Y48913*
Y4866*
X11121Y48406*
X10867*
X10613Y4866*
Y49167*
X10867Y49421*
X12136Y46882D02*
X11882Y4739D01*
X11374Y47898*
X10867*
X10613Y47644*
Y47136*
X10867Y46882*
X11121*
X11374Y47136*
Y47898*
X11882Y46374D02*
X12136Y4612D01*
Y45613*
X11882Y45359*
X10867*
X10613Y45613*
Y4612*
X10867Y46374*
X11882*
M02*