%FSTAX23Y23*%
%MOMM*%
%SFA1B1*%

%IPPOS*%
%ADD12C,0.100000*%
%ADD79C,0.050000*%
%ADD80C,0.253999*%
%ADD81C,0.076200*%
%LNpcb1-1*%
%LPD*%
G36*
X27998Y55194D02*
X28175D01*
X28526Y55148*
X28868Y55057*
X29195Y54921*
X29502Y54744*
X29783Y54529*
X30033Y54279*
X30248Y53998*
X30425Y53691*
X30561Y53364*
X30652Y53022*
X30698Y52671*
Y52494*
Y44894*
X30598Y44794*
X25398*
X25298Y44894*
Y52494*
Y52671*
X25345Y53022*
X25436Y53364*
X25572Y53691*
X25749Y53998*
X25964Y54279*
X26214Y54529*
X26495Y54744*
X26802Y54921*
X27129Y55057*
X27471Y55148*
X27821Y55194*
X27998*
G37*
%LNpcb1-2*%
%LPC*%
G36*
X27998Y54994D02*
X27753Y54982D01*
X27273Y54887*
X2682Y54699*
X26412Y54427*
X26066Y5408*
X25794Y53673*
X25606Y5322*
X2551Y5274*
X25498Y52494*
Y44994*
X30498*
Y52494*
X30486Y5274*
X30391Y5322*
X30203Y53673*
X29931Y5408*
X29584Y54427*
X29177Y54699*
X28724Y54887*
X28243Y54982*
X27998Y54994*
G37*
%LNpcb1-3*%
%LPD*%
G54D12*
X16999Y07199D02*
X17999D01*
X17499Y06699D02*
Y07699D01*
G54D79*
X34149Y30349D02*
Y35649D01*
X29449Y30349D02*
X34149D01*
X29449D02*
Y35649D01*
X34149*
X06766Y13941D02*
X10266D01*
Y11941D02*
Y13941D01*
X06766Y11941D02*
X10266D01*
X06766D02*
Y13941D01*
X06307Y13345D02*
Y16845D01*
Y13345D02*
X08307D01*
Y16845*
X06307D02*
X08307D01*
X068Y22057D02*
Y24057D01*
X103*
Y22057D02*
Y24057D01*
X068Y22057D02*
X103D01*
X01354Y13218D02*
Y16718D01*
Y13218D02*
X03354D01*
Y16718*
X01354D02*
X03354D01*
X28198Y19441D02*
Y21441D01*
X24698Y19441D02*
X28198D01*
X24698D02*
Y21441D01*
X28198*
X24741Y18941D02*
X28241D01*
X24741Y16941D02*
Y18941D01*
Y16941D02*
X28241D01*
Y18941*
X068Y19558D02*
X103D01*
Y21557*
X068D02*
X103D01*
X068Y19558D02*
Y21557D01*
X10645Y33058D02*
Y36028D01*
X09165Y33058D02*
Y36028D01*
Y33058D02*
X10645D01*
X09165Y36028D02*
X10645D01*
X13323Y05123D02*
X21723D01*
Y-01475D02*
Y05123D01*
X13323Y-01475D02*
X21723D01*
X13323D02*
Y05123D01*
X27626Y25429D02*
X31046D01*
Y28671*
X27626D02*
X31046D01*
X27626Y25429D02*
Y28671D01*
X15849Y05349D02*
Y09049D01*
X19149Y05349D02*
Y09049D01*
X15849Y05349D02*
X19149D01*
X15849Y09049D02*
X19149D01*
X26732Y05957D02*
Y07957D01*
X23232D02*
X26732D01*
X23232Y05957D02*
Y07957D01*
Y05957D02*
X26732D01*
X21057Y06766D02*
X23057D01*
Y10266*
X21057D02*
X23057D01*
X21057Y06766D02*
Y10266D01*
X28232Y22057D02*
Y24057D01*
X24732D02*
X28232D01*
X24732Y22057D02*
Y24057D01*
Y22057D02*
X28232D01*
X24224Y10274D02*
Y23724D01*
X10774Y10274D02*
X24224D01*
X10774D02*
Y23724D01*
X24224*
X25499Y36149D02*
X28499D01*
X25499Y29849D02*
Y36149D01*
Y29849D02*
X28499D01*
Y36149*
X07457Y32306D02*
X09197D01*
X07457Y30166D02*
Y32306D01*
X03717Y30166D02*
X07457D01*
X03717D02*
Y32306D01*
X01977D02*
X03717D01*
X01977D02*
Y36526D01*
X02577*
Y38666*
X08597*
Y36526D02*
Y38666D01*
Y36526D02*
X09197D01*
Y32306D02*
Y36526D01*
X20441Y2764D02*
X22441D01*
X20441Y2414D02*
Y2764D01*
Y2414D02*
X22441D01*
Y2764*
X17941D02*
X19941D01*
X17941Y2414D02*
Y2764D01*
Y2414D02*
X19941D01*
Y2764*
X08266Y05941D02*
Y07941D01*
Y05941D02*
X11766D01*
Y07941*
X08266D02*
X11766D01*
X01755Y32931D02*
Y35901D01*
X00275Y32931D02*
Y35901D01*
Y32931D02*
X01755D01*
X00275Y35901D02*
X01755D01*
X14941Y2764D02*
X16941D01*
X14941Y2414D02*
Y2764D01*
Y2414D02*
X16941D01*
Y2764*
X12441D02*
X14441D01*
X12441Y2414D02*
Y2764D01*
Y2414D02*
X14441D01*
Y2764*
G54D80*
X28999Y04499D03*
X05999D03*
G54D81*
X27449Y03824D02*
Y05174D01*
Y03824D02*
X30549D01*
Y05174*
X27449D02*
X30549D01*
X07549Y03824D02*
Y05174D01*
X04449D02*
X07549D01*
X04449Y03824D02*
Y05174D01*
Y03824D02*
X07549D01*
M02*