%FSTAX23Y23*%
%MOMM*%
%SFA1B1*%

%IPPOS*%
%ADD14C,0.127000*%
%LNpcb1-1*%
%LPD*%
G54D14*
X23549Y01778D02*
X24449D01*
X23999Y01327D02*
Y02227D01*
X21009Y01778D02*
X21909D01*
X21459Y01327D02*
Y02227D01*
X18469Y01778D02*
X19369D01*
X18919Y01327D02*
Y02227D01*
X15929Y01778D02*
X16829D01*
X16379Y01327D02*
Y02227D01*
X13389Y01778D02*
X14289D01*
X13839Y01327D02*
Y02227D01*
X10849Y01778D02*
X11749D01*
X11299Y01327D02*
Y02227D01*
X18618Y45849D02*
X1938D01*
X18999Y45468D02*
Y4623D01*
X03378Y45849D02*
X0414D01*
X03759Y45468D02*
Y4623D01*
X25652Y51897D02*
X28192D01*
X26922Y50627D02*
Y53167D01*
X32442Y29845D02*
X33342D01*
X32893Y29394D02*
Y30294D01*
X18618Y54999D02*
X1938D01*
X18999Y54618D02*
Y5538D01*
X21069Y36322D02*
X23069D01*
X22069Y35321D02*
Y37321D01*
X30899Y02499D02*
X34099D01*
X32499Y00899D02*
Y04099D01*
X00899Y02499D02*
X04099D01*
X02499Y00899D02*
Y04099D01*
X32442Y37465D02*
X33342D01*
X32893Y37014D02*
Y37914D01*
X32442Y34925D02*
X33342D01*
X32893Y34474D02*
Y35374D01*
X32442Y32385D02*
X33342D01*
X32893Y31934D02*
Y32834D01*
X32442Y27305D02*
X33342D01*
X32893Y26854D02*
Y27754D01*
X32442Y24765D02*
X33342D01*
X32893Y24314D02*
Y25214D01*
X25652Y46897D02*
X28192D01*
X26922Y45627D02*
Y48167D01*
X30403Y57785D02*
X33603D01*
X32004Y56184D02*
Y59384D01*
X11669Y36322D02*
X13669D01*
X12669Y35321D02*
Y37321D01*
X16369Y36322D02*
X18369D01*
X17369Y35321D02*
Y37321D01*
X03378Y54999D02*
X0414D01*
X03759Y54618D02*
Y5538D01*
X06924Y07069D02*
X07224D01*
X07074Y06919D02*
Y07219D01*
X09755Y12446D02*
X10055D01*
X09906Y12295D02*
Y12595D01*
X30449Y55099D02*
X30749D01*
X30599Y54949D02*
Y55249D01*
X30449Y51599D02*
X30749D01*
X30599Y51449D02*
Y51749D01*
X30449Y48099D02*
X30749D01*
X30599Y47949D02*
Y48249D01*
X30449Y44599D02*
X30749D01*
X30599Y4445D02*
Y44749D01*
X30449Y27099D02*
X30749D01*
X30599Y26949D02*
Y27249D01*
X30449Y23599D02*
X30749D01*
X30599Y23449D02*
Y23749D01*
X30449Y20099D02*
X30749D01*
X30599Y19949D02*
Y20249D01*
X30449Y09599D02*
X30749D01*
X30599Y09449D02*
Y09749D01*
X26949Y55099D02*
X27249D01*
X27099Y54949D02*
Y55249D01*
X26949Y34099D02*
X27249D01*
X27099Y33949D02*
Y34249D01*
X26949Y16599D02*
X27249D01*
X27099Y16449D02*
Y16749D01*
X26949Y06099D02*
X27249D01*
X27099Y05949D02*
Y06249D01*
X26949Y02599D02*
X27249D01*
X27099Y02449D02*
Y02749D01*
X23449Y30599D02*
X23749D01*
X23599Y30449D02*
Y30749D01*
X23449Y27099D02*
X23749D01*
X23599Y26949D02*
Y27249D01*
X23449Y20099D02*
X23749D01*
X23599Y19949D02*
Y20249D01*
X19949Y30599D02*
X20249D01*
X20099Y30449D02*
Y30749D01*
X19949Y27099D02*
X20249D01*
X20099Y26949D02*
Y27249D01*
X19949Y20099D02*
X20249D01*
X20099Y19949D02*
Y20249D01*
X19949Y16599D02*
X20249D01*
X20099Y16449D02*
Y16749D01*
X19949Y02599D02*
X20249D01*
X20099Y02449D02*
Y02749D01*
X16449Y55099D02*
X16749D01*
X16599Y54949D02*
Y55249D01*
X16449Y51599D02*
X16749D01*
X16599Y51449D02*
Y51749D01*
X16449Y48099D02*
X16749D01*
X16599Y47949D02*
Y48249D01*
X16449Y44599D02*
X16749D01*
X16599Y4445D02*
Y44749D01*
X12949Y55099D02*
X13249D01*
X13099Y54949D02*
Y55249D01*
X12949Y51599D02*
X13249D01*
X13099Y51449D02*
Y51749D01*
X12949Y48099D02*
X13249D01*
X13099Y47949D02*
Y48249D01*
X12949Y44599D02*
X13249D01*
X13099Y4445D02*
Y44749D01*
X12949Y41099D02*
X13249D01*
X13099Y40949D02*
Y41249D01*
X12949Y30599D02*
X13249D01*
X13099Y30449D02*
Y30749D01*
X12949Y13099D02*
X13249D01*
X13099Y12949D02*
Y13249D01*
X09449Y41099D02*
X09749D01*
X09599Y40949D02*
Y41249D01*
X09449Y37599D02*
X09749D01*
X09599Y37449D02*
Y37749D01*
X09449Y30599D02*
X09749D01*
X09599Y30449D02*
Y30749D01*
X09449Y02599D02*
X09749D01*
X09599Y02449D02*
Y02749D01*
X05949Y41099D02*
X06249D01*
X06099Y40949D02*
Y41249D01*
X05949Y13099D02*
X06249D01*
X06099Y12949D02*
Y13249D01*
X05949Y06099D02*
X06249D01*
X06099Y05949D02*
Y06249D01*
X05949Y02599D02*
X06249D01*
X06099Y02449D02*
Y02749D01*
X02449Y51599D02*
X02749D01*
X02599Y51449D02*
Y51749D01*
X02449Y48099D02*
X02749D01*
X02599Y47949D02*
Y48249D01*
X02449Y41099D02*
X02749D01*
X02599Y40949D02*
Y41249D01*
X02449Y27099D02*
X02749D01*
X02599Y26949D02*
Y27249D01*
X02449Y23599D02*
X02749D01*
X02599Y23449D02*
Y23749D01*
X02449Y20099D02*
X02749D01*
X02599Y19949D02*
Y20249D01*
X02449Y13099D02*
X02749D01*
X02599Y12949D02*
Y13249D01*
X08838Y1491D02*
X09138D01*
X08988Y1476D02*
Y1506D01*
X10644Y17272D02*
X10944D01*
X10795Y17121D02*
Y17421D01*
X1928Y08255D02*
X1958D01*
X19431Y08104D02*
Y08404D01*
X01273Y28448D02*
X01773D01*
X01524Y28197D02*
Y28697D01*
X19026Y23241D02*
X19326D01*
X19177Y2309D02*
Y2339D01*
X15597Y10795D02*
X15897D01*
X15748Y10644D02*
Y10944D01*
X17393Y10752D02*
X17693D01*
X17543Y10602D02*
Y10902D01*
X06199Y17272D02*
X06499D01*
X0635Y17121D02*
Y17421D01*
X10898Y16129D02*
X11198D01*
X11049Y15978D02*
Y16278D01*
X13692Y23876D02*
X13992D01*
X13843Y23725D02*
Y24025D01*
X31726Y14605D02*
X32026D01*
X31877Y14454D02*
Y14754D01*
X33377Y22479D02*
X33677D01*
X33528Y22328D02*
Y22628D01*
X27281Y21463D02*
X27581D01*
X27432Y21312D02*
Y21612D01*
X13184Y11938D02*
X13484D01*
X13335Y11787D02*
Y12087D01*
X12549Y28067D02*
X12849D01*
X127Y27916D02*
Y28216D01*
X31472Y1651D02*
X31772D01*
X31623Y16359D02*
Y16659D01*
X05395Y28651D02*
X05795D01*
X05595Y28451D02*
Y28851D01*
X015Y05842D02*
X018D01*
X01651Y05691D02*
Y05991D01*
X25585Y09175D02*
X25885D01*
X25735Y09025D02*
Y09325D01*
X10009Y10668D02*
X10309D01*
X1016Y10517D02*
Y10817D01*
X07977Y04445D02*
X08277D01*
X08128Y04294D02*
Y04594D01*
X26773Y04445D02*
X27073D01*
X26924Y04294D02*
Y04594D01*
X27804Y06999D02*
X28104D01*
X27954Y06849D02*
Y07149D01*
X27101Y26047D02*
X27401D01*
X27251Y25897D02*
Y26197D01*
X05522Y23657D02*
X05922D01*
X05722Y23457D02*
Y23857D01*
M02*