%FSTAX23Y23*%
%MOMM*%
%SFA1B1*%

%IPPOS*%
%ADD38R,0.849998X1.599997*%
%ADD40R,1.129998X1.069998*%
%ADD41R,1.599997X0.849998*%
%ADD55C,3.149994*%
%ADD56C,1.673997*%
%ADD57O,0.949998X1.849996*%
%ADD58C,3.949992*%
%ADD59O,3.149994X3.949992*%
%ADD75R,0.899998X0.949998*%
%ADD78R,1.069998X1.129998*%
%LNpcb1-1*%
%LPD*%
G54D38*
X0765Y20557D03*
Y23057D03*
X27348Y20441D03*
X27391Y17941D03*
X0945Y23057D03*
X25548Y20441D03*
X25591Y17941D03*
X0945Y20557D03*
G54D40*
X20899Y25999D03*
X23991Y26035D03*
X2398Y28321D03*
X25781D03*
X25791Y26035D03*
X31899Y06999D03*
X30099D03*
X03099D03*
X04899D03*
X254Y04499D03*
X23599D03*
X09599D03*
X11399D03*
X14099Y25999D03*
X15899D03*
X19099D03*
G54D41*
X07307Y15995D03*
Y14195D03*
X02354Y14068D03*
Y15868D03*
G54D55*
X31999Y57999D03*
X02032Y01905D03*
G54D56*
X18999Y45849D03*
X03759D03*
Y54999D03*
X18999D03*
G54D57*
X14224Y01524D03*
X20823D03*
G54D58*
X27998Y52494D03*
Y47494D03*
G54D59*
X12669Y36322D03*
X17369D03*
X22069D03*
G54D75*
X08838Y07239D03*
X11988D03*
G54D78*
X04953Y27569D03*
Y25769D03*
M02*