%FSTAX23Y23*%
%MOMM*%
%SFA1B1*%

%IPPOS*%
%ADD9500C,0.300000*%
%ADD9501C,0.350000*%
%ADD9502C,0.400000*%
%ADD9503C,0.500000*%
%ADD9504C,0.762000*%
%ADD9505C,2.000000*%
%ADD9506C,2.500000*%
%ADD9507C,2.540000*%
%LNpcb1-roundholes-1*%
%LPD*%
G54D9500*
X01651Y05842D03*
X06099Y06099D03*
X06985Y0762D03*
X08128Y04445D03*
X09599Y02599D03*
X13099D03*
Y06099D03*
X1016Y10668D03*
X10287Y14224D03*
X06099Y13099D03*
X02599D03*
X06099Y02599D03*
X15113Y08001D03*
X15748Y10033D03*
X18457Y09939D03*
X19431Y08255D03*
X25735Y09175D03*
X27954Y06999D03*
X27099Y06099D03*
X26924Y04445D03*
X27099Y02599D03*
X30599D03*
Y09599D03*
Y13099D03*
X27099D03*
X23599Y02599D03*
X20099Y16599D03*
X16599D03*
X17399Y24003D03*
Y25019D03*
X23599Y27099D03*
X22359Y28483D03*
X23599Y30599D03*
X20099D03*
X27099Y27099D03*
X27251Y26047D03*
X30599Y23599D03*
Y20099D03*
X31623Y1651D03*
X25146Y19304D03*
X27099Y41099D03*
X30599D03*
Y51599D03*
X16599D03*
Y48099D03*
Y44599D03*
X13099D03*
Y48099D03*
Y51599D03*
Y41099D03*
X09599D03*
Y37599D03*
Y30599D03*
X13099D03*
X09599Y27099D03*
X02599D03*
Y23599D03*
Y20099D03*
X0605Y17684D03*
X09652Y16235D03*
X06099Y41099D03*
X02599D03*
Y48099D03*
Y51599D03*
X13099Y55099D03*
X16599D03*
X27099D03*
X30599D03*
G54D9501*
X10287Y19431D03*
G54D9502*
X05722Y23657D03*
X05595Y28651D03*
G54D9503*
X01524Y28448D03*
G54D9504*
X18999Y45849D03*
X03759D03*
Y54999D03*
X18999D03*
G54D9505*
X17369Y36322D03*
X22069D03*
X12669D03*
X31999Y57999D03*
G54D9506*
X02032Y01905D03*
G54D9507*
X27998Y47494D03*
Y52494D03*
M02*