%FSTAX23Y23*%
%MOMM*%
%SFA1B1*%

%IPPOS*%
%ADD9500C,0.300000*%
%ADD9501C,0.500000*%
%ADD9502C,0.762000*%
%ADD9503C,2.000000*%
%ADD9504C,2.500000*%
%ADD9505C,2.540000*%
%LNpcb1-roundholes-1*%
%LPD*%
G54D9500*
X06353Y02599D03*
X09853D03*
X13353D03*
X12944Y04443D03*
X13353Y06099D03*
X06353D03*
Y13099D03*
X02853D03*
X10287Y14224D03*
X1016Y10668D03*
X15748Y10033D03*
X15113Y08001D03*
X19431Y08255D03*
X18457Y09939D03*
X20353Y06099D03*
X22098Y04572D03*
X23853Y02599D03*
X27353D03*
X30853D03*
X31877Y04953D03*
X30853Y09599D03*
Y13099D03*
X27353D03*
X25735Y09175D03*
X27353Y06099D03*
X31623Y1651D03*
X30853Y20099D03*
Y23599D03*
Y30599D03*
X27353Y27099D03*
X23853D03*
Y30599D03*
X20353D03*
X17399Y25019D03*
Y24003D03*
X16853Y16599D03*
X20353D03*
X25625Y19273D03*
X27353Y41099D03*
X30853D03*
Y44599D03*
Y48099D03*
Y51599D03*
X27353Y48099D03*
Y44599D03*
X23853D03*
X13353Y41099D03*
X09853D03*
Y44599D03*
Y48099D03*
X06353D03*
Y51599D03*
X02853D03*
Y48099D03*
Y44599D03*
X06353D03*
Y41099D03*
X02853D03*
X09853Y37599D03*
Y30599D03*
X13353D03*
X09853Y27099D03*
X02853D03*
Y23599D03*
Y20099D03*
X0605Y17684D03*
X09652Y16235D03*
X13353Y16599D03*
Y55099D03*
Y58599D03*
X09853D03*
Y62099D03*
X06353D03*
X02853Y55099D03*
X16853D03*
Y58599D03*
X20353D03*
Y62099D03*
X23853D03*
X27353D03*
Y58599D03*
X30853D03*
Y55099D03*
X16853Y62099D03*
G54D9501*
X01524Y28448D03*
G54D9502*
X03999Y45759D03*
X13149D03*
Y60999D03*
X03999D03*
G54D9503*
X17369Y36322D03*
X22069D03*
X12669D03*
X32258Y62611D03*
G54D9504*
X02032Y01905D03*
G54D9505*
X24998Y52494D03*
Y57494D03*
M02*