%FSTAX23Y23*%
%MOMM*%
%SFA1B1*%

%IPPOS*%
%ADD10C,0.200000*%
%ADD11C,0.253999*%
%ADD13C,0.250000*%
%LNpcb1-1*%
%LPD*%
G54D10*
X09663Y06388D02*
X11163D01*
X09663Y08088D02*
X11163D01*
G54D11*
X23005Y29243D02*
X26755D01*
X23005Y27397D02*
X26755D01*
X23005D02*
Y29243D01*
X26755Y27397D02*
Y29243D01*
X04029Y28544D02*
X05875D01*
X04029Y24794D02*
X05875D01*
Y28544*
X04029Y24794D02*
Y28544D01*
X26766Y25111D02*
Y26957D01*
X23016Y25111D02*
Y26957D01*
Y25111D02*
X26766D01*
X23016Y26957D02*
X26766D01*
X32874Y06076D02*
Y07922D01*
X29124Y06076D02*
Y07922D01*
Y06076D02*
X32874D01*
X29124Y07922D02*
X32874D01*
X02124Y06076D02*
Y07922D01*
X05874Y06076D02*
Y07922D01*
X02124D02*
X05874D01*
X02124Y06076D02*
X05874D01*
X26374Y03576D02*
Y05422D01*
X22624Y03576D02*
Y05422D01*
Y03576D02*
X26374D01*
X22624Y05422D02*
X26374D01*
X08624Y03576D02*
Y05422D01*
X12374Y03576D02*
Y05422D01*
X08624D02*
X12374D01*
X08624Y03576D02*
X12374D01*
X13124Y25076D02*
X16874D01*
X13124Y26922D02*
X16874D01*
Y25076D02*
Y26922D01*
X13124Y25076D02*
Y26922D01*
X18124Y25076D02*
X21874D01*
X18124Y26922D02*
X21874D01*
Y25076D02*
Y26922D01*
X18124Y25076D02*
Y26922D01*
X07229Y1821D02*
X07346Y18327D01*
X07579*
X07696Y1821*
Y17744*
X07579Y17627*
X07346*
X07229Y17744*
X06996Y18327D02*
X06529D01*
Y1821*
X06996Y17744*
Y17627*
X06123Y22839D02*
X06239Y22955D01*
X06473*
X06589Y22839*
Y22372*
X06473Y22256*
X06239*
X06123Y22372*
X05889Y22256D02*
X05656D01*
X05773*
Y22955*
X05889Y22839*
X05306D02*
X0519Y22955D01*
X04956*
X0484Y22839*
Y22722*
X04956Y22606*
X05073*
X04956*
X0484Y22489*
Y22372*
X04956Y22256*
X0519*
X05306Y22372*
X02276Y18083D02*
X02393Y182D01*
X02626*
X02743Y18083*
Y17617*
X02626Y175*
X02393*
X02276Y17617*
X02043Y18083D02*
X01926Y182D01*
X01693*
X01576Y18083*
Y17967*
X01693Y1785*
X01576Y17733*
Y17617*
X01693Y175*
X01926*
X02043Y17617*
Y17733*
X01926Y1785*
X02043Y17967*
Y18083*
X01926Y1785D02*
X01693D01*
X24294Y2068D02*
X24411Y20796D01*
X24644*
X24761Y2068*
Y20213*
X24644Y20097*
X24411*
X24294Y20213*
X24061Y20097D02*
X23828D01*
X23944*
Y20796*
X24061Y2068*
X23478Y20097D02*
X23244D01*
X23361*
Y20796*
X23478Y2068*
X24332Y29876D02*
Y30575D01*
X23982*
X23865Y30459*
Y30226*
X23982Y30109*
X24332*
X24098D02*
X23865Y29876D01*
X23632Y30459D02*
X23515Y30575D01*
X23282*
X23165Y30459*
Y30342*
X23282Y30226*
X23165Y30109*
Y29992*
X23282Y29876*
X23515*
X23632Y29992*
Y30109*
X23515Y30226*
X23632Y30342*
Y30459*
X23515Y30226D02*
X23282D01*
X33782Y42291D02*
Y4299D01*
X33432*
X33315Y42874*
Y4264*
X33432Y42524*
X33782*
X33082Y42291D02*
X32848D01*
X32965*
Y4299*
X33082*
X32382Y42757D02*
X32149D01*
X32032Y4264*
Y42291*
X32382*
X32499Y42407*
X32382Y42524*
X32032*
X31332Y42757D02*
X31682D01*
X31799Y4264*
Y42407*
X31682Y42291*
X31332*
X30982Y42757D02*
X30749D01*
X30632Y4264*
Y42291*
X30982*
X31099Y42407*
X30982Y42524*
X30632*
X29233Y4299D02*
Y42291D01*
X29583*
X29699Y42407*
Y4264*
X29583Y42757*
X29233*
X2865Y42291D02*
X28883D01*
X29Y42407*
Y4264*
X28883Y42757*
X2865*
X28533Y4264*
Y42524*
X29*
X276Y4299D02*
Y42291D01*
X27134*
X269Y42757D02*
Y42407D01*
X26784Y42291*
X26434*
Y42757*
X26201Y42291D02*
X25967D01*
X26084*
Y42757*
X26201*
X25617D02*
X25151D01*
X25617Y42291*
X25151*
X24218Y4299D02*
Y42524D01*
X23985Y42291*
X23751Y42524*
Y4299*
X23168Y42291D02*
X23401D01*
X23518Y42407*
Y4264*
X23401Y42757*
X23168*
X23052Y4264*
Y42524*
X23518*
X22702Y42874D02*
Y42757D01*
X22818*
X22585*
X22702*
Y42407*
X22585Y42291*
X22119Y42874D02*
Y42757D01*
X22235*
X22002*
X22119*
Y42407*
X22002Y42291*
X21535D02*
X21302D01*
X21186Y42407*
Y4264*
X21302Y42757*
X21535*
X21652Y4264*
Y42407*
X21535Y42291*
X20952Y42757D02*
Y42291D01*
Y42524*
X20836Y4264*
X20719Y42757*
X20602*
X20136D02*
X19903D01*
X19786Y4264*
Y42291*
X20136*
X20252Y42407*
X20136Y42524*
X19786*
X19553Y42757D02*
X19086D01*
X19553Y42291*
X19086*
X18853Y42757D02*
X18386D01*
X18853Y42291*
X18386*
X18153D02*
X1792D01*
X18037*
Y42757*
X18153*
X1687Y4264D02*
X16404D01*
X15004Y42291D02*
X15471D01*
X15004Y42757*
Y42874*
X15121Y4299*
X15354*
X15471Y42874*
X14304Y4299D02*
X14538Y42874D01*
X14771Y4264*
Y42407*
X14654Y42291*
X14421*
X14304Y42407*
Y42524*
X14421Y4264*
X14771*
X14071Y42291D02*
Y42407D01*
X13954*
Y42291*
X14071*
X13021D02*
X13488D01*
X13021Y42757*
Y42874*
X13138Y4299*
X13371*
X13488Y42874*
X057Y29114D02*
Y29813D01*
X0535*
X05234Y29697*
Y29464*
X0535Y29347*
X057*
X05467D02*
X05234Y29114D01*
X05D02*
X04767D01*
X04884*
Y29813*
X05Y29697*
X04417D02*
X04301Y29813D01*
X04067*
X03951Y29697*
Y2923*
X04067Y29114*
X04301*
X04417Y2923*
Y29697*
X24332Y23653D02*
Y24352D01*
X23982*
X23865Y24236*
Y24003*
X23982Y23886*
X24332*
X24098D02*
X23865Y23653D01*
X23632Y23769D02*
X23515Y23653D01*
X23282*
X23165Y23769*
Y24236*
X23282Y24352*
X23515*
X23632Y24236*
Y24119*
X23515Y24003*
X23165*
X22046Y03587D02*
Y04286D01*
X21696*
X21579Y0417*
Y03937*
X21696Y0382*
X22046*
X21812D02*
X21579Y03587D01*
X20879Y04286D02*
X21113Y0417D01*
X21346Y03937*
Y03703*
X21229Y03587*
X20996*
X20879Y03703*
Y0382*
X20996Y03937*
X21346*
X33325Y07872D02*
Y07173D01*
X33675*
X33792Y07289*
Y07522*
X33675Y07639*
X33325*
X33559D02*
X33792Y07872D01*
X34492Y07173D02*
X34025D01*
Y07522*
X34258Y07406*
X34375*
X34492Y07522*
Y07756*
X34375Y07872*
X34142*
X34025Y07756*
X19405Y27813D02*
Y28512D01*
X19055*
X18939Y28396*
Y28162*
X19055Y28046*
X19405*
X19172D02*
X18939Y27813D01*
X18355D02*
Y28512D01*
X18705Y28162*
X18239*
X14427Y27813D02*
Y28512D01*
X14077*
X1396Y28396*
Y28162*
X14077Y28046*
X14427*
X14193D02*
X1396Y27813D01*
X13727Y28396D02*
X1361Y28512D01*
X13377*
X1326Y28396*
Y28279*
X13377Y28162*
X13494*
X13377*
X1326Y28046*
Y27929*
X13377Y27813*
X1361*
X13727Y27929*
X14045Y03587D02*
Y04286D01*
X13695*
X13578Y0417*
Y03937*
X13695Y0382*
X14045*
X13811D02*
X13578Y03587D01*
X12878D02*
X13345D01*
X12878Y04053*
Y0417*
X12995Y04286*
X13228*
X13345Y0417*
X07323Y06254D02*
Y06953D01*
X06973*
X06856Y06837*
Y06604*
X06973Y06487*
X07323*
X0709D02*
X06856Y06254D01*
X06623D02*
X0639D01*
X06507*
Y06953*
X06623Y06837*
X1426Y06625D02*
X13561D01*
Y06975*
X13677Y07091*
X14144*
X1426Y06975*
Y06625*
X14144Y07325D02*
X1426Y07441D01*
Y07674*
X14144Y07791*
X14027*
X1391Y07674*
Y07558*
Y07674*
X13794Y07791*
X13677*
X13561Y07674*
Y07441*
X13677Y07325*
X06377Y2068D02*
X06493Y20796D01*
X06727*
X06843Y2068*
Y20213*
X06727Y20097*
X06493*
X06377Y20213*
X06143Y20097D02*
X0591D01*
X06027*
Y20796*
X06143Y2068*
X0556Y20796D02*
X05094D01*
Y2068*
X0556Y20213*
Y20097*
X24284Y1814D02*
X244Y18256D01*
X24634*
X2475Y1814*
Y17673*
X24634Y17557*
X244*
X24284Y17673*
X2405Y17557D02*
X23817D01*
X23934*
Y18256*
X2405Y1814*
X23001Y17557D02*
X23467D01*
X23001Y18023*
Y1814*
X23117Y18256*
X23351*
X23467Y1814*
G54D13*
X07963Y07213D02*
D01*
X07963Y07222*
X07962Y07231*
X07961Y07239*
X07959Y07248*
X07956Y07256*
X07953Y07264*
X07949Y07272*
X07944Y0728*
X0794Y07287*
X07934Y07294*
X07928Y073*
X07922Y07306*
X07915Y07312*
X07908Y07317*
X07901Y07322*
X07893Y07326*
X07885Y07329*
X07877Y07332*
X07869Y07335*
X0786Y07337*
X07852Y07338*
X07843Y07338*
X07834*
X07825Y07338*
X07817Y07337*
X07808Y07335*
X078Y07332*
X07792Y07329*
X07784Y07326*
X07776Y07322*
X07769Y07317*
X07762Y07312*
X07755Y07306*
X07749Y073*
X07743Y07294*
X07737Y07287*
X07732Y0728*
X07728Y07272*
X07724Y07264*
X07721Y07256*
X07718Y07248*
X07716Y07239*
X07715Y07231*
X07714Y07222*
X07713Y07213*
X07714Y07205*
X07715Y07196*
X07716Y07187*
X07718Y07179*
X07721Y07171*
X07724Y07163*
X07728Y07155*
X07732Y07147*
X07737Y0714*
X07743Y07133*
X07749Y07127*
X07755Y07121*
X07762Y07115*
X07769Y0711*
X07776Y07105*
X07784Y07101*
X07792Y07098*
X078Y07095*
X07808Y07092*
X07817Y0709*
X07825Y07089*
X07834Y07089*
X07843*
X07852Y07089*
X0786Y0709*
X07869Y07092*
X07877Y07095*
X07885Y07098*
X07893Y07101*
X07901Y07105*
X07908Y0711*
X07915Y07115*
X07922Y07121*
X07928Y07127*
X07934Y07133*
X0794Y0714*
X07944Y07147*
X07949Y07155*
X07953Y07163*
X07956Y07171*
X07959Y07179*
X07961Y07187*
X07962Y07196*
X07963Y07205*
X07963Y07213*
M02*