%FSTAX23Y23*%
%MOMM*%
%SFA1B1*%

%IPPOS*%
%AMD42*
4,1,8,-0.396240,-0.728980,0.396240,-0.728980,0.541020,-0.584200,0.541020,0.584200,0.396240,0.728980,-0.396240,0.728980,-0.541020,0.584200,-0.541020,-0.584200,-0.396240,-0.728980,0.0*
1,1,0.289400,-0.396240,-0.584200*
1,1,0.289400,0.396240,-0.584200*
1,1,0.289400,0.396240,0.584200*
1,1,0.289400,-0.396240,0.584200*
%
%AMD45*
4,1,8,-0.299720,-0.474980,0.299720,-0.474980,0.474980,-0.299720,0.474980,0.299720,0.299720,0.474980,-0.299720,0.474980,-0.474980,0.299720,-0.474980,-0.299720,-0.299720,-0.474980,0.0*
1,1,0.350000,-0.299720,-0.299720*
1,1,0.350000,0.299720,-0.299720*
1,1,0.350000,0.299720,0.299720*
1,1,0.350000,-0.299720,0.299720*
%
%AMD52*
4,1,8,-1.521460,-0.728980,1.521460,-0.728980,1.694180,-0.556260,1.694180,0.556260,1.521460,0.728980,-1.521460,0.728980,-1.694180,0.556260,-1.694180,-0.556260,-1.521460,-0.728980,0.0*
1,1,0.346600,-1.521460,-0.556260*
1,1,0.346600,1.521460,-0.556260*
1,1,0.346600,1.521460,0.556260*
1,1,0.346600,-1.521460,0.556260*
%
%ADD35R,0.949998X0.899998*%
%ADD36R,1.699997X0.749999*%
%ADD37R,1.949996X1.349997*%
%ADD38R,0.849998X1.599997*%
%ADD39R,1.461597X1.331597*%
%ADD40R,1.129998X1.069998*%
%ADD41R,1.599997X0.849998*%
G04~CAMADD=42~8~0.0~0.0~425.2~574.8~57.0~0.0~15~0.0~0.0~0.0~0.0~0~0.0~0.0~0.0~0.0~0~0.0~0.0~0.0~180.0~426.0~575.0*
%ADD42D42*%
%ADD43R,1.524997X0.349999*%
%ADD44R,0.349999X1.524997*%
G04~CAMADD=45~8~0.0~0.0~374.0~374.0~68.9~0.0~15~0.0~0.0~0.0~0.0~0~0.0~0.0~0.0~0.0~0~0.0~0.0~0.0~180.0~374.0~374.0*
%ADD45D45*%
%ADD46R,1.331597X1.461597*%
%ADD47R,1.249998X1.549997*%
%ADD48R,0.951998X1.121998*%
%ADD49R,0.449999X1.399997*%
%ADD50R,1.649997X1.449997*%
%ADD51R,1.949996X1.949996*%
G04~CAMADD=52~8~0.0~0.0~1334.6~574.8~68.2~0.0~15~0.0~0.0~0.0~0.0~0~0.0~0.0~0.0~0.0~0~0.0~0.0~0.0~180.0~1334.0~574.0*
%ADD52D52*%
%ADD53R,1.049998X1.549997*%
%ADD54R,2.249995X1.549997*%
%ADD55C,3.149994*%
%ADD56C,1.673997*%
%ADD57O,0.949998X1.849996*%
%ADD58C,3.949992*%
%ADD59O,3.149994X3.949992*%
%LNpcb1-1*%
%LPD*%
G54D35*
X03937Y39826D03*
Y42976D03*
G54D36*
X30474Y33499D03*
Y32499D03*
G54D37*
X32999Y34799D03*
Y31199D03*
G54D38*
X09416Y12941D03*
X07616D03*
X10916Y06941D03*
X27382Y23057D03*
X24082Y06957D03*
X09116Y06941D03*
X25882Y06957D03*
X25582Y23057D03*
G54D39*
X03999Y17814D03*
X30999D03*
Y22184D03*
X03999D03*
G54D40*
X01016Y33641D03*
X28321Y14859D03*
X09906Y33768D03*
Y35318D03*
X3012Y14859D03*
X01016Y35191D03*
G54D41*
X18941Y2679D03*
X21441D03*
X13441D03*
X15941D03*
X22057Y07616D03*
X13441Y2499D03*
X15941D03*
X18941D03*
X21441D03*
X22057Y09416D03*
G54D42*
X07877Y37761D03*
X05588D03*
X03297D03*
G54D43*
X23237Y20249D03*
X11761Y13749D03*
Y20249D03*
Y20749D03*
Y19749D03*
Y19249D03*
Y18749D03*
Y18249D03*
Y17749D03*
Y17249D03*
Y16749D03*
Y16249D03*
Y15749D03*
Y15249D03*
Y14749D03*
Y14249D03*
Y13249D03*
X23237D03*
Y13749D03*
Y14249D03*
Y14749D03*
Y15249D03*
Y15749D03*
Y16249D03*
Y16749D03*
Y17249D03*
Y17749D03*
Y18249D03*
Y18749D03*
Y19249D03*
Y19749D03*
Y20749D03*
G54D44*
X20749Y11261D03*
X15749Y22737D03*
X18249Y11261D03*
X15249Y22737D03*
X21249D03*
X17749Y11261D03*
X20749Y22737D03*
X20249D03*
X19749D03*
X19249D03*
X18749D03*
X18249D03*
X17749D03*
X17249D03*
X16749D03*
X16249D03*
X14749D03*
X14249D03*
X13749D03*
Y11261D03*
X14249D03*
X14749D03*
X15249D03*
X15749D03*
X16249D03*
X16749D03*
X17249D03*
X18749D03*
X19249D03*
X19749D03*
X20249D03*
X21249D03*
G54D45*
X05149Y04499D03*
X29849D03*
X28149D03*
X06849D03*
G54D46*
X02814Y09999D03*
X32184D03*
X07184D03*
X27814D03*
G54D47*
X18249Y08299D03*
G54D48*
X30286Y26165D03*
X28386D03*
X29337Y27935D03*
G54D49*
X18823Y04198D03*
X18173D03*
X17523D03*
X16873D03*
X16223D03*
G54D50*
X14323Y03973D03*
X20723D03*
G54D51*
X16323Y01524D03*
X18723D03*
G54D52*
X05588Y31368D03*
G54D53*
X18449Y06099D03*
X16549D03*
Y08299D03*
G54D54*
X26999Y30799D03*
Y35199D03*
G54D55*
X31999Y57999D03*
X02032Y01905D03*
G54D56*
X18999Y45849D03*
X03759D03*
Y54999D03*
X18999D03*
G54D57*
X14224Y01524D03*
X20823D03*
G54D58*
X27998Y52494D03*
Y47494D03*
G54D59*
X12669Y36322D03*
X17369D03*
X22069D03*
M02*