%FSTAX23Y23*%
%MOMM*%
%SFA1B1*%

%IPPOS*%
%ADD10C,0.200000*%
%ADD25R,0.979998X0.919998*%
%ADD27R,1.449997X0.699999*%
%ADD66C,0.399999*%
%ADD67O,0.899998X1.799996*%
%ADD68C,1.523997*%
%ADD69O,2.999994X3.799992*%
%ADD70C,3.799992*%
%ADD71C,2.999994*%
%ADD72C,0.699999*%
%ADD73C,0.999998*%
%ADD74R,0.899998X0.949998*%
%ADD75C,0.499999*%
%ADD76C,0.599999*%
%LNpcb1-1*%
%LPD*%
G36*
X08391Y0771D02*
Y07013D01*
X08386Y0707*
X08369Y07121*
X0834Y07166*
X083Y07205*
X08249Y07239*
X08186Y07265*
X08112Y07286*
X08027Y07301*
X0793Y0731*
X07822Y07313*
Y07913*
X08391Y0771*
G37*
G36*
X34774Y64788D02*
X34788Y64774D01*
X34796Y64755*
Y64745*
Y00254*
Y00243*
X34788Y00225*
X34774Y00211*
X34755Y00203*
X0247*
X02458Y0033*
X02506Y0034*
X02802Y00463*
X03069Y00641*
X03295Y00867*
X03473Y01134*
X03596Y0143*
X03658Y01744*
Y02065*
X03596Y02379*
X03473Y02675*
X03295Y02942*
X03069Y03168*
X02802Y03346*
X02506Y03469*
X02192Y03531*
X01871*
X01557Y03469*
X01261Y03346*
X00994Y03168*
X00768Y02942*
X0059Y02675*
X00467Y02379*
X00404Y02065*
Y01744*
X00467Y0143*
X0059Y01134*
X00768Y00867*
X00994Y00641*
X01261Y00463*
X01557Y0034*
X01605Y0033*
X01593Y00203*
X00243*
X00225Y00211*
X00211Y00225*
X00203Y00243*
Y11776*
X0033Y11789*
X00359Y11644*
X00454Y11503*
X04651Y07306*
X04792Y07211*
X04958Y07178*
X07813*
X07818Y07176*
X07922Y07173*
X08008Y07165*
X08082Y07152*
X0814Y07136*
X08184Y07117*
X08214Y07097*
X08233Y07079*
X08244Y07062*
X08251Y07041*
X08255Y07*
X08261Y06987*
Y06636*
X09415*
Y0784*
X08877*
X08796Y07921*
X08655Y08016*
X08488Y08049*
X07827*
X07822Y08051*
X07816Y08049*
X05139*
X01197Y11991*
Y27505*
X01512Y2782*
X01648*
X01879Y27916*
X02055Y28092*
X0215Y28323*
Y28572*
X02055Y28803*
X01879Y28979*
X01648Y29074*
X01399*
X01168Y28979*
X00992Y28803*
X00896Y28572*
Y28436*
X00454Y27993*
X00359Y27852*
X0033Y27707*
X00203Y27719*
Y64755*
X00211Y64774*
X00225Y64788*
X00243Y64796*
X34755*
X34774Y64788*
G37*
%LNpcb1-2*%
%LPC*%
G36*
X13266Y61888D02*
X13213D01*
Y61063*
X14038*
Y61116*
X13978Y61343*
X13861Y61545*
X13695Y61711*
X13493Y61828*
X13266Y61888*
G37*
G36*
X13086D02*
X13032D01*
X12806Y61828*
X12604Y61711*
X12438Y61545*
X12321Y61343*
X1226Y61116*
Y61063*
X13086*
Y61888*
G37*
G36*
X32418Y64237D02*
X32097D01*
X31783Y64175*
X31487Y64052*
X3122Y63874*
X30994Y63648*
X30816Y63381*
X30693Y63085*
X3063Y62771*
Y6245*
X30693Y62136*
X30816Y6184*
X30994Y61573*
X3122Y61347*
X31487Y61169*
X31783Y61046*
X32097Y60983*
X32418*
X32732Y61046*
X33028Y61169*
X33295Y61347*
X33521Y61573*
X33699Y6184*
X33822Y62136*
X33884Y6245*
Y62771*
X33822Y63085*
X33699Y63381*
X33521Y63648*
X33295Y63874*
X33028Y64052*
X32732Y64175*
X32418Y64237*
G37*
G36*
X14038Y60936D02*
X13213D01*
Y6011*
X13266*
X13493Y60171*
X13695Y60288*
X13861Y60454*
X13978Y60656*
X14038Y60882*
Y60936*
G37*
G36*
X13086D02*
X1226D01*
Y60882*
X12321Y60656*
X12438Y60454*
X12604Y60288*
X12806Y60171*
X13032Y6011*
X13086*
Y60936*
G37*
G36*
X25198Y59521D02*
X25062D01*
Y57558*
X27025*
Y57694*
X26948Y58086*
X26795Y58455*
X26573Y58787*
X26291Y59069*
X25959Y59291*
X2559Y59444*
X25198Y59521*
G37*
G36*
X24935D02*
X24799D01*
X24407Y59444*
X24038Y59291*
X23706Y59069*
X23424Y58787*
X23202Y58455*
X23049Y58086*
X22971Y57694*
Y57558*
X24935*
Y59521*
G37*
G36*
X27025Y57431D02*
X25062D01*
Y55467*
X25198*
X2559Y55545*
X25959Y55698*
X26291Y5592*
X26573Y56202*
X26795Y56534*
X26948Y56903*
X27025Y57295*
Y57431*
G37*
G36*
X24935D02*
X22971D01*
Y57295*
X23049Y56903*
X23202Y56534*
X23424Y56202*
X23706Y5592*
X24038Y55698*
X24407Y55545*
X24799Y55467*
X24935*
Y57431*
G37*
G36*
X25198Y54521D02*
X24799D01*
X24407Y54444*
X24038Y54291*
X23706Y54069*
X23424Y53787*
X23202Y53455*
X23049Y53086*
X22971Y52694*
Y52295*
X23049Y51903*
X23202Y51534*
X23424Y51202*
X23706Y5092*
X24038Y50698*
X24407Y50545*
X24799Y50467*
X25198*
X2559Y50545*
X25959Y50698*
X26291Y5092*
X26573Y51202*
X26795Y51534*
X26948Y51903*
X27025Y52295*
Y52694*
X26948Y53086*
X26795Y53455*
X26573Y53787*
X26291Y54069*
X25959Y54291*
X2559Y54444*
X25198Y54521*
G37*
G36*
X13266Y46648D02*
X13213D01*
Y45823*
X14038*
Y45876*
X13978Y46103*
X13861Y46305*
X13695Y46471*
X13493Y46588*
X13266Y46648*
G37*
G36*
X13086D02*
X13032D01*
X12806Y46588*
X12604Y46471*
X12438Y46305*
X12321Y46103*
X1226Y45876*
Y45823*
X13086*
Y46648*
G37*
G36*
X14038Y45696D02*
X13213D01*
Y4487*
X13266*
X13493Y44931*
X13695Y45048*
X13861Y45214*
X13978Y45416*
X14038Y45642*
Y45696*
G37*
G36*
X13086D02*
X1226D01*
Y45642*
X12321Y45416*
X12438Y45214*
X12604Y45048*
X12806Y44931*
X13032Y4487*
X13086*
Y45696*
G37*
G36*
X04116Y46648D02*
X03882D01*
X03656Y46588*
X03454Y46471*
X03288Y46305*
X03171Y46103*
X0311Y45876*
Y45642*
X03171Y45416*
X03288Y45214*
X03454Y45048*
X03656Y44931*
X03882Y4487*
X04116*
X04343Y44931*
X04545Y45048*
X04711Y45214*
X04828Y45416*
X04888Y45642*
Y45876*
X04828Y46103*
X04711Y46305*
X04545Y46471*
X04343Y46588*
X04116Y46648*
G37*
G36*
X17369Y38356D02*
X1705Y38325D01*
X16743Y38232*
X16461Y38081*
X16213Y37877*
X1601Y3763*
X15859Y37347*
X15766Y3704*
X15734Y36721*
Y35921*
X15766Y35603*
X15859Y35296*
X1601Y35013*
X16213Y34765*
X16461Y34562*
X16743Y34411*
X1705Y34318*
X17369Y34287*
X17688Y34318*
X17995Y34411*
X18277Y34562*
X18525Y34765*
X18728Y35013*
X18879Y35296*
X18973Y35603*
X19004Y35921*
Y36721*
X18973Y3704*
X18879Y37347*
X18728Y3763*
X18525Y37877*
X18277Y38081*
X17995Y38232*
X17688Y38325*
X17369Y38356*
G37*
G36*
X12669D02*
X1235Y38325D01*
X12043Y38232*
X11761Y38081*
X11513Y37877*
X1131Y3763*
X11159Y37347*
X11066Y3704*
X11034Y36721*
Y35921*
X11066Y35603*
X11159Y35296*
X1131Y35013*
X11513Y34765*
X11761Y34562*
X12043Y34411*
X1235Y34318*
X12669Y34287*
X12988Y34318*
X13295Y34411*
X13577Y34562*
X13825Y34765*
X14028Y35013*
X14179Y35296*
X14273Y35603*
X14304Y35921*
Y36721*
X14273Y3704*
X14179Y37347*
X14028Y3763*
X13825Y37877*
X13577Y38081*
X13295Y38232*
X12988Y38325*
X12669Y38356*
G37*
G36*
X04699Y63129D02*
D01*
X02159*
X02061Y63089*
X02021Y62992*
Y59944*
X02061Y59846*
X19674Y42234*
Y34373*
X19685Y34348*
Y34321*
X19704Y34301*
X19714Y34276*
X19737Y34201*
X19734Y3413*
X13828Y28224*
X13744Y28099*
X13715Y27952*
Y26942*
X13712Y26935*
X1371Y26849*
X13704Y26778*
X13694Y26718*
X13681Y26671*
X13667Y26637*
X13654Y26616*
X13644Y26604*
X13636Y26599*
X13627Y26596*
X13598Y26593*
X13586Y26586*
X13482*
Y26474*
X13475Y26456*
X13478Y26449*
X13476Y26442*
X13482Y2643*
Y25412*
X14631*
X14684Y25285*
X12845Y23447*
X11176*
X11048Y23421*
X1094Y23349*
X09416Y21825*
X09343Y21717*
X09318Y2159*
Y16674*
X09314Y16664*
X09314Y16643*
X09311Y16606*
X09309Y16595*
X09307Y16585*
X09305Y16579*
X09304Y16577*
X09303Y16576*
X09303Y16574*
X09301Y16571*
X09299Y16564*
X09296Y16554*
X09247Y16505*
X09174Y1633*
Y1614*
X09247Y15965*
X09381Y1583*
X09557Y15758*
X09746*
X09922Y1583*
X10056Y15965*
X10128Y1614*
Y1633*
X10056Y16505*
X10007Y16554*
X10004Y16564*
X10002Y16571*
X1Y16574*
X1Y16576*
X09999Y16577*
X09998Y16579*
X09996Y16585*
X09994Y16595*
X09992Y16606*
X09989Y16643*
X09989Y16664*
X09985Y16674*
Y21451*
X11314Y2278*
X12983*
X13111Y22805*
X13219Y22878*
X15512Y2517*
X15521Y25174*
X15572Y25222*
X1562Y25263*
X15667Y25298*
X15713Y25327*
X15759Y25352*
X15804Y25371*
X15848Y25386*
X15891Y25397*
X15935Y25403*
X15985Y25405*
X16Y25412*
X16516*
Y25573*
X16523Y25586*
X16525Y25608*
X16527Y25612*
X16528Y25614*
X16533Y25619*
X16546Y25628*
X16569Y25638*
X16603Y25647*
X16648Y25655*
X16702Y2566*
X1677Y25662*
X16779Y25666*
X1822*
X18229Y25662*
X18296Y2566*
X18351Y25655*
X18396Y25647*
X1843Y25638*
X18453Y25628*
X18466Y25619*
X18471Y25614*
X18472Y25612*
X18473Y25608*
X18476Y25586*
X18482Y25573*
Y25412*
X18359Y25403*
X17689*
X17669Y25423*
X17493Y25495*
X17304*
X17128Y25423*
X16994Y25289*
X16921Y25113*
Y24924*
X16994Y24748*
X17128Y24614*
X17212Y24579*
Y24442*
X17128Y24407*
X16994Y24273*
X16921Y24097*
Y23908*
X16994Y23732*
X17128Y23598*
X17167Y23582*
Y21812*
X10572Y15217*
X08788*
X08269Y15736*
X08264Y1575*
X08241Y15774*
X08223Y15795*
X08209Y15815*
X08196Y15834*
X08187Y15852*
X08179Y15869*
X08174Y15885*
X0817Y15901*
X08168Y15916*
X08167Y15938*
X08159Y15953*
Y16472*
X07448*
X07447Y16479*
X07445Y16501*
X07444Y16532*
X07432Y16559*
X0742Y16617*
X0737Y16692*
X06566Y17496*
X06562Y17508*
X06558Y17513*
X06557Y17513*
X06555Y17519*
X06552Y17529*
X06548Y17543*
X06544Y17563*
X06541Y17585*
X06538Y17646*
X06538Y17682*
X06527Y17707*
Y17779*
X06455Y17955*
X0632Y18089*
X06145Y18161*
X05955*
X0578Y18089*
X05646Y17955*
X05573Y17779*
Y1759*
X05646Y17414*
X0578Y1728*
X05955Y17207*
X06028*
X06053Y17197*
X06054*
Y17197*
Y17197*
X06089Y17197*
X0615Y17193*
X06172Y1719*
X06191Y17187*
X06206Y17183*
X06216Y1718*
X06221Y17177*
X06222Y17177*
X06227Y17173*
X06239Y17169*
X06818Y1659*
X06769Y16472*
X06455*
Y16111*
X06446Y16109*
X06423Y16107*
X06392Y16106*
X06378Y161*
X03284*
X0327Y16106*
X03239Y16107*
X03216Y16109*
X03206Y16111*
Y16345*
X01502*
Y15391*
X03206*
Y15626*
X03216Y15628*
X03239Y1563*
X0327Y15631*
X03284Y15637*
X06378*
X06392Y15631*
X06423Y1563*
X06446Y15628*
X06455Y15626*
Y15518*
X07725*
X0774Y15511*
X07762Y1551*
X07777Y15508*
X07793Y15504*
X07809Y15499*
X07826Y15491*
X07844Y15481*
X07863Y15469*
X07883Y15455*
X07904Y15437*
X07928Y15414*
X07941Y15409*
X08529Y14822*
X08604Y14772*
X08692Y14754*
X09989*
X10015Y14632*
X10015Y14627*
X09882Y14494*
X09809Y14318*
Y14129*
X09882Y13953*
X10016Y13819*
X10192Y13746*
X10381*
X10557Y13819*
X10608Y13871*
X10633Y13881*
X10658Y13906*
X10704Y13947*
X10722Y1396*
X10738Y13971*
X10751Y13979*
X10761Y13984*
X10766Y13986*
X10766Y13986*
X10773Y13986*
X10784Y13992*
X21971*
X22059Y1401*
X22134Y1406*
X25789Y17715*
X25839Y1779*
X25857Y17878*
Y18776*
X25862Y18787*
X25863Y18794*
X25863Y18794*
X25865Y18799*
X2587Y18809*
X25877Y18822*
X25889Y18838*
X25902Y18856*
X25943Y18902*
X25968Y18927*
X25978Y18952*
X2603Y19003*
X26102Y19179*
Y19368*
X2603Y19544*
X25896Y19678*
X2572Y1975*
X25531*
X25355Y19678*
X25221Y19544*
X25148Y19368*
Y19179*
X25221Y19003*
X25273Y18952*
X25283Y18927*
X25308Y18902*
X25349Y18856*
X25362Y18838*
X25373Y18822*
X25381Y18809*
X25386Y18799*
X25388Y18794*
X25388Y18794*
X25388Y18787*
X25394Y18776*
Y17974*
X21875Y14455*
X10784*
X10773Y1446*
X10766Y14461*
X10766Y14461*
X10761Y14463*
X10751Y14468*
X10738Y14476*
X10722Y14487*
X10704Y145*
X10658Y14541*
X10633Y14566*
X10608Y14576*
X10557Y14627*
X10558Y14632*
X10584Y14754*
X10668*
X10756Y14772*
X10831Y14822*
X17562Y21553*
X17612Y21628*
X1763Y21717*
Y23582*
X17669Y23598*
X17803Y23732*
X17875Y23908*
Y24097*
X17803Y24273*
X17669Y24407*
X17584Y24442*
Y24579*
X17585Y2458*
X17669Y24614*
X17689Y24634*
X17689*
X22954*
X31145Y16443*
Y16415*
X31218Y16239*
X31352Y16105*
X31528Y16032*
X31556*
X32762Y14826*
Y06382*
X3181Y05429*
X31782*
X31606Y05357*
X31472Y05223*
X31399Y05047*
Y04858*
X31472Y04682*
X31606Y04548*
X31782Y04475*
X31971*
X32147Y04548*
X32281Y04682*
X32353Y04858*
Y04886*
X33418Y05951*
X33502Y06075*
X33531Y06223*
Y14986*
X33502Y15133*
X33418Y15257*
X32099Y16576*
Y16604*
X32027Y1678*
X31893Y16914*
X31717Y16986*
X31689*
X23385Y2529*
X23261Y25374*
X23114Y25403*
X21639*
X21516Y25412*
Y2553*
Y25936*
X20899*
X20282*
Y25412*
X20159Y25403*
X19839*
X19716Y25412*
Y2553*
Y26586*
X18482*
Y26426*
X18476Y26413*
X18473Y26391*
X18472Y26387*
X18471Y26385*
X18466Y2638*
X18453Y26371*
X1843Y26361*
X18396Y26352*
X18351Y26344*
X18296Y26339*
X18229Y26337*
X1822Y26333*
X16779*
X1677Y26337*
X16702Y26339*
X16648Y26344*
X16603Y26352*
X16569Y26361*
X16546Y26371*
X16533Y2638*
X16528Y26385*
X16527Y26387*
X16525Y26391*
X16523Y26413*
X16516Y26426*
Y26586*
X15282*
Y2613*
X15275Y26115*
X15273Y26065*
X15267Y26021*
X15256Y25978*
X15241Y25934*
X15222Y25889*
X15197Y25843*
X15168Y25797*
X15133Y2575*
X15092Y25702*
X15044Y25651*
X1504Y25642*
X14843Y25445*
X14716Y25498*
Y2643*
X14723Y26442*
X14721Y26449*
X14724Y26456*
X14716Y26474*
Y26586*
X14613*
X14601Y26593*
X14572Y26596*
X14563Y26599*
X14555Y26604*
X14545Y26616*
X14532Y26637*
X14518Y26671*
X14505Y26718*
X14495Y26778*
X14489Y26849*
X14487Y26935*
X14484Y26942*
Y27793*
X19632Y32941*
X19685Y32946*
X19778Y32922*
X19796Y32915*
X19809Y32899*
X19843Y32895*
X19875Y32882*
X24003*
X241Y32922*
X2414Y3302*
Y43688*
X241Y43785*
X04796Y63089*
X04699Y63129*
G37*
G36*
X21516Y26586D02*
X20963D01*
Y26063*
X21516*
Y26586*
G37*
G36*
X20836D02*
X20282D01*
Y26063*
X20836*
Y26586*
G37*
G36*
X08159Y14672D02*
X07371D01*
Y14259*
X08159*
Y14672*
G37*
G36*
X07244D02*
X06455D01*
Y14259*
X07244*
Y14672*
G37*
G36*
X03206Y14545D02*
X02418D01*
Y14132*
X03206*
Y14545*
G37*
G36*
X02291D02*
X01502D01*
Y14132*
X02291*
Y14545*
G37*
G36*
X08159Y14132D02*
X07371D01*
Y13718*
X08159*
Y14132*
G37*
G36*
X07244D02*
X06455D01*
Y13718*
X07244*
Y14132*
G37*
G36*
X03206Y14005D02*
X02418D01*
Y13591*
X03206*
Y14005*
G37*
G36*
X02291D02*
X01502D01*
Y13591*
X02291*
Y14005*
G37*
G36*
X18552Y10416D02*
X18362D01*
X18187Y10343*
X18052Y10209*
X1798Y10034*
Y09844*
X18052Y09669*
X18187Y09535*
X18362Y09462*
X18376*
X18384Y09457*
X18459Y09445*
X18486Y09439*
X18537Y09425*
X18553Y0942*
X18565Y09414*
X18573Y0941*
X18575Y09409*
X1858Y09404*
X18592Y09401*
X19013Y0898*
X19088Y0893*
X19177Y08912*
X25249*
X2526Y08906*
X25267Y08906*
X25269Y08906*
X25276Y08903*
X25287Y08898*
X25302Y0889*
X25318Y0888*
X25393Y08826*
X25421Y08803*
X25439Y08797*
X25465Y08771*
X2564Y08698*
X2583*
X26005Y08771*
X2614Y08905*
X26212Y09081*
Y0927*
X2614Y09446*
X26005Y0958*
X2583Y09652*
X2564*
X25465Y0958*
X25384Y09499*
X25361Y09487*
X25315Y09436*
X25298Y09419*
X25282Y09404*
X25268Y09393*
X25257Y09386*
X2525Y09382*
X25247Y09381*
X2524Y0938*
X2524Y0938*
X25239Y0938*
X25229Y09375*
X19272*
X18947Y097*
X18945Y09708*
X18941Y09711*
X18939Y09716*
X18935Y09721*
X18934Y09722*
X18933Y09729*
X18931Y0974*
X18929Y09756*
X18929Y09774*
X18933Y0983*
X18938Y09862*
X18934Y09879*
Y10034*
X18861Y10209*
X18727Y10343*
X18552Y10416*
G37*
G36*
X15207Y08477D02*
X15018D01*
X14842Y08405*
X14708Y08271*
X14635Y08095*
Y07906*
X14651Y07869*
X14649Y07865*
X14255Y0747*
X12643*
X12629Y07476*
X12598Y07477*
X12575Y07479*
X12565Y07481*
Y0784*
X11411*
Y06636*
X12565*
Y06996*
X12575Y06998*
X12598Y07*
X12629Y07001*
X12643Y07007*
X14351*
X14439Y07025*
X14514Y07075*
X14977Y07537*
X14981Y07539*
X15018Y07523*
X15207*
X15383Y07596*
X15517Y0773*
X15589Y07906*
Y08095*
X15517Y08271*
X15383Y08405*
X15207Y08477*
G37*
G36*
X15842Y10509D02*
X15653D01*
X15477Y10437*
X15343Y10303*
X1527Y10127*
Y09938*
X15343Y09762*
X15477Y09628*
X15653Y09555*
X15725*
X1575Y09545*
X15751*
X15786Y09545*
X15847Y09541*
X15869Y09538*
X15889Y09535*
X15903Y09531*
X15913Y09528*
X15918Y09525*
X15919Y09525*
X15924Y09521*
X15936Y09517*
X18104Y07349*
Y07064*
X18121Y06975*
X18172Y069*
X20664Y04408*
X20739Y04358*
X20828Y0434*
X21674*
X21678Y04338*
X21693Y04301*
X21827Y04167*
X22003Y04094*
X22192*
X22368Y04167*
X22502Y04301*
X22574Y04477*
Y04666*
X22502Y04842*
X22368Y04976*
X22192Y05048*
X22003*
X21827Y04976*
X21693Y04842*
X21678Y04805*
X21674Y04803*
X20923*
X18567Y07159*
Y07445*
X18549Y07533*
X18499Y07608*
X16263Y09844*
X16259Y09856*
X16255Y09861*
X16255Y09861*
X16252Y09867*
X16249Y09877*
X16245Y09891*
X16241Y09911*
X16239Y09933*
X16235Y09994*
X16235Y1003*
X16224Y10055*
Y10127*
X16152Y10303*
X16018Y10437*
X15842Y10509*
G37*
G36*
X10254Y11144D02*
X10065D01*
X09889Y11072*
X09755Y10938*
X09682Y10762*
Y10573*
X09755Y10397*
X09807Y10346*
X09817Y10321*
X09842Y10296*
X09883Y1025*
X09896Y10232*
X09907Y10216*
X09915Y10203*
X0992Y10193*
X09922Y10188*
X09922Y10188*
X09922Y10181*
X09928Y1017*
Y07112*
X09946Y07023*
X09996Y06948*
X12397Y04547*
X12401Y04535*
X12405Y0453*
X12406Y04529*
X12419Y04502*
X12424Y04489*
X12461Y04369*
X1247Y04332*
X1247*
Y04332*
X1248Y04318*
X1254Y04173*
X12674Y04039*
X12849Y03966*
X13039*
X13214Y04039*
X13349Y04173*
X13421Y04348*
Y04538*
X13349Y04713*
X13214Y04847*
X13039Y0492*
X12849*
X12837Y04915*
X12828Y04916*
X12796Y04909*
X1277Y04904*
X12748Y04902*
X1273Y04901*
X12716Y04901*
X12707Y04903*
X12703Y04904*
X12699Y04907*
X12688Y04911*
X12681Y0492*
X12678Y0492*
X10391Y07207*
Y1017*
X10396Y10181*
X10397Y10188*
X10397Y10188*
X10399Y10193*
X10404Y10203*
X10412Y10216*
X10423Y10232*
X10436Y1025*
X10477Y10296*
X10502Y10321*
X10512Y10346*
X10564Y10397*
X10636Y10573*
Y10762*
X10564Y10938*
X1043Y11072*
X10254Y11144*
G37*
G36*
X20887Y02549D02*
Y01587D01*
X21412*
Y01973*
X21367Y02199*
X21239Y02389*
X21049Y02517*
X20887Y02549*
G37*
G36*
X14287D02*
Y01587D01*
X14812*
Y01973*
X14767Y02199*
X14639Y02389*
X14449Y02517*
X14287Y02549*
G37*
G36*
X1416D02*
X13998Y02517D01*
X13807Y02389*
X1368Y02199*
X13635Y01973*
Y01587*
X1416*
Y02549*
G37*
G36*
X2076D02*
X20598Y02517D01*
X20407Y02389*
X2028Y02199*
X20235Y01973*
Y01587*
X2076*
Y02549*
G37*
G36*
X21412Y0146D02*
X20887D01*
Y00498*
X21049Y0053*
X21239Y00657*
X21367Y00848*
X21412Y01073*
Y0146*
G37*
G36*
X14812D02*
X14287D01*
Y00498*
X14449Y0053*
X14639Y00657*
X14767Y00848*
X14812Y01073*
Y0146*
G37*
G36*
X1416D02*
X13635D01*
Y01073*
X1368Y00848*
X13807Y00657*
X13998Y0053*
X1416Y00498*
Y0146*
G37*
G36*
X2076D02*
X20235D01*
Y01073*
X2028Y00848*
X20407Y00657*
X20598Y0053*
X2076Y00498*
Y0146*
G37*
%LNpcb1-3*%
%LPD*%
G36*
X21423Y34569D02*
X21373Y34585D01*
X21321Y34594*
X21268Y34594*
X21214Y34586*
X21159Y3457*
X21103Y34545*
X21045Y34512*
X20987Y34472*
X20927Y34422*
X20866Y34365*
X20513Y34719*
X2057Y3478*
X20619Y34839*
X2066Y34898*
X20693Y34955*
X20717Y35011*
X20733Y35067*
X20741Y35121*
X20741Y35173*
X20733Y35225*
X20716Y35276*
X21423Y34569*
G37*
G36*
X24003Y43688D02*
Y3302D01*
X19875*
X19838Y33147*
X20954Y34262*
X20961Y34265*
X21018Y34319*
X2107Y34362*
X21119Y34396*
X21164Y34422*
X21206Y3444*
X21244Y34451*
X21278Y34456*
X2131Y34456*
X2134Y34451*
X2138Y34438*
X21391Y34439*
X21443Y34411*
X2175Y34318*
X22006Y34293*
Y36258*
X20434*
Y35921*
X20466Y35603*
X20559Y35296*
X20586Y35244*
X20586Y35233*
X20599Y35193*
X20604Y35162*
X20604Y35131*
X20599Y35096*
X20588Y35058*
X2057Y35017*
X20544Y34971*
X2051Y34922*
X20467Y3487*
X20413Y34813*
X2041Y34806*
X19929Y34325*
X19812Y34373*
Y42291*
X02159Y59944*
Y62992*
X04699*
X24003Y43688*
G37*
G36*
X14352Y26841D02*
X14359Y2676D01*
X14371Y26689*
X14387Y26627*
X14409Y26575*
X14435Y26532*
X14466Y26499*
X14501Y26475*
X14541Y26461*
X14586Y26456*
X13613*
X13658Y26461*
X13698Y26475*
X13733Y26499*
X13764Y26532*
X1379Y26575*
X13812Y26627*
X13828Y26689*
X1384Y2676*
X13847Y26841*
X13849Y26931*
X14349*
X14352Y26841*
G37*
G36*
X18613Y25599D02*
X18609Y25637D01*
X18597Y25671*
X18578Y25701*
X18552Y25727*
X18517Y25749*
X18476Y25767*
X18426Y25781*
X18369Y25791*
X18305Y25797*
X18232Y25799*
Y26199*
X18305Y26201*
X18369Y26207*
X18426Y26217*
X18476Y26231*
X18517Y26249*
X18552Y26271*
X18578Y26297*
X18597Y26327*
X18609Y26361*
X18613Y26399*
Y25599*
G37*
G36*
X1639Y26361D02*
X16402Y26327D01*
X16421Y26297*
X16447Y26271*
X16481Y26249*
X16523Y26231*
X16573Y26217*
X1663Y26207*
X16694Y26201*
X16766Y26199*
Y25799*
X16694Y25797*
X1663Y25791*
X16573Y25781*
X16523Y25767*
X16481Y25749*
X16447Y25727*
X16421Y25701*
X16402Y25671*
X1639Y25637*
X16386Y25599*
Y26399*
X1639Y26361*
G37*
G36*
X15978Y25543D02*
X15922Y2554D01*
X15866Y25532*
X1581Y25518*
X15754Y255*
X15699Y25475*
X15644Y25446*
X15589Y25411*
X15535Y25371*
X15481Y25325*
X15427Y25274*
X15144Y25557*
X15195Y25611*
X15241Y25665*
X15281Y25719*
X15316Y25774*
X15345Y25829*
X1537Y25884*
X15388Y2594*
X15402Y25996*
X1541Y26052*
X15412Y26108*
X15978Y25543*
G37*
G36*
X25843Y18996D02*
X25797Y18944D01*
X25778Y18919*
X25762Y18896*
X25749Y18874*
X25738Y18853*
X25731Y18834*
X25727Y18815*
X25725Y18798*
X25525*
X25524Y18815*
X2552Y18834*
X25512Y18853*
X25502Y18874*
X25489Y18896*
X25473Y18919*
X25454Y18944*
X25408Y18996*
X2538Y19023*
X2587*
X25843Y18996*
G37*
G36*
X064Y17642D02*
X06405Y17572D01*
X06408Y17542*
X06413Y17514*
X0642Y17489*
X06427Y17467*
X06436Y17448*
X06446Y17432*
X06457Y17419*
X06316Y17278*
X06303Y17289*
X06286Y17299*
X06267Y17307*
X06246Y17315*
X06221Y17321*
X06193Y17326*
X06163Y1733*
X06093Y17334*
X06054Y17334*
X064Y17681*
X064Y17642*
G37*
G36*
X09852Y16636D02*
X09855Y1659D01*
X09859Y1657*
X09863Y16551*
X09868Y16534*
X09874Y16519*
X0988Y16506*
X09888Y16494*
X09896Y16485*
X09406*
X09415Y16494*
X09423Y16506*
X09429Y16519*
X09435Y16534*
X0944Y16551*
X09444Y1657*
X09447Y1659*
X09451Y16636*
X09451Y16662*
X09851*
X09852Y16636*
G37*
G36*
X07307Y16493D02*
X0731Y16461D01*
X07315Y16433*
X07322Y16409*
X0733Y16389*
X07341Y16372*
X07353Y16359*
X07368Y1635*
X07384Y16344*
X07402Y16342*
X07011*
X07029Y16344*
X07045Y1635*
X0706Y16359*
X07072Y16372*
X07083Y16389*
X07091Y16409*
X07098Y16433*
X07103Y16461*
X07105Y16493*
X07106Y16528*
X07306*
X07307Y16493*
G37*
G36*
X06586Y15668D02*
X06584Y15687D01*
X06578Y15704*
X06568Y15719*
X06555Y15732*
X06538Y15743*
X06517Y15752*
X06492Y15759*
X06464Y15764*
X06432Y15767*
X06395Y15768*
Y15968*
X06432Y15969*
X06464Y15972*
X06492Y15977*
X06517Y15984*
X06538Y15993*
X06555Y16004*
X06568Y16017*
X06578Y16032*
X06584Y16049*
X06586Y16068*
Y15668*
G37*
G36*
X03078Y16049D02*
X03084Y16032D01*
X03093Y16017*
X03107Y16004*
X03124Y15993*
X03145Y15984*
X03169Y15977*
X03198Y15972*
X0323Y15969*
X03266Y15968*
Y15768*
X0323Y15767*
X03198Y15764*
X03169Y15759*
X03145Y15752*
X03124Y15743*
X03107Y15732*
X03093Y15719*
X03084Y15704*
X03078Y15687*
X03076Y15668*
Y16068*
X03078Y16049*
G37*
G36*
X08031Y15903D02*
X08035Y15875D01*
X08041Y15847*
X08051Y15819*
X08063Y15792*
X08078Y15764*
X08095Y15737*
X08115Y1571*
X08138Y15683*
X08164Y15656*
X08022Y15514*
X07995Y1554*
X07968Y15563*
X07941Y15583*
X07914Y156*
X07886Y15615*
X07859Y15627*
X07831Y15636*
X07803Y15643*
X07775Y15647*
X07747Y15648*
X08029Y15931*
X08031Y15903*
G37*
G36*
X10564Y14441D02*
X10616Y14395D01*
X10641Y14376*
X10664Y1436*
X10686Y14347*
X10707Y14337*
X10726Y14329*
X10745Y14325*
X10762Y14323*
Y14123*
X10745Y14122*
X10726Y14118*
X10707Y1411*
X10686Y141*
X10664Y14087*
X10641Y14071*
X10616Y14052*
X10564Y14006*
X10536Y13978*
Y14468*
X10564Y14441*
G37*
%LNpcb1-4*%
%LPC*%
G36*
X04116Y61888D02*
X04063D01*
Y61063*
X04888*
Y61116*
X04828Y61343*
X04711Y61545*
X04545Y61711*
X04343Y61828*
X04116Y61888*
G37*
G36*
X03936D02*
X03882D01*
X03656Y61828*
X03454Y61711*
X03288Y61545*
X03171Y61343*
X0311Y61116*
Y61063*
X03936*
Y61888*
G37*
G36*
X04888Y60936D02*
X04063D01*
Y6011*
X04116*
X04343Y60171*
X04545Y60288*
X04711Y60454*
X04828Y60656*
X04888Y60882*
Y60936*
G37*
G36*
X03936D02*
X0311D01*
Y60882*
X03171Y60656*
X03288Y60454*
X03454Y60288*
X03656Y60171*
X03882Y6011*
X03936*
Y60936*
G37*
G36*
X22133Y3835D02*
Y36385D01*
X23704*
Y36721*
X23673Y3704*
X23579Y37347*
X23428Y3763*
X23225Y37877*
X22977Y38081*
X22695Y38232*
X22388Y38325*
X22133Y3835*
G37*
G36*
X22006D02*
X2175Y38325D01*
X21443Y38232*
X21161Y38081*
X20913Y37877*
X2071Y3763*
X20559Y37347*
X20466Y3704*
X20434Y36721*
Y36385*
X22006*
Y3835*
G37*
G36*
X23704Y36258D02*
X22133D01*
Y34293*
X22388Y34318*
X22695Y34411*
X22977Y34562*
X23225Y34765*
X23428Y35013*
X23579Y35296*
X23673Y35603*
X23704Y35921*
Y36258*
G37*
%LNpcb1-5*%
%LPD*%
G36*
X18797Y09845D02*
X18792Y09779D01*
X18792Y0975*
X18794Y09723*
X18798Y09699*
X18804Y09677*
X18812Y09658*
X18822Y09641*
X18834Y09628*
X18669Y09509*
X18657Y09519*
X18642Y09529*
X18623Y09539*
X18602Y09548*
X18577Y09557*
X18518Y09572*
X18484Y0958*
X18407Y09593*
X18802Y09882*
X18797Y09845*
G37*
G36*
X25509Y08909D02*
X25478Y08934D01*
X25395Y08995*
X2537Y0901*
X25347Y09022*
X25326Y09031*
X25306Y09038*
X25288Y09042*
X25271Y09043*
X25252Y09243*
X2527Y09245*
X25288Y0925*
X25308Y09257*
X25328Y09268*
X25349Y09282*
X2537Y09299*
X25392Y09318*
X25416Y09341*
X25464Y09397*
X25509Y08909*
G37*
G36*
X15109Y077D02*
X1508Y077D01*
X15026Y07696*
X15002Y07692*
X1498Y07687*
X1496Y07681*
X14941Y07674*
X14925Y07665*
X14911Y07656*
X14898Y07645*
X14757Y07786*
X14768Y07799*
X14777Y07813*
X14786Y07829*
X14793Y07848*
X14799Y07868*
X14804Y0789*
X14808Y07914*
X14811Y0794*
X14812Y07997*
X15109Y077*
G37*
G36*
X12437Y07419D02*
X12443Y07402D01*
X12452Y07387*
X12466Y07374*
X12483Y07363*
X12504Y07354*
X12528Y07347*
X12557Y07342*
X12589Y07339*
X12625Y07338*
Y07138*
X12589Y07137*
X12557Y07134*
X12528Y07129*
X12504Y07122*
X12483Y07113*
X12466Y07102*
X12452Y07089*
X12443Y07074*
X12437Y07057*
X12435Y07038*
Y07438*
X12437Y07419*
G37*
G36*
X16098Y0999D02*
X16102Y0992D01*
X16106Y0989*
X16111Y09862*
X16117Y09837*
X16124Y09815*
X16133Y09796*
X16143Y0978*
X16154Y09767*
X16013Y09626*
X16Y09637*
X15984Y09647*
X15965Y09655*
X15943Y09663*
X15918Y09669*
X1589Y09674*
X1586Y09678*
X1579Y09682*
X15751Y09682*
X16097Y10029*
X16098Y0999*
G37*
G36*
X21883Y04361D02*
X21862Y04382D01*
X21821Y04418*
X21801Y04432*
X21782Y04444*
X21764Y04454*
X21746Y04462*
X21728Y04467*
X21711Y0447*
X21695Y04471*
Y04671*
X21711Y04673*
X21728Y04676*
X21746Y04681*
X21764Y04689*
X21782Y04699*
X21801Y04711*
X21821Y04725*
X21841Y04742*
X21883Y04781*
Y04361*
G37*
G36*
X10377Y1039D02*
X1033Y10338D01*
X10312Y10313*
X10296Y1029*
X10283Y10268*
X10273Y10247*
X10265Y10228*
X10261Y10209*
X10259Y10192*
X10059*
X10058Y10209*
X10054Y10228*
X10046Y10247*
X10036Y10268*
X10023Y1029*
X10007Y10313*
X09988Y10338*
X09942Y1039*
X09914Y10417*
X10404*
X10377Y1039*
G37*
G36*
X12625Y0479D02*
X12641Y0478D01*
X1266Y04773*
X12682Y04767*
X12705Y04764*
X12731Y04763*
X1276Y04765*
X1279Y04768*
X12823Y04774*
X12859Y04782*
X12603Y04364*
X12593Y04405*
X12554Y04535*
X12544Y04559*
X12525Y04598*
X12515Y04613*
X12505Y04624*
X12611Y04802*
X12625Y0479*
G37*
G54D10*
X11988Y07239D02*
X14351D01*
X15113Y08001*
X1016Y07112D02*
X12828Y04443D01*
X12944*
X18335Y07064D02*
X20828Y04572D01*
X18335Y07064D02*
Y07445D01*
X15748Y10033D02*
X18335Y07445D01*
X18457Y09863D02*
Y09939D01*
Y09863D02*
X19177Y09144D01*
X10287Y14224D02*
X21971D01*
X25625Y17878*
Y19273*
X1016Y07112D02*
Y10668D01*
X20828Y04572D02*
X22098D01*
X19177Y09144D02*
X25781D01*
X0605Y17684D02*
X07206Y16528D01*
Y16096D02*
X07307Y15995D01*
X07206Y16096D02*
Y16528D01*
X07307Y15995D02*
X07682D01*
X08692Y14986*
X10668*
X17399Y21717*
Y24003*
X0718Y15868D02*
X07307Y15995D01*
X02354Y15868D02*
X0718D01*
G54D25*
X20899Y25999D03*
X14099D03*
X15899D03*
X19099D03*
G54D27*
X02354Y14068D03*
X07307Y14195D03*
Y15995D03*
X02354Y15868D03*
G54D66*
X11176Y23114D02*
X12983D01*
X15869Y25999D02*
X15899D01*
X12983Y23114D02*
X15869Y25999D01*
X15899D02*
X19099D01*
X09652Y16235D02*
Y2159D01*
X11176Y23114*
G54D67*
X20823Y01524D03*
X14224D03*
G54D68*
X03999Y45759D03*
X13149D03*
Y60999D03*
X03999D03*
G54D69*
X12669Y36322D03*
X17369D03*
X22069D03*
G54D70*
X24998Y57494D03*
Y52494D03*
G54D71*
X32258Y62611D03*
X02032Y01905D03*
G54D72*
X15113Y08001D03*
X19431Y08255D03*
X30853Y58599D03*
Y55099D03*
Y51599D03*
Y48099D03*
Y44599D03*
Y41099D03*
Y30599D03*
Y23599D03*
Y20099D03*
Y13099D03*
Y09599D03*
Y02599D03*
X27353Y62099D03*
Y58599D03*
Y48099D03*
Y44599D03*
Y41099D03*
Y27099D03*
Y13099D03*
Y06099D03*
Y02599D03*
X23853Y62099D03*
Y44599D03*
Y30599D03*
Y27099D03*
Y02599D03*
X20353Y62099D03*
Y58599D03*
Y30599D03*
Y16599D03*
Y06099D03*
X16853Y62099D03*
Y58599D03*
Y55099D03*
Y16599D03*
X13353Y58599D03*
Y55099D03*
Y41099D03*
Y30599D03*
Y16599D03*
Y06099D03*
Y02599D03*
X09853Y62099D03*
Y58599D03*
Y48099D03*
Y44599D03*
Y41099D03*
Y37599D03*
Y30599D03*
Y27099D03*
Y02599D03*
X06353Y62099D03*
Y51599D03*
Y48099D03*
Y44599D03*
Y41099D03*
Y13099D03*
Y06099D03*
Y02599D03*
X02853Y55099D03*
Y51599D03*
Y48099D03*
Y44599D03*
Y41099D03*
Y27099D03*
Y23599D03*
Y20099D03*
Y13099D03*
X12944Y04443D03*
X15748Y10033D03*
X18457Y09939D03*
X25625Y19273D03*
X10287Y14224D03*
X22098Y04572D03*
X1016Y10668D03*
X31623Y1651D03*
X31877Y04953D03*
X17399Y25019D03*
X25735Y09175D03*
X0605Y17684D03*
X17399Y24003D03*
X09652Y16235D03*
G54D73*
X01524Y28448D03*
G54D74*
X08838Y07239D03*
X11988D03*
G54D75*
X23114Y25019D02*
X31623Y1651D01*
X33147Y14986*
X17399Y25019D02*
X23114D01*
X31877Y04953D02*
X33147Y06223D01*
Y14986*
X14099Y25999D02*
Y27952D01*
X22069Y35921*
Y36322*
G54D76*
X00762Y11811D02*
X04958Y07613D01*
X00762Y27686D02*
X01524Y28448D01*
X00762Y11811D02*
Y27686D01*
X04958Y07613D02*
X08488D01*
X08838Y07239D02*
Y07263D01*
X08488Y07613D02*
X08838Y07263D01*
M02*