%FSTAX23Y23*%
%MOMM*%
%SFA1B1*%

%IPPOS*%
%AMD24*
4,1,8,0.299720,0.398780,-0.299720,0.398780,-0.398780,0.299720,-0.398780,-0.299720,-0.299720,-0.398780,0.299720,-0.398780,0.398780,-0.299720,0.398780,0.299720,0.299720,0.398780,0.0*
1,1,0.200000,0.299720,0.299720*
1,1,0.200000,-0.299720,0.299720*
1,1,0.200000,-0.299720,-0.299720*
1,1,0.200000,0.299720,-0.299720*
%
%AMD34*
4,1,8,-1.521460,-0.655320,1.521460,-0.655320,1.620520,-0.556260,1.620520,0.556260,1.521460,0.655320,-1.521460,0.655320,-1.620520,0.556260,-1.620520,-0.556260,-1.521460,-0.655320,0.0*
1,1,0.196600,-1.521460,-0.556260*
1,1,0.196600,1.521460,-0.556260*
1,1,0.196600,1.521460,0.556260*
1,1,0.196600,-1.521460,0.556260*
%
%AMD35*
4,1,8,-0.396240,-0.655320,0.396240,-0.655320,0.464820,-0.584200,0.464820,0.584200,0.396240,0.655320,-0.396240,0.655320,-0.464820,0.584200,-0.464820,-0.584200,-0.396240,-0.655320,0.0*
1,1,0.139600,-0.396240,-0.584200*
1,1,0.139600,0.396240,-0.584200*
1,1,0.139600,0.396240,0.584200*
1,1,0.139600,-0.396240,0.584200*
%
%ADD10C,0.200000*%
%ADD16R,1.899996X1.899996*%
%ADD17R,1.599997X1.399997*%
%ADD18R,0.399999X1.349997*%
%ADD19R,0.919998X0.979998*%
%ADD20R,0.801998X0.971998*%
%ADD21R,0.899998X1.399997*%
%ADD22R,1.099998X1.399997*%
%ADD23R,1.229998X1.359997*%
G04~CAMADD=24~8~0.0~0.0~315.0~315.0~39.4~0.0~15~0.0~0.0~0.0~0.0~0~0.0~0.0~0.0~0.0~0~0.0~0.0~0.0~0.0~315.0~315.0*
%ADD24D24*%
%ADD25R,0.979998X0.919998*%
%ADD26R,0.699999X1.449997*%
%ADD27R,1.449997X0.699999*%
%ADD28R,0.299999X1.474997*%
%ADD29R,1.474997X0.299999*%
%ADD30R,1.799996X1.199998*%
%ADD31R,1.549997X0.599999*%
%ADD33R,0.949998X0.899998*%
G04~CAMADD=34~8~0.0~0.0~1275.6~515.7~38.7~0.0~15~0.0~0.0~0.0~0.0~0~0.0~0.0~0.0~0.0~0~0.0~0.0~0.0~180.0~1276.0~516.0*
%ADD34D34*%
G04~CAMADD=35~8~0.0~0.0~366.1~515.7~27.5~0.0~15~0.0~0.0~0.0~0.0~0~0.0~0.0~0.0~0.0~0~0.0~0.0~0.0~180.0~366.0~516.0*
%ADD35D35*%
%ADD36R,1.359997X1.229998*%
%ADD62C,0.299999*%
%ADD63R,2.099996X1.399997*%
%ADD64C,0.349999*%
%ADD65C,0.999998*%
%ADD66C,0.399999*%
%ADD67O,0.899998X1.799996*%
%ADD68C,1.523997*%
%ADD69O,2.999994X3.799992*%
%ADD70C,3.799992*%
%ADD71C,2.999994*%
%ADD72C,0.699999*%
%ADD73C,0.999998*%
%LNpcb1-1*%
%LPD*%
G36*
X34774Y64788D02*
X34788Y64774D01*
X34796Y64755*
Y64745*
Y00254*
Y00243*
X34788Y00225*
X34774Y00211*
X34755Y00203*
X0247*
X02458Y0033*
X02506Y0034*
X02802Y00463*
X03069Y00641*
X03295Y00867*
X03473Y01134*
X03596Y0143*
X03658Y01744*
Y02065*
X03596Y02379*
X03473Y02675*
X03295Y02942*
X03069Y03168*
X02802Y03346*
X02506Y03469*
X02192Y03531*
X01871*
X01557Y03469*
X01261Y03346*
X00994Y03168*
X00768Y02942*
X0059Y02675*
X00467Y02379*
X00404Y02065*
Y01744*
X00467Y0143*
X0059Y01134*
X00768Y00867*
X00994Y00641*
X01261Y00463*
X01557Y0034*
X01605Y0033*
X01593Y00203*
X00243*
X00225Y00211*
X00211Y00225*
X00203Y00243*
Y00254*
Y64745*
Y64755*
X00211Y64774*
X00225Y64788*
X00243Y64796*
X34755*
X34774Y64788*
G37*
%LNpcb1-2*%
%LPC*%
G36*
X13266Y61888D02*
X13213D01*
Y61063*
X14038*
Y61116*
X13978Y61343*
X13861Y61545*
X13695Y61711*
X13493Y61828*
X13266Y61888*
G37*
G36*
X13086D02*
X13032D01*
X12806Y61828*
X12604Y61711*
X12438Y61545*
X12321Y61343*
X1226Y61116*
Y61063*
X13086*
Y61888*
G37*
G36*
X32418Y64237D02*
X32097D01*
X31783Y64175*
X31487Y64052*
X3122Y63874*
X30994Y63648*
X30816Y63381*
X30693Y63085*
X3063Y62771*
Y6245*
X30693Y62136*
X30816Y6184*
X30994Y61573*
X3122Y61347*
X31487Y61169*
X31783Y61046*
X32097Y60983*
X32418*
X32732Y61046*
X33028Y61169*
X33295Y61347*
X33521Y61573*
X33699Y6184*
X33822Y62136*
X33884Y6245*
Y62771*
X33822Y63085*
X33699Y63381*
X33521Y63648*
X33295Y63874*
X33028Y64052*
X32732Y64175*
X32418Y64237*
G37*
G36*
X14038Y60936D02*
X13213D01*
Y6011*
X13266*
X13493Y60171*
X13695Y60288*
X13861Y60454*
X13978Y60656*
X14038Y60882*
Y60936*
G37*
G36*
X13086D02*
X1226D01*
Y60882*
X12321Y60656*
X12438Y60454*
X12604Y60288*
X12806Y60171*
X13032Y6011*
X13086*
Y60936*
G37*
G36*
X04116Y61888D02*
X03882D01*
X03656Y61828*
X03454Y61711*
X03288Y61545*
X03171Y61343*
X0311Y61116*
Y60882*
X03171Y60656*
X03288Y60454*
X03454Y60288*
X03656Y60171*
X03882Y6011*
X04116*
X04343Y60171*
X04545Y60288*
X04711Y60454*
X04828Y60656*
X04888Y60882*
Y61116*
X04828Y61343*
X04711Y61545*
X04545Y61711*
X04343Y61828*
X04116Y61888*
G37*
G36*
X25198Y59521D02*
X25062D01*
Y57558*
X27025*
Y57694*
X26948Y58086*
X26795Y58455*
X26573Y58787*
X26291Y59069*
X25959Y59291*
X2559Y59444*
X25198Y59521*
G37*
G36*
X24935D02*
X24799D01*
X24407Y59444*
X24038Y59291*
X23706Y59069*
X23424Y58787*
X23202Y58455*
X23049Y58086*
X22971Y57694*
Y57558*
X24935*
Y59521*
G37*
G36*
X27025Y57431D02*
X25062D01*
Y55467*
X25198*
X2559Y55545*
X25959Y55698*
X26291Y5592*
X26573Y56202*
X26795Y56534*
X26948Y56903*
X27025Y57295*
Y57431*
G37*
G36*
X24935D02*
X22971D01*
Y57295*
X23049Y56903*
X23202Y56534*
X23424Y56202*
X23706Y5592*
X24038Y55698*
X24407Y55545*
X24799Y55467*
X24935*
Y57431*
G37*
G36*
X13266Y46648D02*
X13213D01*
Y45823*
X14038*
Y45876*
X13978Y46103*
X13861Y46305*
X13695Y46471*
X13493Y46588*
X13266Y46648*
G37*
G36*
X13086D02*
X13032D01*
X12806Y46588*
X12604Y46471*
X12438Y46305*
X12321Y46103*
X1226Y45876*
Y45823*
X13086*
Y46648*
G37*
G36*
X14038Y45696D02*
X13213D01*
Y4487*
X13266*
X13493Y44931*
X13695Y45048*
X13861Y45214*
X13978Y45416*
X14038Y45642*
Y45696*
G37*
G36*
X13086D02*
X1226D01*
Y45642*
X12321Y45416*
X12438Y45214*
X12604Y45048*
X12806Y44931*
X13032Y4487*
X13086*
Y45696*
G37*
G36*
X04116Y46648D02*
X03882D01*
X03656Y46588*
X03454Y46471*
X03288Y46305*
X03171Y46103*
X0311Y45876*
Y45642*
X03171Y45416*
X03288Y45214*
X03344Y45157*
Y45156*
X03347Y4515*
X0336Y44954*
Y43553*
X03334*
Y42399*
X04538*
Y42845*
X0459Y42922*
X04639Y43166*
Y44998*
X04642Y45069*
X04648Y45127*
X0465Y45143*
X04652Y4515*
X04655Y45156*
Y45157*
X04711Y45214*
X04828Y45416*
X04888Y45642*
Y45876*
X04828Y46103*
X04711Y46305*
X04545Y46471*
X04343Y46588*
X04116Y46648*
G37*
G36*
X06477Y38618D02*
X06271D01*
X0626Y38613*
X06247Y38616*
X06212Y38594*
X06174Y38578*
X06059Y38532*
X05983Y38547*
X05192*
X05115Y38532*
X0505Y38489*
X05042Y38477*
X04959Y38526*
X04928Y38531*
X04899Y38545*
X04809Y38552*
X04803Y38551*
X04798Y38553*
X04754Y38535*
X04709Y3852*
X04706Y38515*
X04701Y38513*
X04369Y38181*
X0435Y38133*
X04329Y38086*
X04307Y36705*
X04307Y36704*
X04307Y36703*
Y32154*
X04066*
X03978Y32137*
X03903Y32087*
X03854Y32012*
X03836Y31924*
Y30811*
X03854Y30723*
X03903Y30648*
X03978Y30599*
X04066Y30581*
X04566*
X04574Y30577*
X04653Y30569*
X04708Y30551*
X04755Y30521*
X04799Y30476*
X04841Y30411*
X04878Y30326*
X04908Y30218*
X04931Y30088*
X04945Y29936*
X04948Y29828*
Y2888*
X04635Y28567*
X04365*
Y28231*
X04362Y28225*
X04313Y2798*
X04358Y27753*
X04358Y27753*
X04357Y27731*
X04355Y27716*
X04351Y277*
X04346Y27684*
X04338Y27667*
X04328Y27649*
X04316Y2763*
X04302Y2761*
X04284Y27589*
X04261Y27565*
X04256Y27551*
X01487Y24782*
X01437Y24707*
X01419Y24618*
Y05842*
X01437Y05753*
X01487Y05678*
X02376Y04789*
X02451Y04739*
X0254Y04721*
X03683*
X03771Y04739*
X03846Y04789*
X05063Y06006*
X05113Y06081*
X05131Y06169*
Y06335*
X05137Y06349*
X05138Y0638*
X0514Y06403*
X05142Y06412*
X05516*
Y07586*
X04282*
Y06412*
X04657*
X04659Y06403*
X04661Y0638*
X04662Y06349*
X04668Y06335*
Y06265*
X03587Y05184*
X02635*
X01882Y05937*
Y24523*
X04583Y27224*
X04597Y27229*
X04621Y27252*
X04642Y2727*
X04662Y27284*
X04681Y27296*
X04699Y27306*
X04716Y27314*
X04732Y27319*
X04748Y27323*
X04763Y27325*
X04785Y27326*
X048Y27333*
X05539*
Y2758*
X05666Y27632*
X0876Y24538*
X08968Y244*
X09212Y24351*
X14653*
X14669Y24349*
X1473Y24337*
X14841Y24308*
X14885Y24294*
X14925Y24277*
X14942Y24269*
Y23602*
X13472*
Y21873*
X15686*
Y22737*
X15813*
Y21873*
X21526*
Y22306*
X21533Y22319*
X21535Y22341*
X21537Y22345*
X21538Y22347*
X21543Y22352*
X21556Y22361*
X21579Y22371*
X21613Y2238*
X21658Y22388*
X21712Y22393*
X2178Y22395*
X21789Y22399*
X22479*
X22606Y22424*
X22714Y22497*
X23222Y23005*
X23294Y23113*
X2332Y23241*
Y24384*
X23307Y24448*
X23416Y24541*
X23645Y24446*
X24003Y24399*
Y24406*
X28067*
X28071Y24407*
X2827Y24367*
X28443Y24252*
X28558Y24079*
X28598Y2388*
X28597Y23876*
Y17526*
X28595*
X28569Y17323*
X28491Y17134*
X28366Y16972*
X28204Y16847*
X28015Y16769*
X27813Y16742*
Y16741*
X254*
Y16744*
X25295Y16765*
X25206Y16824*
X25154Y16902*
X25126Y17018*
X25134Y17141*
X25148Y17205*
X26102*
Y1875*
X26109Y18761*
X26106Y1877*
X2611Y18779*
X26108Y18785*
X26102Y18909*
X26053Y19016*
X26044Y19036*
X26102Y19179*
Y19368*
X2603Y19544*
X25995Y19578*
X26048Y19705*
X26059*
Y21409*
X25105*
Y20197*
X25076Y20177*
X25034Y20153*
X24991Y20133*
X24946Y20117*
X24899Y20104*
X2485Y20095*
X248Y20089*
X24742Y20087*
X24733Y20083*
X24102*
Y20186*
X22373*
Y19972*
Y18972*
Y17972*
Y16972*
Y15972*
Y14972*
Y13972*
Y12972*
X24102*
Y13472*
Y14472*
Y15472*
Y16412*
X24223Y16487*
X24229Y16486*
X24274Y16419*
X25109Y15584*
X25184Y15534*
X25273Y15516*
X27606*
X27703Y15445*
Y15389*
Y14922*
X28321*
X28937*
Y15389*
Y15445*
X29035Y15516*
X29106*
X29394Y15227*
X29399Y15214*
X29422Y1519*
X2944Y15169*
X29454Y15149*
X29466Y1513*
X29476Y15112*
X29484Y15095*
X29489Y15079*
X29493Y15063*
X29495Y15048*
X29496Y15026*
X29503Y15011*
Y14271*
X30737*
Y14641*
X30747Y14642*
X3077Y14644*
X30801Y14645*
X30815Y14651*
X30885*
X30973Y14669*
X31048Y14719*
X33437Y17108*
X33487Y17183*
X33505Y17272*
Y21082*
X33487Y2117*
X33437Y21245*
X32334Y22348*
X32259Y22398*
X3217Y22416*
X31884*
X3187Y22422*
X31839Y22423*
X31816Y22425*
X31806Y22427*
Y22926*
X30192*
Y21442*
X31806*
Y21942*
X31816Y21944*
X31839Y21946*
X3187Y21947*
X31884Y21953*
X32075*
X33042Y20986*
Y17367*
X32217Y16542*
X32099Y16591*
Y16604*
X32027Y1678*
X31893Y16914*
X31811Y16947*
X31806Y17072*
Y18556*
X30192*
Y17072*
X30782*
Y17017*
X30807Y16889*
X3088Y16781*
X31076Y16584*
X3108Y16575*
X31095Y16559*
X31119Y16531*
X31126Y16522*
X31131Y16514*
X31134Y16508*
X31135Y16506*
X31135Y16504*
X31136Y16502*
X31137Y16499*
X31141Y16493*
X31145Y16484*
Y16415*
X31218Y16239*
X31352Y16105*
X31528Y16032*
X31541*
X3159Y15915*
X30864Y1519*
X30737Y15242*
Y15445*
X29938*
X29923Y15453*
X29901Y15454*
X29886Y15456*
X2987Y1546*
X29854Y15465*
X29837Y15473*
X29819Y15482*
X298Y15495*
X2978Y15509*
X29759Y15527*
X29735Y1555*
X29721Y15555*
X29365Y15911*
X2929Y15961*
X29201Y15979*
X25368*
X25163Y16184*
X25189Y16253*
X25228Y16299*
X254Y16276*
Y16278*
X27813*
Y16272*
X28137Y16314*
X28439Y1644*
X28699Y16639*
X28898Y16899*
X29023Y17201*
X29066Y17526*
X2906*
Y23876*
X29064*
X2903Y24134*
X2893Y24374*
X28772Y24581*
X28565Y24739*
X28325Y24839*
X28067Y24873*
Y24869*
X24003*
Y24869*
X23767Y249*
X23547Y24991*
X23358Y25136*
X23213Y25325*
X23122Y25545*
X23091Y25781*
X23091*
Y27199*
X23092*
X23122Y2743*
X23211Y27644*
X23248Y27692*
X23363Y27733*
X24597*
Y28907*
X23363*
Y28465*
X23356Y28452*
X23356Y2844*
X23355Y28437*
X23353Y28433*
X2335Y28427*
X23344Y28418*
X23334Y28407*
X2332Y28394*
X23303Y2838*
X23281Y28365*
X23253Y28347*
X23243Y28333*
X2324Y2833*
X23225Y28323*
X23222Y28317*
X23019Y28161*
X22803Y27879*
X22667Y27551*
X22621Y27199*
X22628*
Y25781*
X22621*
X22668Y25423*
X22717Y25304*
X22623Y25232*
X2261Y25229*
X22507Y25298*
X22402Y25319*
X22383Y25328*
X22313Y2533*
X22293Y25331*
Y25467*
X21871*
X21823Y25501*
X21797Y25507*
X21686Y25581*
X21441Y2563*
X09477*
X06227Y2888*
Y29828*
X0623Y29936*
X06244Y30088*
X06267Y30218*
X06297Y30326*
X06334Y30411*
X06376Y30476*
X0642Y30521*
X06467Y30551*
X06522Y30569*
X06601Y30577*
X06609Y30581*
X07109*
X07197Y30599*
X07272Y30648*
X07321Y30723*
X07339Y30811*
Y31924*
X07321Y32012*
X07272Y32087*
X07197Y32137*
X07123Y32151*
X07122Y32154*
Y3436*
X07549Y34787*
X09288*
Y34731*
X10522*
Y35905*
X09388*
X09386Y35911*
X09288Y35951*
X07549*
X06614Y36886*
Y38481*
X06574Y38578*
X06477Y38618*
G37*
G36*
X08273Y38547D02*
X07941D01*
Y37825*
X08473*
Y38347*
X08458Y38423*
X08415Y38489*
X08349Y38532*
X08273Y38547*
G37*
G36*
X07814D02*
X07482D01*
X07405Y38532*
X0734Y38489*
X07297Y38423*
X07282Y38347*
Y37825*
X07814*
Y38547*
G37*
G36*
X08473Y37698D02*
X07941D01*
Y36976*
X08273*
X08349Y36991*
X08415Y37034*
X08458Y37099*
X08473Y37176*
Y37698*
G37*
G36*
X07814D02*
X07282D01*
Y37176*
X07297Y37099*
X0734Y37034*
X07405Y36991*
X07482Y36976*
X07814*
Y37698*
G37*
G36*
X34026Y35526D02*
X33063D01*
Y34863*
X34026*
Y35526*
G37*
G36*
X32936D02*
X31972D01*
Y34863*
X32936*
Y35526*
G37*
G36*
X12669Y38356D02*
X1235Y38325D01*
X12043Y38232*
X11761Y38081*
X11513Y37877*
X1131Y3763*
X11159Y37347*
X11066Y3704*
X11034Y36721*
Y35921*
X11066Y35603*
X11159Y35296*
X1131Y35013*
X11513Y34765*
X11761Y34562*
X12043Y34411*
X1235Y34318*
X12669Y34287*
X12988Y34318*
X13295Y34411*
X13577Y34562*
X13825Y34765*
X14028Y35013*
X14179Y35296*
X14273Y35603*
X14304Y35921*
Y36721*
X14273Y3704*
X14179Y37347*
X14028Y3763*
X13825Y37877*
X13577Y38081*
X13295Y38232*
X12988Y38325*
X12669Y38356*
G37*
G36*
X34026Y34736D02*
X33063D01*
Y34072*
X34026*
Y34736*
G37*
G36*
X32936D02*
X31972D01*
Y34072*
X32936*
Y34736*
G37*
G36*
X10522Y34355D02*
X09969D01*
Y33832*
X10522*
Y34355*
G37*
G36*
X09842D02*
X09288D01*
Y33832*
X09842*
Y34355*
G37*
G36*
X01632Y34228D02*
X01079D01*
Y33705*
X01632*
Y34228*
G37*
G36*
X00952D02*
X00398D01*
Y33705*
X00952*
Y34228*
G37*
G36*
X10522Y33705D02*
X09969D01*
Y33181*
X10522*
Y33705*
G37*
G36*
X09842D02*
X09288D01*
Y33181*
X09842*
Y33705*
G37*
G36*
X01632Y33578D02*
X01079D01*
Y33054*
X01632*
Y33578*
G37*
G36*
X00952D02*
X00398D01*
Y33054*
X00952*
Y33578*
G37*
G36*
X28575Y54874D02*
X18796D01*
X18698Y54834*
X15269Y51405*
X15229Y51308*
Y3302*
X15269Y32922*
X15367Y32882*
X19431*
X19528Y32922*
X19568Y3302*
Y40837*
X28672Y4994*
X28712Y50038*
Y54737*
X28672Y54834*
X28575Y54874*
G37*
G36*
X34026Y31926D02*
X33063D01*
Y31263*
X34026*
Y31926*
G37*
G36*
X32936D02*
X31972D01*
Y31263*
X32936*
Y31926*
G37*
G36*
X34026Y31136D02*
X33063D01*
Y30472*
X34026*
Y31136*
G37*
G36*
X32936D02*
X31972D01*
Y30472*
X32936*
Y31136*
G37*
G36*
X03937Y40466D02*
X03911D01*
X03667Y40417*
X03646Y40403*
X03334*
Y40154*
X02845Y39664*
X02707Y39457*
X02658Y39212*
Y37708*
X02214Y37264*
X0131Y3636*
X01122Y3618*
X00908Y35997*
X00817Y35928*
X00734Y35873*
X00662Y35831*
X00602Y35804*
X00557Y3579*
X00513Y35785*
X00501Y35778*
X00398*
Y35664*
X00391Y35644*
X00394Y35638*
X00392Y35632*
X00398Y35621*
Y35303*
X00376Y35191*
X00398Y35079*
Y34604*
X00765*
X00771Y34601*
X01016Y34552*
X01045*
X0129Y34601*
X01296Y34604*
X01487*
X01507Y34597*
X01513Y346*
X01521Y34598*
X01632Y34604*
Y34647*
X01691Y34755*
X01879Y35*
X01887Y35002*
X02016Y34971*
X02023Y34934*
X02027Y34839*
Y29855*
X01071Y28899*
X01036Y28847*
X00992Y28803*
X00968Y28744*
X00933Y28692*
X00921Y2863*
X00896Y28572*
Y28509*
X00884Y28448*
X00896Y28386*
Y28323*
X00921Y28265*
X00933Y28203*
X00968Y2815*
X00992Y28092*
X01036Y28048*
X01071Y27995*
X01124Y2796*
X01168Y27916*
X01226Y27892*
X01279Y27857*
X01341Y27845*
X01399Y2782*
X01462*
X01524Y27808*
X01585Y2782*
X01648*
X01706Y27845*
X01768Y27857*
X0182Y27892*
X01879Y27916*
X01923Y2796*
X01975Y27995*
X03118Y29138*
X03257Y29346*
X03306Y29591*
Y35862*
X03309Y35953*
X03322Y36095*
X03345Y36229*
X03376Y36357*
X03416Y36478*
X03465Y36593*
X03523Y36701*
X03589Y36804*
X03664Y36901*
X03721Y36963*
X03744Y36986*
X03769Y36991*
X03835Y37034*
X03878Y37099*
X03893Y37176*
Y37225*
X03937Y37443*
Y38948*
X04239Y39249*
X04538*
Y39639*
X04576Y39826*
X04538Y40014*
Y40403*
X04201*
X04181Y40417*
X03937Y40466*
G37*
G36*
X2031Y38501D02*
X20285Y3849D01*
X20257*
X2014Y38442*
X20121Y38422*
X20095Y38412*
X20085Y38386*
X20066Y38367*
Y3834*
X20055Y38315*
Y33782*
X20095Y33684*
X20857Y32922*
X20955Y32882*
X25516*
Y30542*
X2552Y30532*
X25517Y30522*
X2554Y30485*
X25556Y30445*
X25566Y30441*
X25571Y30432*
X25613Y30401*
X25635Y30395*
X25652Y3038*
X25684Y30383*
X25715Y30375*
X25784Y30332*
X25822Y30289*
Y29972*
X26051*
X26103Y29924*
X2614Y29855*
X26151Y2983*
Y29803*
X2617Y29783*
X26181Y29758*
X28594Y27345*
X28619Y27334*
X28639Y27315*
X28666*
X28691Y27304*
X28808Y27322*
X29864*
Y28419*
X29942Y28451*
X29982Y28548*
Y3055*
X3129Y31858*
X31301Y31883*
X3132Y31903*
Y3193*
X31331Y31955*
X31376Y32072*
Y32926*
X29882*
X29823Y33*
X29821Y33011*
X29871Y33072*
X31376*
Y33668*
X31398Y33791*
X31517Y3381*
X31554Y33832*
X31593Y33849*
X31597Y33859*
X31607Y33865*
X31617Y33907*
X31633Y33946*
Y37084*
X31593Y37181*
X30323Y38451*
X30226Y38491*
X22731*
X227Y38478*
X22666Y38475*
X22653Y38459*
X22634Y38451*
X22621Y38419*
X226Y38393*
X22589Y38358*
X22477Y38298*
X22388Y38325*
X22069Y38356*
X2175Y38325*
X21661Y38298*
X21549Y38358*
X21538Y38393*
X21517Y38419*
X21504Y38451*
X21485Y38459*
X21472Y38475*
X21438Y38478*
X21407Y38491*
X20333*
X2031Y38501*
G37*
G36*
X22293Y27267D02*
X21505D01*
Y26854*
X22293*
Y27267*
G37*
G36*
X19793D02*
X19005D01*
Y26854*
X19793*
Y27267*
G37*
G36*
X16793D02*
X16005D01*
Y26854*
X16793*
Y27267*
G37*
G36*
X14293D02*
X13505D01*
Y26854*
X14293*
Y27267*
G37*
G36*
X21378D02*
X20589D01*
Y26854*
X21378*
Y27267*
G37*
G36*
X18878D02*
X18089D01*
Y26854*
X18878*
Y27267*
G37*
G36*
X15878D02*
X15089D01*
Y26854*
X15878*
Y27267*
G37*
G36*
X13378D02*
X12589D01*
Y26854*
X13378*
Y27267*
G37*
G36*
X22293Y26727D02*
X21505D01*
Y26313*
X22293*
Y26727*
G37*
G36*
X21378D02*
X20589D01*
Y26313*
X21378*
Y26727*
G37*
G36*
X19793D02*
X19005D01*
Y26313*
X19793*
Y26727*
G37*
G36*
X18878D02*
X18089D01*
Y26313*
X18878*
Y26727*
G37*
G36*
X16793D02*
X16005D01*
Y26313*
X16793*
Y26727*
G37*
G36*
X15878D02*
X15089D01*
Y26313*
X15878*
Y26727*
G37*
G36*
X14293D02*
X13505D01*
Y26313*
X14293*
Y26727*
G37*
G36*
X13378D02*
X12589D01*
Y26313*
X13378*
Y26727*
G37*
G36*
X30814Y26778D02*
X3035D01*
Y26229*
X30814*
Y26778*
G37*
G36*
X30223D02*
X29758D01*
Y26229*
X30223*
Y26778*
G37*
G36*
X24608Y26621D02*
X24055D01*
Y26098*
X24608*
Y26621*
G37*
G36*
X23928D02*
X23374D01*
Y26098*
X23928*
Y26621*
G37*
G36*
X30814Y26102D02*
X3035D01*
Y25552*
X30814*
Y26102*
G37*
G36*
X30223D02*
X29758D01*
Y25552*
X30223*
Y26102*
G37*
G36*
X26397Y28907D02*
X25163D01*
Y27733*
X25454*
X25467Y27727*
X25472Y27726*
X25477Y27715*
X25483Y27693*
X25488Y27663*
X25492Y27624*
X25493Y27575*
X25498Y27564*
Y26791*
X25493Y2678*
X25492Y26731*
X25488Y26692*
X25483Y26662*
X25477Y2664*
X25472Y26629*
X25467Y26628*
X25454Y26621*
X25174*
Y25447*
X26408*
Y25708*
X26415Y25721*
X26416Y25726*
X26427Y25731*
X26449Y25737*
X26479Y25742*
X26518Y25746*
X26567Y25747*
X26578Y25752*
X27689*
X277Y25747*
X27749Y25746*
X27788Y25742*
X27818Y25737*
X2784Y25731*
X27851Y25726*
X27852Y25721*
X27858Y25708*
Y25552*
X28914*
Y26778*
X27858*
Y26361*
X27852Y26348*
X27851Y26343*
X2784Y26338*
X27818Y26332*
X27788Y26327*
X27749Y26323*
X277Y26322*
X27689Y26317*
X26578*
X26567Y26322*
X26518Y26323*
X26479Y26327*
X26449Y26332*
X26427Y26338*
X26416Y26343*
X26415Y26348*
X26408Y26361*
Y26621*
X26107*
X26094Y26628*
X26089Y26629*
X26084Y2664*
X26078Y26662*
X26073Y26692*
X26069Y26731*
X26068Y2678*
X26063Y26791*
Y27564*
X26068Y27575*
X26069Y27624*
X26073Y27663*
X26078Y27693*
X26084Y27715*
X26089Y27726*
X26094Y27727*
X26107Y27733*
X26397*
Y28907*
G37*
G36*
X24608Y25971D02*
X24055D01*
Y25447*
X24608*
Y25971*
G37*
G36*
X23928D02*
X23374D01*
Y25447*
X23928*
Y25971*
G37*
G36*
X27859Y23909D02*
X27446D01*
Y23121*
X27859*
Y23909*
G37*
G36*
X27319D02*
X26905D01*
Y23121*
X27319*
Y23909*
G37*
G36*
X08093Y23793D02*
X0768D01*
Y23005*
X08093*
Y23793*
G37*
G36*
X07553D02*
X07139D01*
Y23005*
X07553*
Y23793*
G37*
G36*
X27859Y22994D02*
X27446D01*
Y22205*
X27859*
Y22994*
G37*
G36*
X27319D02*
X26905D01*
Y22205*
X27319*
Y22994*
G37*
G36*
X08093Y22878D02*
X0768D01*
Y22089*
X08093*
Y22878*
G37*
G36*
X07553D02*
X07139D01*
Y22089*
X07553*
Y22878*
G37*
G36*
X27859Y21409D02*
X27446D01*
Y20621*
X27859*
Y21409*
G37*
G36*
X27319D02*
X26905D01*
Y20621*
X27319*
Y21409*
G37*
G36*
X08093Y21293D02*
X0768D01*
Y20505*
X08093*
Y21293*
G37*
G36*
X07553D02*
X07139D01*
Y20505*
X07553*
Y21293*
G37*
G36*
X12626Y21026D02*
X10897D01*
Y20313*
X12626*
Y21026*
G37*
G36*
X26059Y23909D02*
X25105D01*
Y23368*
X25099Y23355*
X25097Y2334*
X25097Y2334*
X25096Y23338*
X25092Y23334*
X25083Y23326*
X25067Y23315*
X25044Y23304*
X25013Y23292*
X24974Y23281*
X24925Y2327*
X24908Y23257*
X24551Y23149*
X24102Y22909*
X23709Y22586*
X23386Y22193*
X23146Y21743*
X22998Y21256*
X22993Y21206*
X22989Y212*
X22982Y21151*
X22973Y21112*
X22964Y21081*
X22955Y21058*
X22946Y21043*
X2294Y21035*
X22939Y21034*
X22927Y21033*
X22924Y21032*
X21199*
X21091Y2101*
X21Y20949*
X20082Y20032*
X12626*
Y20186*
X10897*
Y20132*
X10807Y20043*
X10194Y2005*
X1016Y20085*
X10068Y20179*
X10063Y20191*
X10028Y20229*
X09999Y20263*
X09975Y20297*
X09954Y2033*
X09937Y20362*
X09924Y20393*
X09914Y20422*
X09907Y20452*
X09902Y2048*
X09901Y20515*
X09893Y2053*
Y21293*
X09743*
X0973Y213*
X09725Y21301*
X0972Y21312*
X09714Y21334*
X09709Y21364*
X09705Y21403*
X09704Y21452*
X09699Y21463*
Y2192*
X09704Y21931*
X09705Y2198*
X09709Y22019*
X09714Y22049*
X0972Y22071*
X09725Y22082*
X0973Y22083*
X09743Y22089*
X09893*
Y23793*
X08939*
Y22089*
X0909*
X09103Y22083*
X09108Y22082*
X09113Y22071*
X09119Y22049*
X09124Y22019*
X09128Y2198*
X09129Y21931*
X09134Y2192*
Y21463*
X09129Y21452*
X09128Y21403*
X09124Y21364*
X09119Y21334*
X09113Y21312*
X09108Y21301*
X09103Y213*
X0909Y21293*
X08939*
Y20166*
X08932Y2015*
X0893Y20114*
X08926Y20085*
X08919Y20056*
X08909Y20025*
X08895Y19994*
X08878Y19963*
X08857Y1993*
X08833Y19896*
X08804Y19862*
X08768Y19825*
X08764Y19813*
X07547Y18596*
X07486Y18505*
X07464Y18396*
Y14986*
X07486Y14878*
X07547Y14787*
X08764Y1357*
X08768Y13558*
X08804Y13521*
X08833Y13486*
X08857Y13453*
X08878Y1342*
X08895Y13388*
X08909Y13358*
X08919Y13327*
X08926Y13298*
X0893Y13268*
X08932Y13233*
X08939Y13217*
Y12089*
X09893*
Y12615*
X099Y12628*
X09901Y12633*
X09912Y12638*
X09934Y12644*
X09964Y12649*
X10003Y12653*
X10052Y12654*
X10063Y12659*
X10866*
X10974Y12681*
X11066Y12742*
X11121Y12798*
X11133Y12802*
X1117Y12838*
X11238Y12897*
X11266Y12917*
X11292Y12935*
X11315Y12948*
X11335Y12957*
X1135Y12962*
X1136Y12964*
X11377Y12965*
X1138Y12967*
X12598*
X13094Y12472*
X13186Y1241*
X13294Y12389*
X20866*
X20967Y12287*
Y12126*
X20813*
Y11261*
Y10397*
X21222*
X21249Y10392*
X2139*
X21395Y1039*
X21597Y10387*
X21775Y10209*
Y10063*
X2177Y10052*
X21769Y10003*
X21765Y09964*
X2176Y09934*
X21754Y09912*
X21749Y09901*
X21744Y099*
X21731Y09893*
X21205*
Y08939*
X22909*
Y09893*
X22384*
X22371Y099*
X22366Y09901*
X22361Y09912*
X22355Y09934*
X2235Y09964*
X22346Y10003*
X22345Y10052*
X2234Y10063*
Y10326*
X22318Y10435*
X22257Y10526*
X2191Y10874*
X21818Y10935*
X2171Y10956*
X21696*
X21685Y10961*
X21636Y10963*
X21597Y10966*
X21567Y10972*
X21545Y10978*
X21534Y10983*
X21533Y10988*
X21532Y1099*
Y12404*
X2151Y12513*
X21449Y12604*
X21182Y12871*
X21091Y12932*
X20983Y12954*
X13411*
X12915Y13449*
X12824Y1351*
X12715Y13532*
X12626Y13613*
Y13686*
X11761*
Y13813*
X12626*
Y14472*
Y15472*
Y16472*
Y17472*
Y18472*
Y19467*
X20199*
X20308Y19489*
X20399Y1955*
X21316Y20467*
X22373*
Y20313*
X24102*
Y21026*
X23667*
X23623Y21064*
X23566Y21152*
X23567Y21165*
X23565Y21172*
X23568Y21178*
X23567Y21181*
X23672Y21526*
X23859Y21876*
X24111Y22184*
X24419Y22436*
X24769Y22623*
X24978Y22687*
X25056Y22649*
X25074Y22635*
X25099Y22599*
X25105Y2258*
Y22205*
X26059*
Y23909*
G37*
G36*
X27859Y20494D02*
X27446D01*
Y19705*
X27859*
Y20494*
G37*
G36*
X27319D02*
X26905D01*
Y19705*
X27319*
Y20494*
G37*
G36*
X08093Y20378D02*
X0768D01*
Y19589*
X08093*
Y20378*
G37*
G36*
X07553D02*
X07139D01*
Y19589*
X07553*
Y20378*
G37*
G36*
X27902Y18909D02*
X27489D01*
Y18121*
X27902*
Y18909*
G37*
G36*
X27362D02*
X26948D01*
Y18121*
X27362*
Y18909*
G37*
G36*
X04806Y18556D02*
X04063D01*
Y17878*
X04806*
Y18556*
G37*
G36*
X03936D02*
X03192D01*
Y17878*
X03936*
Y18556*
G37*
G36*
X05539Y26767D02*
X04365D01*
Y2611*
X04358Y26094*
X04356Y26058*
X04352Y26029*
X04345Y26*
X04335Y25969*
X04321Y25938*
X04304Y25907*
X04283Y25874*
X04259Y2584*
X0423Y25806*
X04194Y25769*
X0419Y25757*
X038Y25367*
X03739Y25276*
X03717Y25167*
Y23096*
X03712Y23085*
X03711Y23036*
X03707Y22997*
X03702Y22967*
X03696Y22945*
X03691Y22934*
X03686Y22933*
X03673Y22926*
X03192*
Y21442*
X04806*
Y22926*
X04326*
X04313Y22933*
X04308Y22934*
X04303Y22945*
X04297Y22967*
X04292Y22997*
X04288Y23036*
X04287Y23085*
X04282Y23096*
Y2505*
X04589Y25358*
X04601Y25362*
X04638Y25398*
X04672Y25427*
X04706Y25451*
X04739Y25472*
X0477Y25489*
X04801Y25503*
X04832Y25513*
X04861Y2552*
X0489Y25524*
X04926Y25526*
X04942Y25533*
X05105*
X0512Y25526*
X05142Y25525*
X05157Y25523*
X05173Y25519*
X05189Y25514*
X05206Y25506*
X05224Y25496*
X05243Y25484*
X05263Y2547*
X05284Y25452*
X05308Y25429*
X05321Y25424*
X05864Y24882*
Y18197*
X05859Y18189*
X0586Y18185*
X05858Y18182*
X05858Y18176*
X05857Y18174*
X05853Y18167*
X05847Y18157*
X05836Y18144*
X05823Y1813*
X05781Y18093*
X05755Y18072*
X05744Y18052*
X05646Y17955*
X05573Y17779*
Y1759*
X05646Y17414*
X0578Y1728*
X05955Y17207*
X06145*
X0632Y1728*
X06455Y17414*
X06527Y1759*
Y17779*
X06455Y17955*
X06439Y17971*
X06436Y17983*
X06391Y18042*
X0636Y18091*
X06349Y18109*
X06341Y18125*
X06336Y18137*
X06333Y18145*
X06333Y18147*
X06332Y18154*
X06327Y18165*
Y24977*
X06309Y25066*
X06259Y25141*
X05649Y25751*
X05644Y25765*
X05621Y25789*
X05603Y2581*
X05589Y2583*
X05576Y25849*
X05567Y25867*
X05559Y25884*
X05554Y259*
X0555Y25916*
X05548Y25931*
X05547Y25953*
X05539Y25968*
Y26767*
G37*
G36*
X27902Y17994D02*
X27489D01*
Y17205*
X27902*
Y17994*
G37*
G36*
X27362D02*
X26948D01*
Y17205*
X27362*
Y17994*
G37*
G36*
X04806Y17751D02*
X04063D01*
Y17072*
X04806*
Y17751*
G37*
G36*
X03936D02*
X03192D01*
Y17072*
X03936*
Y17751*
G37*
G36*
X28937Y14795D02*
X28384D01*
Y14271*
X28937*
Y14795*
G37*
G36*
X28257D02*
X27703D01*
Y14271*
X28257*
Y14795*
G37*
G36*
X08093Y13793D02*
X0768D01*
Y13005*
X08093*
Y13793*
G37*
G36*
X07553D02*
X07139D01*
Y13005*
X07553*
Y13793*
G37*
G36*
X08093Y12878D02*
X0768D01*
Y12089*
X08093*
Y12878*
G37*
G36*
X07553D02*
X07139D01*
Y12089*
X07553*
Y12878*
G37*
G36*
X20686Y12126D02*
X13472D01*
Y10397*
X13348Y10391*
X10763*
X10675Y10479*
X10671Y10491*
X10667Y10496*
X10667Y10496*
X10664Y10502*
X10661Y10512*
X10657Y10526*
X10653Y10546*
X10651Y10568*
X10647Y10629*
X10647Y10665*
X10636Y1069*
Y10762*
X10564Y10938*
X1043Y11072*
X10254Y11144*
X10065*
X09889Y11072*
X09755Y10938*
X09682Y10762*
Y10573*
X09755Y10397*
X09889Y10263*
X10065Y1019*
X10137*
X10162Y1018*
X10163*
X10198Y1018*
X10259Y10176*
X10281Y10173*
X10301Y1017*
X10315Y10166*
X10325Y10163*
X1033Y1016*
X10331Y1016*
X10336Y10156*
X10348Y10152*
X10504Y09996*
X10579Y09946*
X10668Y09928*
X14856*
X14945Y09946*
X1502Y09996*
X15143Y1012*
X1527Y10067*
Y09938*
X15343Y09762*
X15368Y09737*
X15316Y0961*
X07934*
X07934Y09615*
X07926Y09629*
Y10806*
X06442*
Y10242*
X06433Y1024*
X0641Y10238*
X06379Y10237*
X06365Y10231*
X06129*
X06041Y10213*
X05966Y10163*
X03498Y07696*
X03485Y07691*
X03461Y07668*
X0344Y0765*
X0342Y07636*
X03401Y07623*
X03383Y07614*
X03366Y07606*
X0335Y07601*
X03334Y07597*
X03319Y07595*
X03297Y07594*
X03282Y07586*
X02482*
Y06412*
X03716*
Y07152*
X03724Y07167*
X03725Y07189*
X03727Y07204*
X03731Y0722*
X03736Y07236*
X03744Y07253*
X03753Y07271*
X03766Y0729*
X0378Y0731*
X03798Y07331*
X03821Y07355*
X03826Y07368*
X06225Y09768*
X06365*
X06379Y09762*
X0641Y09761*
X06433Y09759*
X06442Y09757*
Y09192*
X0749*
X07504Y09185*
X07524Y09184*
X07538Y09181*
X07555Y09175*
X07576Y09166*
X07601Y09153*
X07629Y09135*
X07658Y09114*
X07727Y09055*
X07765Y09019*
X07779Y09013*
X08871Y0792*
X08852Y07793*
X08639*
Y06089*
X09593*
Y07793*
X09359*
X09357Y07803*
X09355Y07826*
X09354Y07857*
X09348Y07871*
Y08002*
X0933Y08091*
X0928Y08166*
X08417Y0903*
X08465Y09147*
X15854*
X15972Y09126*
Y08243*
X15963Y08241*
X1594Y08239*
X15909Y08238*
X15895Y08232*
X15536*
X15532Y08234*
X15517Y08271*
X15383Y08405*
X15207Y08477*
X15018*
X14842Y08405*
X14708Y08271*
X14635Y08095*
Y07906*
X14708Y0773*
X14842Y07596*
X14879Y07581*
X14881Y07577*
Y0576*
X14899Y05672*
X14949Y05597*
X15787Y04758*
X15792Y04745*
X15815Y04721*
X15833Y047*
X15847Y0468*
X15859Y04661*
X15869Y04643*
X15877Y04626*
X15882Y0461*
X15886Y04594*
X15888Y04579*
X15889Y04557*
X1589Y04555*
X1589Y04552*
X15896Y04539*
Y03396*
X1876*
Y04198*
Y05*
X17767*
X17766Y05009*
X17764Y05032*
X17763Y05064*
X17757Y05077*
Y05245*
X17872Y05272*
X19026*
Y06141*
X19033Y06142*
X19055Y06144*
X19086Y06145*
X19113Y06157*
X19171Y06168*
X19246Y06219*
X20356Y07329*
X20406Y07404*
X20424Y07493*
Y1011*
X20406Y10198*
X20359Y1027*
X20369Y10326*
X20399Y10397*
X20686*
Y11261*
Y12126*
G37*
G36*
X32926Y10806D02*
X32248D01*
Y10063*
X32926*
Y10806*
G37*
G36*
X03556D02*
X02878D01*
Y10063*
X03556*
Y10806*
G37*
G36*
X02751D02*
X02072D01*
Y10063*
X02751*
Y10806*
G37*
G36*
X32121D02*
X31442D01*
Y10063*
X32121*
Y10806*
G37*
G36*
X32926Y09936D02*
X32248D01*
Y09192*
X32926*
Y09936*
G37*
G36*
X32121D02*
X31442D01*
Y09192*
X32121*
Y09936*
G37*
G36*
X28556Y10806D02*
X27072D01*
Y10242*
X27063Y1024*
X2704Y10238*
X27009Y10237*
X26995Y10231*
X26559*
X26471Y10213*
X26396Y10163*
X25924Y09691*
X25912Y09687*
X25907Y09683*
X25906Y09683*
X25901Y0968*
X25891Y09677*
X25876Y09673*
X25857Y09669*
X25835Y09667*
X25774Y09663*
X25738Y09663*
X25713Y09652*
X2564*
X25465Y0958*
X25331Y09446*
X25258Y0927*
Y09081*
X25331Y08905*
X25382Y08854*
X25393Y08829*
X25418Y08804*
X25458Y08758*
X25472Y0874*
X25483Y08724*
X25491Y08711*
X25496Y08701*
X25498Y08696*
Y08696*
X25498Y08689*
X25504Y08678*
Y07887*
X25498Y07873*
X25497Y07842*
X25495Y07819*
X25493Y07809*
X25405*
Y07697*
X25398Y07679*
X25401Y07673*
X25399Y07666*
X25405Y07653*
Y06105*
X26359*
Y06757*
X26369Y06759*
X26392Y06761*
X26423Y06762*
X26437Y06768*
X29405*
X29419Y06762*
X2945Y06761*
X29473Y06759*
X29482Y06757*
Y06412*
X30716*
Y07586*
X29482*
Y07242*
X29473Y0724*
X2945Y07238*
X29419Y07237*
X29405Y07231*
X26437*
X26423Y07237*
X26392Y07238*
X26369Y0724*
X26359Y07242*
Y07809*
X25977*
X25976Y07819*
X25974Y07842*
X25973Y07873*
X25967Y07887*
Y08678*
X25972Y08689*
X25973Y08696*
X25973Y08696*
X25975Y08701*
X2598Y08711*
X25987Y08724*
X25998Y0874*
X26012Y08758*
X26053Y08804*
X26078Y08829*
X26088Y08854*
X2614Y08905*
X26212Y09081*
Y09153*
X26223Y09178*
Y09179*
X26223Y09214*
X26226Y09275*
X26229Y09297*
X26233Y09317*
X26237Y09331*
X2624Y09341*
X26242Y09346*
X26243Y09347*
X26247Y09352*
X26251Y09364*
X26655Y09768*
X26995*
X27009Y09762*
X2704Y09761*
X27063Y09759*
X27072Y09757*
Y09192*
X28556*
Y10806*
G37*
G36*
X03556Y09936D02*
X02878D01*
Y09192*
X03556*
Y09936*
G37*
G36*
X02751D02*
X02072D01*
Y09192*
X02751*
Y09936*
G37*
G36*
X22909Y08093D02*
X22121D01*
Y0768*
X22909*
Y08093*
G37*
G36*
X21994D02*
X21205D01*
Y0768*
X21994*
Y08093*
G37*
G36*
X22909Y07553D02*
X22121D01*
Y07139*
X22909*
Y07553*
G37*
G36*
X21994D02*
X21205D01*
Y07139*
X21994*
Y07553*
G37*
G36*
X24559Y07809D02*
X24146D01*
Y07021*
X24559*
Y07809*
G37*
G36*
X24019D02*
X23605D01*
Y07021*
X24019*
Y07809*
G37*
G36*
X11393Y07793D02*
X1098D01*
Y07005*
X11393*
Y07793*
G37*
G36*
X10853D02*
X10439D01*
Y07005*
X10853*
Y07793*
G37*
G36*
X24559Y06894D02*
X24146D01*
Y06105*
X24559*
Y06894*
G37*
G36*
X24019D02*
X23605D01*
Y06105*
X24019*
Y06894*
G37*
G36*
X11393Y06878D02*
X1098D01*
Y06089*
X11393*
Y06878*
G37*
G36*
X10853D02*
X10439D01*
Y06089*
X10853*
Y06878*
G37*
G36*
X24216Y05086D02*
X22982D01*
Y04814*
X22973Y04812*
X2295Y0481*
X22919Y04809*
X22905Y04803*
X22521*
X22517Y04805*
X22502Y04842*
X22368Y04976*
X22192Y05048*
X22003*
X21827Y04976*
X21741Y04889*
X2165Y048*
X20787*
Y04037*
X2165*
Y04164*
X21777Y04217*
X21827Y04167*
X22003Y04094*
X22192*
X22368Y04167*
X22502Y04301*
X22517Y04338*
X22521Y0434*
X22905*
X22919Y04334*
X2295Y04333*
X22973Y04331*
X22982Y04329*
Y03912*
X24216*
Y05086*
G37*
G36*
X10216D02*
X08982D01*
Y04742*
X08973Y0474*
X0895Y04738*
X08919Y04737*
X08905Y04731*
X07455*
X07442Y04737*
X0741Y04738*
X07388Y0474*
X07381Y04741*
Y04799*
X07363Y04888*
X07313Y04963*
X07238Y05013*
X07149Y05031*
X06549*
X06461Y05013*
X0644Y04999*
X05559*
X05538Y05013*
X05449Y05031*
X05213*
Y04499*
Y03968*
X05449*
X05538Y03986*
X05559Y03999*
X0644*
X06461Y03986*
X06549Y03968*
X07149*
X07238Y03986*
X07313Y04036*
X07363Y04111*
X07381Y04199*
Y04258*
X07388Y04259*
X0741Y04261*
X07442Y04262*
X07455Y04268*
X08905*
X08919Y04262*
X0895Y04261*
X08973Y04259*
X08982Y04257*
Y03912*
X10216*
Y05086*
G37*
G36*
X30149Y05031D02*
X29913D01*
Y04563*
X30381*
Y04799*
X30363Y04888*
X30313Y04963*
X30238Y05013*
X30149Y05031*
G37*
G36*
X05086D02*
X04849D01*
X04761Y05013*
X04686Y04963*
X04636Y04888*
X04618Y04799*
Y04563*
X05086*
Y05031*
G37*
G36*
X32516Y07586D02*
X31282D01*
Y06412*
X3145*
X31463Y06406*
X31485Y06403*
X31489Y06402*
X31491Y06401*
X31496Y06396*
X31505Y06383*
X31515Y0636*
X31524Y06326*
X31532Y06281*
X31537Y06226*
X31539Y06159*
X31543Y0615*
Y05391*
X31539Y05382*
X31539Y0536*
X31536Y05324*
X31534Y05313*
X31532Y05303*
X3153Y05296*
X31529Y05294*
X31528Y05293*
X31528Y05291*
X31526Y05288*
X31524Y05281*
X31521Y05271*
X31472Y05223*
X31399Y05047*
Y04858*
X31472Y04682*
X31606Y04548*
X31782Y04475*
X31971*
X32147Y04548*
X32281Y04682*
X32353Y04858*
Y05047*
X32281Y05223*
X32232Y05271*
X32229Y05281*
X32227Y05288*
X32225Y05291*
X32225Y05293*
X32224Y05294*
X32223Y05296*
X32221Y05303*
X32219Y05313*
X32217Y05324*
X32214Y0536*
X32214Y05382*
X3221Y05391*
Y0615*
X32214Y06159*
X32216Y06226*
X32221Y06281*
X32229Y06326*
X32238Y0636*
X32248Y06383*
X32257Y06396*
X32262Y06401*
X32264Y06402*
X32268Y06403*
X3229Y06406*
X32303Y06412*
X32516*
Y07586*
G37*
G36*
X1915Y05D02*
X18887D01*
Y04262*
X1915*
Y05*
G37*
G36*
X2066Y048D02*
X19796D01*
Y04037*
X2066*
Y048*
G37*
G36*
X1525D02*
X14387D01*
Y04037*
X1525*
Y048*
G37*
G36*
X12016Y05086D02*
X10782D01*
Y03912*
X12016*
Y04201*
X12026Y04203*
X12049Y04205*
X1208Y04206*
X12094Y04212*
X12447*
X12457Y04206*
X12464Y04205*
X12465Y04205*
X1247Y04203*
X1248Y04199*
X12493Y04191*
X12509Y0418*
X12526Y04166*
X12572Y04125*
X12598Y041*
X12623Y0409*
X12674Y04039*
X12849Y03966*
X13039*
X13214Y04039*
X13269Y04094*
X13396Y04041*
Y04037*
X1426*
Y048*
X13396*
X13269Y04792*
X13214Y04847*
X13039Y0492*
X12849*
X12674Y04847*
X12623Y04796*
X12598Y04786*
X12572Y04761*
X12526Y0472*
X12509Y04706*
X12493Y04695*
X1248Y04687*
X1247Y04683*
X12465Y04681*
X12464Y04681*
X12457Y0468*
X12447Y04675*
X12094*
X1208Y0468*
X12049Y04681*
X12026Y04683*
X12016Y04685*
Y05086*
G37*
G36*
X30381Y04436D02*
X29913D01*
Y03968*
X30149*
X30238Y03986*
X30313Y04036*
X30363Y04111*
X30381Y04199*
Y04436*
G37*
G36*
X26016Y05086D02*
X24782D01*
Y03912*
X26016*
Y04257*
X26026Y04259*
X26049Y04261*
X2608Y04262*
X26094Y04268*
X27543*
X27557Y04262*
X27588Y04261*
X27611Y04259*
X27618Y04258*
Y04199*
X27636Y04111*
X27686Y04036*
X27761Y03986*
X27849Y03968*
X28449*
X28538Y03986*
X28559Y03999*
X2944*
X29461Y03986*
X29549Y03968*
X29786*
Y04499*
Y05031*
X29549*
X29461Y05013*
X2944Y04999*
X28559*
X28538Y05013*
X28449Y05031*
X27849*
X27761Y05013*
X27686Y04963*
X27636Y04888*
X27618Y04799*
Y04741*
X27611Y0474*
X27588Y04738*
X27557Y04737*
X27543Y04731*
X26094*
X2608Y04737*
X26049Y04738*
X26026Y0474*
X26016Y04742*
Y05086*
G37*
G36*
X05086Y04436D02*
X04618D01*
Y04199*
X04636Y04111*
X04686Y04036*
X04761Y03986*
X04849Y03968*
X05086*
Y04436*
G37*
G36*
X1915Y04135D02*
X18887D01*
Y03396*
X1915*
Y04135*
G37*
G36*
X2165Y0391D02*
X20787D01*
Y03146*
X2165*
Y0391*
G37*
G36*
X2066D02*
X19796D01*
Y03146*
X2066*
Y0391*
G37*
G36*
X1525D02*
X14387D01*
Y03146*
X1525*
Y0391*
G37*
G36*
X1426D02*
X13396D01*
Y03146*
X1426*
Y0391*
G37*
G36*
X20887Y02549D02*
Y01587D01*
X21412*
Y01973*
X21367Y02199*
X21239Y02389*
X21049Y02517*
X20887Y02549*
G37*
G36*
X14287D02*
Y01587D01*
X14812*
Y01973*
X14767Y02199*
X14639Y02389*
X14449Y02517*
X14287Y02549*
G37*
G36*
X198Y026D02*
X18787D01*
Y01587*
X198*
Y026*
G37*
G36*
X1866D02*
X17646D01*
Y01587*
X1866*
Y026*
G37*
G36*
X174D02*
X16387D01*
Y01587*
X174*
Y026*
G37*
G36*
X1626D02*
X15246D01*
Y01587*
X1626*
Y026*
G37*
G36*
X1416Y02549D02*
X13998Y02517D01*
X13807Y02389*
X1368Y02199*
X13635Y01973*
Y01587*
X1416*
Y02549*
G37*
G36*
X2076D02*
X20598Y02517D01*
X20407Y02389*
X2028Y02199*
X20235Y01973*
Y01587*
X2076*
Y02549*
G37*
G36*
X21412Y0146D02*
X20887D01*
Y00498*
X21049Y0053*
X21239Y00657*
X21367Y00848*
X21412Y01073*
Y0146*
G37*
G36*
X14812D02*
X14287D01*
Y00498*
X14449Y0053*
X14639Y00657*
X14767Y00848*
X14812Y01073*
Y0146*
G37*
G36*
X1416D02*
X13635D01*
Y01073*
X1368Y00848*
X13807Y00657*
X13998Y0053*
X1416Y00498*
Y0146*
G37*
G36*
X2076D02*
X20235D01*
Y01073*
X2028Y00848*
X20407Y00657*
X20598Y0053*
X2076Y00498*
Y0146*
G37*
G36*
X198D02*
X18787D01*
Y00446*
X198*
Y0146*
G37*
G36*
X1866D02*
X17646D01*
Y00446*
X1866*
Y0146*
G37*
G36*
X174D02*
X16387D01*
Y00446*
X174*
Y0146*
G37*
G36*
X1626D02*
X15246D01*
Y00446*
X1626*
Y0146*
G37*
%LNpcb1-3*%
%LPD*%
G36*
X04527Y45206D02*
X04521Y45191D01*
X04516Y45171*
X04511Y45146*
X04505Y45079*
X04501Y4499*
X04499Y4488*
X03499*
X03499Y44938*
X03483Y45171*
X03478Y45191*
X03472Y45206*
X03466Y45215*
X04533*
X04527Y45206*
G37*
G36*
X06477Y3683D02*
X07493Y35814D01*
X09288*
Y35382*
X09906*
Y35255*
X09288*
Y34925*
X07493*
X06985Y34417*
Y32154*
X05651*
Y31368*
X05524*
Y32154*
X04445*
Y36703*
X04467Y38084*
X04798Y38415*
X04889Y38408*
X04992Y38347*
Y37825*
X05588*
X06183*
Y38347*
X06182Y38354*
X06271Y38481*
X06477*
Y3683*
G37*
G36*
X06492Y30704D02*
X06407Y30676D01*
X06332Y30628*
X06267Y30562*
X06212Y30476*
X06167Y30372*
X06132Y30248*
X06107Y30106*
X06092Y29944*
X06087Y29764*
X05087*
X05082Y29944*
X05067Y30106*
X05042Y30248*
X05007Y30372*
X04962Y30476*
X04907Y30562*
X04842Y30628*
X04767Y30676*
X04682Y30704*
X04587Y30714*
X06587*
X06492Y30704*
G37*
G36*
X23493Y27977D02*
X23492Y27997D01*
X23487Y28012*
X23479Y28023*
X23468Y28031*
X23454Y28034*
X23437Y28034*
X23416Y28029*
X23393Y28021*
X23366Y28008*
X23336Y27991*
X23326Y2823*
X23358Y2825*
X23386Y2827*
X23411Y28291*
X23433Y28312*
X23452Y28332*
X23467Y28354*
X23478Y28375*
X23487Y28397*
X23492Y28419*
X23493Y28441*
Y27977*
G37*
G36*
X04778Y27464D02*
X0475Y27462D01*
X04722Y27458*
X04694Y27451*
X04666Y27442*
X04639Y2743*
X04611Y27415*
X04584Y27398*
X04557Y27378*
X0453Y27355*
X04503Y27329*
X04361Y27471*
X04387Y27498*
X0441Y27525*
X0443Y27552*
X04447Y27579*
X04462Y27607*
X04474Y27634*
X04483Y27662*
X0449Y2769*
X04494Y27718*
X04495Y27746*
X04778Y27464*
G37*
G36*
X21797Y25351D02*
X21853Y25317D01*
X21911Y25288*
X21971Y25262*
X22033Y2524*
X22098Y25222*
X22163Y25209*
Y25218*
X22166Y25213*
X22172Y25208*
X22175Y25207*
X22234Y25198*
X22306Y25192*
X22379Y2519*
Y2479*
X22318Y24789*
X22271Y24786*
X22234Y24783*
X22175Y24774*
X22172Y24773*
X22166Y24768*
X22163Y24763*
Y24772*
X22098Y24759*
X22033Y24741*
X21971Y24719*
X21911Y24693*
X21853Y24663*
X21797Y2463*
X21744Y24592*
Y25389*
X21797Y25351*
G37*
G36*
X22653Y24245D02*
Y23379D01*
X2234Y23066*
X21789*
X2178Y2307*
X21712Y23072*
X21658Y23077*
X21613Y23085*
X21579Y23094*
X21556Y23104*
X21543Y23113*
X21538Y23118*
X21537Y2312*
X21535Y23124*
X21533Y23146*
X21526Y23159*
Y23602*
X18402*
X18363Y2366*
X17857Y24166*
X17843Y24175*
X17823Y24224*
X1789Y24351*
X21441*
X21686Y244*
X21797Y24474*
X21823Y2448*
X21871Y24513*
X22293*
X22358Y2454*
X22653Y24245*
G37*
G36*
X15198Y24989D02*
X15225Y2486D01*
X15242Y24802*
X15279Y24701*
X153Y24658*
X15323Y24619*
X15347Y24585*
X15373Y24556*
X15126Y24309*
X15096Y24335*
X15063Y24359*
X15024Y24382*
X14981Y24403*
X14932Y24422*
X1488Y2444*
X1476Y24471*
X14693Y24484*
X14621Y24495*
X15186Y25061*
X15198Y24989*
G37*
G36*
X214Y23094D02*
X21412Y2306D01*
X21431Y2303*
X21457Y23004*
X21491Y22982*
X21533Y22964*
X21583Y2295*
X2164Y2294*
X21704Y22934*
X21776Y22932*
Y22532*
X21704Y2253*
X2164Y22524*
X21583Y22514*
X21533Y225*
X21491Y22482*
X21457Y2246*
X21431Y22434*
X21412Y22404*
X214Y2237*
X21396Y22332*
Y23132*
X214Y23094*
G37*
G36*
X31678Y22365D02*
X31684Y22348D01*
X31693Y22333*
X31707Y2232*
X31724Y22309*
X31745Y223*
X3177Y22293*
X31798Y22288*
X3183Y22285*
X31866Y22284*
Y22084*
X3183Y22083*
X31798Y2208*
X3177Y22075*
X31745Y22068*
X31724Y22059*
X31707Y22048*
X31693Y22035*
X31684Y2202*
X31678Y22003*
X31676Y21984*
Y22384*
X31678Y22365*
G37*
G36*
X25659Y19976D02*
X25618Y1993D01*
X25586Y19885*
X25564Y1984*
X2555Y19795*
X25545Y19749*
X2555Y19704*
X25564Y19659*
X25576Y19634*
X25581Y19632*
X25596Y19627*
X25609Y19624*
X25622Y19623*
X25597Y19598*
X25618Y19568*
X25659Y19523*
X25356Y19358*
X25275Y19277*
X25275Y1929*
X25272Y19303*
X25267Y19318*
X25261Y19332*
X25252Y19348*
X25242Y19364*
X25231Y19378*
X25199Y19405*
X25149Y19439*
X25097Y19468*
X25043Y19493*
X24988Y19513*
X2493Y19529*
X24871Y1954*
X2481Y19547*
X24747Y19549*
Y19949*
X2481Y19952*
X24871Y19958*
X2493Y1997*
X24988Y19986*
X25043Y20006*
X25097Y20031*
X25149Y2006*
X25199Y20094*
X25247Y20133*
X25293Y20176*
X25659Y19976*
G37*
G36*
X23973Y19342D02*
X23978Y19333D01*
X23985Y19325*
X23995Y19318*
X24008Y19312*
X24024Y19308*
X24043Y19304*
X24064Y19302*
X24089Y193*
X24116Y19299*
Y19099*
X23972Y19103*
Y19351*
X23973Y19342*
G37*
G36*
X25827Y19087D02*
X25833Y19023D01*
X2587*
X25862Y19014*
X25854Y19002*
X25847Y18989*
X25842Y18974*
X25839Y18965*
X25849Y18916*
X25862Y18874*
X25878Y1884*
X25897Y18814*
X25919Y18795*
X25944Y18783*
X25972Y18779*
X25279*
X25306Y18783*
X25331Y18795*
X25353Y18814*
X25373Y1884*
X25389Y18874*
X25402Y18916*
X25412Y18965*
X25409Y18974*
X25403Y18989*
X25397Y19002*
X25389Y19014*
X2538Y19023*
X2542*
X25424Y19087*
X25425Y19159*
X25825*
X25827Y19087*
G37*
G36*
X3148Y16935D02*
X31515Y16905D01*
X31532Y16893*
X31548Y16883*
X31564Y16874*
X31578Y16868*
X31593Y16863*
X31606Y1686*
X31619Y16859*
X31272Y16513*
X31272Y16526*
X31269Y16539*
X31264Y16554*
X31258Y16568*
X31249Y16584*
X31239Y166*
X31227Y16616*
X31197Y16652*
X31179Y1667*
X31462Y16953*
X3148Y16935*
G37*
G36*
X29668Y15424D02*
X29695Y15401D01*
X29722Y15381*
X29749Y15364*
X29777Y15349*
X29804Y15337*
X29832Y15327*
X2986Y15321*
X29888Y15317*
X29916Y15315*
X29634Y15033*
X29632Y15061*
X29628Y15089*
X29621Y15117*
X29612Y15145*
X296Y15172*
X29585Y152*
X29568Y15227*
X29548Y15254*
X29525Y15281*
X29499Y15308*
X29641Y1545*
X29668Y15424*
G37*
G36*
X30609Y15064D02*
X30615Y15047D01*
X30624Y15032*
X30638Y15019*
X30655Y15008*
X30676Y14999*
X307Y14992*
X30729Y14987*
X30761Y14984*
X30797Y14983*
Y14783*
X30761Y14782*
X30729Y14779*
X307Y14774*
X30676Y14767*
X30655Y14758*
X30638Y14747*
X30624Y14734*
X30615Y14719*
X30609Y14702*
X30607Y14683*
Y15083*
X30609Y15064*
G37*
G36*
X0508Y06541D02*
X05063Y06535D01*
X05048Y06525*
X05035Y06512*
X05024Y06495*
X05015Y06474*
X05008Y06449*
X05003Y06421*
X05Y06389*
X04999Y06353*
X04799*
X04798Y06389*
X04795Y06421*
X0479Y06449*
X04783Y06474*
X04774Y06495*
X04763Y06512*
X0475Y06525*
X04735Y06535*
X04718Y06541*
X04699Y06542*
X05099*
X0508Y06541*
G37*
%LNpcb1-4*%
%LPC*%
G36*
X06183Y37698D02*
X05651D01*
Y36976*
X05983*
X06059Y36991*
X06125Y37034*
X06168Y37099*
X06183Y37176*
Y37698*
G37*
G36*
X05524D02*
X04992D01*
Y37176*
X05007Y37099*
X0505Y37034*
X05115Y36991*
X05192Y36976*
X05524*
Y37698*
G37*
%LNpcb1-5*%
%LPD*%
G36*
X28575Y50038D02*
X19431Y40894D01*
Y3302*
X15367*
Y51308*
X18796Y54737*
X28575*
Y50038*
G37*
%LNpcb1-6*%
%LPC*%
G36*
X25198Y54521D02*
X25062D01*
Y52558*
X27025*
Y52694*
X26948Y53086*
X26795Y53455*
X26573Y53787*
X26291Y54069*
X25959Y54291*
X2559Y54444*
X25198Y54521*
G37*
G36*
X24935D02*
X24799D01*
X24407Y54444*
X24038Y54291*
X23706Y54069*
X23424Y53787*
X23202Y53455*
X23049Y53086*
X22971Y52694*
Y52558*
X24935*
Y54521*
G37*
G36*
X27025Y52431D02*
X25062D01*
Y50467*
X25198*
X2559Y50545*
X25959Y50698*
X26291Y5092*
X26573Y51202*
X26795Y51534*
X26948Y51903*
X27025Y52295*
Y52431*
G37*
G36*
X24935D02*
X22971D01*
Y52295*
X23049Y51903*
X23202Y51534*
X23424Y51202*
X23706Y5092*
X24038Y50698*
X24407Y50545*
X24799Y50467*
X24935*
Y52431*
G37*
G36*
X17433Y3835D02*
Y36385D01*
X19004*
Y36721*
X18973Y3704*
X18879Y37347*
X18728Y3763*
X18525Y37877*
X18277Y38081*
X17995Y38232*
X17688Y38325*
X17433Y3835*
G37*
G36*
X17306D02*
X1705Y38325D01*
X16743Y38232*
X16461Y38081*
X16213Y37877*
X1601Y3763*
X15859Y37347*
X15766Y3704*
X15734Y36721*
Y36385*
X17306*
Y3835*
G37*
G36*
Y36258D02*
X15734D01*
Y35921*
X15766Y35603*
X15859Y35296*
X1601Y35013*
X16213Y34765*
X16461Y34562*
X16743Y34411*
X1705Y34318*
X17306Y34293*
Y36258*
G37*
G36*
X19004D02*
X17433D01*
Y34293*
X17688Y34318*
X17995Y34411*
X18277Y34562*
X18525Y34765*
X18728Y35013*
X18879Y35296*
X18973Y35603*
X19004Y35921*
Y36258*
G37*
%LNpcb1-7*%
%LPD*%
G36*
X03559Y3699D02*
X03477Y36883D01*
X03404Y36771*
X03341Y36652*
X03288Y36526*
X03244Y36395*
X0321Y36257*
X03186Y36113*
X03171Y35962*
X03166Y35805*
X02166Y34805*
X02159Y3495*
X02138Y35065*
X02103Y3515*
X02053Y35204*
X0199Y35229*
X01912Y35223*
X0186Y35203*
X01502Y34735*
X00528Y35648*
X00586Y35655*
X00651Y35675*
X00725Y35709*
X00807Y35756*
X00897Y35816*
X00994Y3589*
X01215Y36078*
X01467Y3632*
X02012Y35775*
X02667Y36812*
X03651Y3709*
X03559Y3699*
G37*
G36*
X2032Y38354D02*
X21407D01*
X21443Y38232*
X21161Y38081*
X20913Y37877*
X2071Y3763*
X20559Y37347*
X20466Y3704*
X20434Y36721*
Y36385*
X22069*
X23704*
Y36721*
X23673Y3704*
X23579Y37347*
X23428Y3763*
X23225Y37877*
X22977Y38081*
X22695Y38232*
X22731Y38354*
X30226*
X31496Y37084*
Y33946*
X31376Y33926*
X30538*
Y33499*
X30474*
Y33436*
X29572*
Y33072*
X29467Y3302*
X20955*
X20193Y33782*
Y38315*
X2031Y38363*
X2032Y38354*
G37*
G36*
X29572Y32806D02*
Y32563D01*
X30474*
Y32499*
X30538*
Y32072*
X31145*
X31193Y31955*
X29845Y30607*
Y28548*
X294*
Y27935*
X29337*
Y27872*
X28808*
Y2749*
X28691Y27442*
X26278Y29855*
X26326Y29972*
X26936*
Y30736*
X25822*
Y30574*
X25695Y30511*
X25654Y30542*
Y32882*
X29467*
X29572Y32806*
G37*
%LNpcb1-8*%
%LPC*%
G36*
X28176Y36026D02*
X27063D01*
Y35263*
X28176*
Y36026*
G37*
G36*
X26936D02*
X25822D01*
Y35263*
X26936*
Y36026*
G37*
G36*
X28176Y35136D02*
X27063D01*
Y34372*
X28176*
Y35136*
G37*
G36*
X26936D02*
X25822D01*
Y34372*
X26936*
Y35136*
G37*
G36*
X23704Y36258D02*
X22133D01*
Y34293*
X22388Y34318*
X22695Y34411*
X22977Y34562*
X23225Y34765*
X23428Y35013*
X23579Y35296*
X23673Y35603*
X23704Y35921*
Y36258*
G37*
G36*
X22006D02*
X20434D01*
Y35921*
X20466Y35603*
X20559Y35296*
X2071Y35013*
X20913Y34765*
X21161Y34562*
X21443Y34411*
X2175Y34318*
X22006Y34293*
Y36258*
G37*
G36*
X30411Y33926D02*
X29572D01*
Y33563*
X30411*
Y33926*
G37*
G36*
Y32436D02*
X29572D01*
Y32072*
X30411*
Y32436*
G37*
G36*
X28176Y31626D02*
X27063D01*
Y30863*
X28176*
Y31626*
G37*
G36*
X26936D02*
X25822D01*
Y30863*
X26936*
Y31626*
G37*
G36*
X28176Y30736D02*
X27063D01*
Y29972*
X28176*
Y30736*
G37*
G36*
X29273Y28548D02*
X28808D01*
Y27999*
X29273*
Y28548*
G37*
%LNpcb1-9*%
%LPD*%
G36*
X26052Y27861D02*
X26026Y27852D01*
X26004Y27838*
X25984Y27818*
X25968Y27792*
X25954Y27761*
X25944Y27724*
X25936Y27681*
X25932Y27633*
X2593Y27579*
X2563*
X25629Y27633*
X25624Y27681*
X25617Y27724*
X25606Y27761*
X25593Y27792*
X25576Y27818*
X25557Y27838*
X25534Y27852*
X25509Y27861*
X2548Y27863*
X2608*
X26052Y27861*
G37*
G36*
X25932Y26722D02*
X25936Y26674D01*
X25944Y26631*
X25954Y26594*
X25968Y26563*
X25984Y26537*
X26004Y26517*
X26026Y26503*
X26052Y26494*
X2608Y26491*
X2548*
X25509Y26494*
X25534Y26503*
X25557Y26517*
X25576Y26537*
X25593Y26563*
X25606Y26594*
X25617Y26631*
X25624Y26674*
X25629Y26722*
X2563Y26776*
X2593*
X25932Y26722*
G37*
G36*
X27988Y25734D02*
X27986Y25763D01*
X27977Y25788*
X27963Y25811*
X27943Y2583*
X27917Y25847*
X27886Y2586*
X27849Y25871*
X27806Y25878*
X27758Y25883*
X27704Y25884*
Y26184*
X27758Y26186*
X27806Y2619*
X27849Y26198*
X27886Y26208*
X27917Y26222*
X27943Y26238*
X27963Y26258*
X27977Y2628*
X27986Y26306*
X27988Y26334*
Y25734*
G37*
G36*
X26281Y26306D02*
X2629Y2628D01*
X26304Y26258*
X26324Y26238*
X2635Y26222*
X26381Y26208*
X26418Y26198*
X26461Y2619*
X26509Y26186*
X26563Y26184*
Y25884*
X26509Y25883*
X26461Y25878*
X26418Y25871*
X26381Y2586*
X2635Y25847*
X26324Y2583*
X26304Y25811*
X2629Y25788*
X26281Y25763*
X26278Y25734*
Y26334*
X26281Y26306*
G37*
G36*
X25235Y22731D02*
X25233Y22759D01*
X25224Y22783*
X2521Y22802*
X25191Y22818*
X25166Y2283*
X25135Y22837*
X25099Y2284*
X25057Y2284*
X2501Y22835*
X24957Y22826*
X24955Y23136*
X25009Y23148*
X25056Y23162*
X25098Y23178*
X25135Y23195*
X25165Y23215*
X25191Y23237*
X2521Y2326*
X25224Y23286*
X25233Y23313*
X25235Y23342*
Y22731*
G37*
G36*
X09688Y22217D02*
X09662Y22208D01*
X0964Y22194*
X0962Y22174*
X09604Y22148*
X0959Y22117*
X0958Y2208*
X09572Y22037*
X09568Y21989*
X09566Y21934*
X09266*
X09265Y21989*
X0926Y22037*
X09253Y2208*
X09242Y22117*
X09229Y22148*
X09212Y22174*
X09193Y22194*
X0917Y22208*
X09145Y22217*
X09116Y2222*
X09716*
X09688Y22217*
G37*
G36*
X09568Y21394D02*
X09572Y21346D01*
X0958Y21303*
X0959Y21266*
X09604Y21235*
X0962Y21209*
X0964Y21189*
X09662Y21175*
X09688Y21166*
X09716Y21163*
X09116*
X09145Y21166*
X0917Y21175*
X09193Y21189*
X09212Y21209*
X09229Y21235*
X09242Y21266*
X09253Y21303*
X0926Y21346*
X09265Y21394*
X09266Y21448*
X09566*
X09568Y21394*
G37*
G36*
X23431Y21179D02*
X23425Y21125D01*
X23424Y21077*
X23426Y21035*
X23432Y20998*
X23441Y20967*
X23454Y20942*
X23471Y20922*
X23492Y20908*
X23516Y20899*
X23544Y20896*
X2294*
X22969Y20899*
X22995Y20908*
X2302Y20922*
X23041Y20942*
X23061Y20967*
X23079Y20998*
X23094Y21035*
X23106Y21077*
X23117Y21126*
X23125Y21179*
X23431Y21179*
G37*
G36*
X09765Y20467D02*
X09771Y20426D01*
X09781Y20384*
X09795Y20343*
X09813Y20302*
X09835Y20261*
X09861Y2022*
X09891Y20179*
X09925Y20138*
X09963Y20097*
X09852Y19781*
X09763Y1972*
Y20508*
X09765Y20467*
G37*
G36*
X09876Y19569D02*
X09921Y1954D01*
X09965Y19509*
X09966Y19509*
X09968Y19508*
X1002Y19498*
X10073Y19487*
X10897Y19477*
Y18472*
Y17472*
Y16576*
X10085*
X10076Y1658*
X10054Y1658*
X10017Y16583*
X10005Y16584*
X09995Y16586*
X09988Y16588*
X09986Y16589*
X09985Y1659*
X09983Y16591*
X0998Y16593*
X09972Y16594*
X09964Y16597*
X09922Y16639*
X09746Y16712*
X09557*
X09381Y16639*
X09247Y16505*
X09174Y1633*
Y1614*
X09247Y15965*
X09381Y1583*
X09557Y15758*
X09746*
X09922Y1583*
X09977Y15886*
X09988Y1589*
X09995Y15891*
X09998Y15893*
X09999Y15894*
X10001Y15895*
X10002Y15896*
X10008Y15897*
X10018Y159*
X10028Y15901*
X10065Y15904*
X10086Y15905*
X10087Y15905*
X10087Y15905*
X10096Y15909*
X10897*
Y15472*
Y14511*
X10772Y14472*
X10769Y14473*
X10762Y14474*
X10761Y14474*
X10755Y14476*
X10745Y14481*
X10731Y14489*
X10716Y14499*
X10646Y14555*
X1062Y14579*
X10597Y14587*
X10557Y14628*
X10381Y147*
X10192*
X10016Y14628*
X09882Y14494*
X09809Y14318*
Y14129*
X09882Y13953*
X0993Y13905*
X09862Y13793*
X09516*
X095Y13801*
X09464Y13802*
X09435Y13807*
X09406Y13814*
X09375Y13824*
X09344Y13837*
X09313Y13855*
X0928Y13875*
X09246Y139*
X09212Y13929*
X09175Y13965*
X09163Y13969*
X08029Y15103*
Y18279*
X09163Y19414*
X09175Y19418*
X09212Y19454*
X09246Y19483*
X0928Y19507*
X09313Y19528*
X09344Y19545*
X09375Y19559*
X09406Y19569*
X09435Y19576*
X09464Y1958*
X095Y19582*
X09516Y19589*
X09731*
X09739Y19584*
X09752Y19587*
X09763Y19582*
X09781Y19589*
X09856*
X09876Y19569*
G37*
G36*
X09494Y1972D02*
X09451Y19717D01*
X09409Y19711*
X09367Y19701*
X09326Y19687*
X09284Y19669*
X09243Y19647*
X09202Y19621*
X09161Y19591*
X09121Y19556*
X0908Y19518*
X08868Y1973*
X08906Y19771*
X08941Y19811*
X08971Y19852*
X08997Y19893*
X09019Y19934*
X09037Y19976*
X09051Y20017*
X09061Y20059*
X09067Y20101*
X0907Y20144*
X09494Y1972*
G37*
G36*
X09906Y16477D02*
X09917Y1647D01*
X09931Y16463*
X09946Y16458*
X09962Y16453*
X09981Y16449*
X10001Y16446*
X10048Y16443*
X10073Y16442*
X10084Y16042*
X10058Y16042*
X10012Y16038*
X09991Y16035*
X09973Y1603*
X09956Y16025*
X09941Y16019*
X09928Y16012*
X09916Y16004*
X09906Y15995*
X09896Y16485*
X09906Y16477*
G37*
G36*
X11027Y14103D02*
X11025Y14109D01*
X11019Y14115*
X1101Y1412*
X10997Y14124*
X1098Y14128*
X10959Y14131*
X10905Y14135*
X10837Y14136*
Y14336*
X10873Y14337*
X10934Y14342*
X10959Y14346*
X1098Y14351*
X10997Y14358*
X1101Y14366*
X11019Y14375*
X11025Y14385*
X11027Y14396*
Y14103*
G37*
G36*
X10556Y14451D02*
X10636Y14387D01*
X10659Y14372*
X10682Y14359*
X10703Y14349*
X10722Y14342*
X10741Y14338*
X10758Y14336*
X10765Y14136*
X10748Y14135*
X10729Y14131*
X1071Y14123*
X10689Y14113*
X10668Y14099*
X10645Y14083*
X10622Y14064*
X10572Y14016*
X10545Y13988*
X10527Y14478*
X10556Y14451*
G37*
G36*
X09121Y13827D02*
X09161Y13792D01*
X09202Y13762*
X09243Y13736*
X09284Y13714*
X09326Y13696*
X09367Y13682*
X09409Y13671*
X09451Y13665*
X09494Y13663*
X0907Y13239*
X09067Y13281*
X09061Y13324*
X09051Y13365*
X09037Y13407*
X09019Y13449*
X08997Y1349*
X08971Y13531*
X08941Y13572*
X08906Y13612*
X08868Y13653*
X0908Y13865*
X09121Y13827*
G37*
G36*
X11366Y13103D02*
X1134Y131D01*
X11312Y13094*
X11283Y13084*
X11253Y1307*
X1122Y13052*
X11187Y1303*
X11152Y13004*
X11077Y12939*
X11038Y12901*
X10825Y13113*
X11027Y13396*
X11366Y13103*
G37*
G36*
X09766Y13213D02*
X09775Y13187D01*
X09789Y13165*
X09809Y13145*
X09835Y13129*
X09866Y13115*
X09903Y13105*
X09946Y13097*
X09994Y13093*
X10048Y13091*
Y12791*
X09994Y1279*
X09946Y12785*
X09903Y12778*
X09866Y12767*
X09835Y12754*
X09809Y12737*
X09789Y12718*
X09775Y12695*
X09766Y1267*
X09763Y12641*
Y13241*
X09766Y13213*
G37*
G36*
X21399Y10945D02*
X21408Y1092D01*
X21422Y10897*
X21442Y10878*
X21468Y10861*
X21499Y10848*
X21536Y10837*
X21579Y1083*
X21627Y10825*
X21681Y10824*
Y10524*
X21396Y10527*
Y10974*
X21399Y10945*
G37*
G36*
X22209Y09994D02*
X22213Y09946D01*
X22221Y09903*
X22231Y09866*
X22245Y09835*
X22261Y09809*
X22281Y09789*
X22303Y09775*
X22329Y09766*
X22357Y09763*
X21757*
X21786Y09766*
X21811Y09775*
X21834Y09789*
X21853Y09809*
X2187Y09835*
X21883Y09866*
X21894Y09903*
X21901Y09946*
X21906Y09994*
X21907Y10048*
X22207*
X22209Y09994*
G37*
G36*
X05105Y26117D02*
X05111Y26109D01*
X05136Y26081*
X05314Y259*
X05173Y25759*
X04952Y2597*
X05102Y26121*
X05105Y26117*
G37*
G36*
X05411Y25918D02*
X05415Y2589D01*
X05421Y25862*
X05431Y25834*
X05443Y25807*
X05458Y25779*
X05475Y25752*
X05495Y25725*
X05518Y25698*
X05544Y25671*
X05402Y25529*
X05375Y25555*
X05348Y25578*
X05321Y25598*
X05294Y25615*
X05266Y2563*
X05239Y25642*
X05211Y25651*
X05183Y25658*
X05155Y25662*
X05127Y25663*
X05409Y25946*
X05411Y25918*
G37*
G36*
X0492Y25663D02*
X04877Y25661D01*
X04835Y25655*
X04793Y25645*
X04752Y25631*
X0471Y25613*
X04669Y25591*
X04628Y25565*
X04587Y25535*
X04547Y255*
X04506Y25462*
X04294Y25674*
X04332Y25715*
X04367Y25755*
X04397Y25796*
X04423Y25837*
X04445Y25878*
X04463Y2592*
X04477Y25961*
X04487Y26003*
X04493Y26045*
X04495Y26088*
X0492Y25663*
G37*
G36*
X04151Y23027D02*
X04155Y22979D01*
X04163Y22936*
X04173Y22899*
X04187Y22868*
X04203Y22842*
X04223Y22822*
X04245Y22808*
X04271Y22799*
X04299Y22796*
X03699*
X03728Y22799*
X03753Y22808*
X03776Y22822*
X03795Y22842*
X03812Y22868*
X03825Y22899*
X03836Y22936*
X03843Y22979*
X03848Y23027*
X03849Y23081*
X04149*
X04151Y23027*
G37*
G36*
X06195Y18143D02*
X06197Y18127D01*
X06201Y18109*
X06207Y18089*
X06216Y18067*
X06228Y18044*
X06242Y18019*
X06279Y17963*
X06325Y17901*
X0584Y17964*
X05869Y17987*
X05919Y18032*
X05939Y18053*
X05956Y18074*
X05971Y18095*
X05981Y18114*
X05989Y18134*
X05994Y18152*
X05995Y1817*
X06195Y18143*
G37*
G36*
X19378Y10525D02*
X19361Y10519D01*
X19347Y1051*
X19334Y10497*
X19324Y1048*
X19315Y10459*
X19308Y10434*
X19303Y10405*
X193Y10373*
X19299Y10337*
X19099*
X19103Y10527*
X19396*
X19378Y10525*
G37*
G36*
X18887D02*
X1888Y10519D01*
X18872Y1051*
X18866Y10497*
X18861Y1048*
X18857Y10459*
X18854Y10434*
X1885Y10373*
X18849Y10337*
X18649*
X18649Y10373*
X18642Y10459*
X18638Y1048*
X18633Y10497*
X18626Y1051*
X18619Y10519*
X18611Y10525*
X18603Y10527*
X18896*
X18887Y10525*
G37*
G36*
X1051Y10625D02*
X10514Y10555D01*
X10518Y10525*
X10523Y10497*
X10529Y10472*
X10536Y1045*
X10545Y10431*
X10555Y10415*
X10566Y10402*
X10425Y10261*
X10412Y10272*
X10396Y10282*
X10377Y1029*
X10355Y10298*
X1033Y10304*
X10302Y10309*
X10272Y10313*
X10202Y10317*
X10163Y10317*
X10509Y10664*
X1051Y10625*
G37*
G36*
X1882Y10161D02*
X1881Y1015D01*
X1878Y10117*
X18776Y1011*
X18773Y10105*
X18771Y10101*
X1877Y10097*
X1877Y10094*
X18612Y10253*
X18615Y10252*
X18618Y10253*
X18623Y10255*
X18628Y10258*
X18634Y10262*
X18641Y10268*
X18658Y10283*
X18679Y10302*
X1882Y10161*
G37*
G36*
X06573Y09799D02*
X06571Y09818D01*
X06565Y09835*
X06555Y0985*
X06542Y09863*
X06525Y09874*
X06504Y09883*
X06479Y0989*
X06451Y09895*
X06419Y09898*
X06383Y09899*
Y10099*
X06419Y101*
X06451Y10103*
X06479Y10108*
X06504Y10115*
X06525Y10124*
X06542Y10135*
X06555Y10148*
X06565Y10163*
X06571Y1018*
X06573Y10199*
Y09799*
G37*
G36*
X16025Y1025D02*
X16077Y10204D01*
X16102Y10185*
X16125Y10169*
X16147Y10156*
X16168Y10146*
X16187Y10138*
X16206Y10134*
X16223Y10132*
Y09932*
X16206Y09931*
X16187Y09927*
X16168Y09919*
X16147Y09909*
X16125Y09896*
X16102Y0988*
X16077Y09861*
X16025Y09815*
X15997Y09787*
Y10277*
X16025Y1025*
G37*
G36*
X07798Y09576D02*
X07805Y09546D01*
X07815Y09515*
X07829Y09482*
X07848Y09448*
X0787Y09413*
X07897Y09376*
X07928Y09338*
X08001Y09259*
X0786Y09117*
X0782Y09156*
X07743Y09222*
X07706Y09249*
X07671Y09271*
X07637Y0929*
X07604Y09304*
X07573Y09314*
X07542Y0932*
X07514Y09322*
X07796Y09605*
X07798Y09576*
G37*
G36*
X16103Y078D02*
X16101Y07819D01*
X16095Y07836*
X16085Y07851*
X16072Y07864*
X16055Y07875*
X16034Y07884*
X16009Y07891*
X15981Y07896*
X15949Y07899*
X15912Y079*
Y081*
X15949Y08101*
X15981Y08104*
X16009Y08109*
X16034Y08116*
X16055Y08125*
X16072Y08136*
X16085Y08149*
X16095Y08164*
X16101Y08181*
X16103Y082*
Y078*
G37*
G36*
X15348Y0819D02*
X15389Y08154D01*
X15409Y0814*
X15428Y08128*
X15446Y08118*
X15464Y0811*
X15482Y08105*
X15499Y08102*
X15515Y081*
Y079*
X15499Y07899*
X15482Y07896*
X15464Y07891*
X15446Y07883*
X15428Y07873*
X15409Y07861*
X15389Y07847*
X15369Y0783*
X15327Y0779*
Y0821*
X15348Y0819*
G37*
G36*
X09217Y07817D02*
X0922Y07785D01*
X09225Y07757*
X09232Y07732*
X09241Y07711*
X09252Y07694*
X09265Y0768*
X0928Y07671*
X09297Y07665*
X09316Y07663*
X08916*
X08935Y07665*
X08952Y07671*
X08967Y0768*
X0898Y07694*
X08991Y07711*
X09Y07732*
X09007Y07757*
X09012Y07785*
X09015Y07817*
X09017Y07853*
X09216*
X09217Y07817*
G37*
G36*
X15302Y07765D02*
X15266Y07724D01*
X15252Y07704*
X1524Y07685*
X1523Y07667*
X15222Y07649*
X15217Y07631*
X15214Y07614*
X15212Y07598*
X15012*
X15011Y07614*
X15008Y07631*
X15003Y07649*
X14995Y07667*
X14985Y07685*
X14973Y07704*
X14959Y07724*
X14942Y07744*
X14902Y07786*
X15322*
X15302Y07765*
G37*
G36*
X03721Y07449D02*
X03695Y07422D01*
X03672Y07395*
X03652Y07368*
X03635Y07341*
X0362Y07313*
X03608Y07286*
X03598Y07258*
X03592Y0723*
X03588Y07202*
X03586Y07174*
X03304Y07456*
X03332Y07458*
X0336Y07462*
X03388Y07468*
X03416Y07478*
X03443Y0749*
X03471Y07505*
X03498Y07522*
X03525Y07542*
X03552Y07565*
X03579Y07591*
X03721Y07449*
G37*
G36*
X19636Y10339D02*
X19961Y10014D01*
Y07588*
X19144Y06771*
X19026Y0682*
Y06926*
X17872*
Y06342*
X17863Y0634*
X1784Y06338*
X17809Y06337*
X17795Y06331*
X17783*
X17695Y06313*
X1762Y06263*
X17362Y06005*
X17312Y0593*
X17294Y05842*
Y05078*
X17288Y05064*
X17287Y05032*
X17285Y0501*
X17283Y05*
X17092*
X1709Y0501*
X17088Y05033*
X17087Y05064*
X17081Y05078*
Y05197*
X17087Y05211*
X17087Y05243*
X17089Y05272*
X17126*
Y05385*
X17134Y05402*
X17128Y05416*
X17131Y05431*
X17126Y05438*
Y06492*
X17134Y06507*
X17135Y06529*
X17137Y06544*
X17141Y0656*
X17146Y06576*
X17154Y06593*
X17163Y06611*
X17176Y0663*
X1719Y0665*
X17208Y06671*
X17231Y06695*
X17236Y06708*
X17509Y06982*
X17559Y07057*
X17577Y07145*
Y07472*
X18186*
Y08299*
X18249*
Y08363*
X18926*
Y09126*
X18952Y09243*
X19363Y09655*
X19413Y0973*
X19431Y09818*
Y1032*
X19437Y10333*
X19438Y10365*
X1944Y10388*
X19441Y10397*
X19597*
X19636Y10339*
G37*
G36*
X17131Y06789D02*
X17105Y06762D01*
X17082Y06735*
X17062Y06708*
X17045Y06681*
X1703Y06653*
X17018Y06626*
X17008Y06598*
X17002Y0657*
X16998Y06542*
X16996Y06514*
X16714Y06796*
X16742Y06798*
X1677Y06802*
X16798Y06808*
X16826Y06818*
X16853Y0683*
X16881Y06845*
X16908Y06862*
X16935Y06882*
X16962Y06905*
X16989Y06931*
X17131Y06789*
G37*
G36*
X18898Y0656D02*
X18904Y06544D01*
X18913Y06529*
X18926Y06517*
X18943Y06506*
X18963Y06498*
X18987Y06491*
X19015Y06486*
X19047Y06483*
X19082Y06482*
Y06282*
X19047Y06281*
X19015Y06278*
X18987Y06274*
X18963Y06267*
X18943Y06258*
X18926Y06248*
X18913Y06235*
X18904Y06221*
X18898Y06205*
X18896Y06187*
Y06578*
X18898Y0656*
G37*
G36*
X18002Y05899D02*
X18001Y05918D01*
X17995Y05935*
X17985Y0595*
X17972Y05963*
X17955Y05974*
X17934Y05983*
X17909Y0599*
X17881Y05995*
X17849Y05998*
X17812Y05999*
Y06199*
X17849Y062*
X17881Y06203*
X17909Y06208*
X17934Y06215*
X17955Y06224*
X17972Y06235*
X17985Y06248*
X17995Y06263*
X18001Y0628*
X18002Y06299*
Y05899*
G37*
G36*
X15909Y07763D02*
X1594Y07762D01*
X15963Y0776*
X15972Y07758*
Y07472*
X17114*
Y07241*
X16908Y07036*
X16895Y07031*
X16871Y07008*
X1685Y0699*
X1683Y06976*
X16811Y06963*
X16793Y06954*
X16776Y06946*
X1676Y06941*
X16744Y06937*
X16729Y06935*
X16707Y06934*
X16692Y06926*
X15972*
Y05407*
X15845Y05355*
X15344Y05856*
Y07577*
X15346Y07581*
X15383Y07596*
X15517Y0773*
X15532Y07767*
X15536Y07769*
X15895*
X15909Y07763*
G37*
G36*
X16987Y05401D02*
X16979Y05395D01*
X16972Y05385*
X16966Y05372*
X16961Y05355*
X16957Y05334*
X16954Y05309*
X1695Y05249*
X16949Y05212*
X16749*
X16748Y05249*
X16745Y05281*
X1674Y05309*
X16733Y05334*
X16724Y05355*
X16713Y05372*
X167Y05385*
X16685Y05395*
X16668Y05401*
X16649Y05402*
X16996*
X16987Y05401*
G37*
G36*
X17626Y05024D02*
X17629Y04992D01*
X17634Y04963*
X17641Y04939*
X17649Y04918*
X1766Y04901*
X17672Y04888*
X17686Y04878*
X17702Y04872*
X1772Y0487*
X17326*
X17345Y04872*
X17362Y04878*
X17377Y04888*
X1739Y04901*
X17401Y04918*
X1741Y04939*
X17417Y04963*
X17421Y04992*
X17424Y05024*
X17425Y0506*
X17625*
X17626Y05024*
G37*
G36*
X1695D02*
X16953Y04992D01*
X16958Y04963*
X16965Y04939*
X16974Y04918*
X16985Y04901*
X16998Y04888*
X17013Y04878*
X1703Y04872*
X17049Y0487*
X16676*
X1669Y04872*
X16703Y04878*
X16714Y04888*
X16723Y04901*
X16731Y04918*
X16738Y04939*
X16743Y04963*
X16747Y04992*
X16749Y05024*
X16749Y0506*
X16949*
X1695Y05024*
G37*
G36*
X16037Y04979D02*
X16064Y04956D01*
X16091Y04936*
X16118Y04919*
X16146Y04904*
X16173Y04892*
X16201Y04882*
X16229Y04876*
X16257Y04872*
X16285Y0487*
X16027Y04564*
X16025Y04592*
X16021Y0462*
X16014Y04648*
X16005Y04676*
X15993Y04703*
X15978Y04731*
X15961Y04758*
X15941Y04785*
X15918Y04812*
X15892Y04839*
X1601Y05005*
X16037Y04979*
G37*
%LNpcb1-10*%
%LPC*%
G36*
X18926Y08236D02*
X18313D01*
Y07472*
X18926*
Y08236*
G37*
%LNpcb1-11*%
%LPD*%
G36*
X27202Y09799D02*
X27201Y09818D01*
X27195Y09835*
X27185Y0985*
X27172Y09863*
X27155Y09874*
X27134Y09883*
X27109Y0989*
X27081Y09895*
X27049Y09898*
X27012Y09899*
Y10099*
X27049Y101*
X27081Y10103*
X27109Y10108*
X27134Y10115*
X27155Y10124*
X27172Y10135*
X27185Y10148*
X27195Y10163*
X27201Y1018*
X27202Y10199*
Y09799*
G37*
G36*
X26142Y09441D02*
X26131Y09428D01*
X26121Y09412*
X26112Y09393*
X26105Y09371*
X26098Y09346*
X26093Y09318*
X2609Y09288*
X26085Y09218*
X26085Y09179*
X25739Y09525*
X25778Y09526*
X25848Y0953*
X25878Y09534*
X25906Y09539*
X25931Y09545*
X25952Y09552*
X25971Y09561*
X25988Y09571*
X26001Y09582*
X26142Y09441*
G37*
G36*
X25953Y08898D02*
X25906Y08846D01*
X25887Y08821*
X25872Y08798*
X25858Y08776*
X25848Y08755*
X25841Y08736*
X25837Y08717*
X25835Y087*
X25635*
X25634Y08717*
X25629Y08736*
X25622Y08755*
X25612Y08776*
X25599Y08798*
X25583Y08821*
X25564Y08846*
X25518Y08898*
X2549Y08926*
X2598*
X25953Y08898*
G37*
G36*
X25836Y07833D02*
X25839Y07801D01*
X25844Y07772*
X25851Y07748*
X2586Y07727*
X25871Y0771*
X25884Y07697*
X25899Y07687*
X25916Y07681*
X25935Y07679*
X25536*
X25554Y07681*
X25571Y07687*
X25586Y07697*
X25599Y0771*
X2561Y07727*
X25619Y07748*
X25626Y07772*
X25631Y07801*
X25634Y07833*
X25635Y07869*
X25835*
X25836Y07833*
G37*
G36*
X29613Y06799D02*
X29611Y06818D01*
X29605Y06835*
X29595Y0685*
X29582Y06863*
X29565Y06874*
X29544Y06883*
X29519Y0689*
X29491Y06895*
X29459Y06898*
X29422Y06899*
Y07099*
X29459Y071*
X29491Y07103*
X29519Y07108*
X29544Y07115*
X29565Y07124*
X29582Y07135*
X29595Y07148*
X29605Y07163*
X29611Y0718*
X29613Y07199*
Y06799*
G37*
G36*
X26231Y0718D02*
X26237Y07163D01*
X26246Y07148*
X2626Y07135*
X26277Y07124*
X26298Y07115*
X26322Y07108*
X26351Y07103*
X26383Y071*
X26419Y07099*
Y06899*
X26383Y06898*
X26351Y06895*
X26322Y0689*
X26298Y06883*
X26277Y06874*
X2626Y06863*
X26246Y0685*
X26237Y06835*
X26231Y06818*
X26229Y06799*
Y07199*
X26231Y0718*
G37*
G36*
X23113Y04371D02*
X23111Y0439D01*
X23105Y04407*
X23095Y04422*
X23082Y04435*
X23065Y04446*
X23044Y04455*
X23019Y04462*
X22991Y04467*
X22959Y0447*
X22922Y04471*
Y04671*
X22959Y04672*
X22991Y04675*
X23019Y0468*
X23044Y04687*
X23065Y04696*
X23082Y04707*
X23095Y0472*
X23105Y04735*
X23111Y04752*
X23113Y04771*
Y04371*
G37*
G36*
X22333Y04761D02*
X22374Y04725D01*
X22394Y04711*
X22413Y04699*
X22431Y04689*
X22449Y04681*
X22467Y04676*
X22484Y04673*
X225Y04671*
Y04471*
X22484Y0447*
X22467Y04467*
X22449Y04462*
X22431Y04454*
X22413Y04444*
X22394Y04432*
X22374Y04418*
X22354Y04401*
X22312Y04361*
Y04781*
X22333Y04761*
G37*
G36*
X09113Y04299D02*
X09111Y04318D01*
X09105Y04335*
X09095Y0435*
X09082Y04363*
X09065Y04374*
X09044Y04383*
X09019Y0439*
X08991Y04395*
X08959Y04398*
X08922Y04399*
Y04599*
X08959Y046*
X08991Y04603*
X09019Y04608*
X09044Y04615*
X09065Y04624*
X09082Y04635*
X09095Y04648*
X09105Y04663*
X09111Y0468*
X09113Y04699*
Y04299*
G37*
G36*
X0725Y0468D02*
X07256Y04663D01*
X07265Y04648*
X07279Y04635*
X07296Y04624*
X07317Y04615*
X07341Y04608*
X0737Y04603*
X07402Y046*
X07438Y04599*
Y04399*
X07402Y04398*
X0737Y04395*
X07341Y0439*
X07317Y04383*
X07296Y04374*
X07279Y04363*
X07265Y0435*
X07256Y04335*
X0725Y04318*
X07248Y04299*
Y04699*
X0725Y0468*
G37*
G36*
X32238Y06539D02*
X32204Y06527D01*
X32174Y06508*
X32148Y06482*
X32126Y06448*
X32108Y06406*
X32094Y06356*
X32084Y06299*
X32078Y06235*
X32076Y06163*
X31676*
X31674Y06235*
X31668Y06299*
X31658Y06356*
X31644Y06406*
X31626Y06448*
X31604Y06482*
X31578Y06508*
X31548Y06527*
X31514Y06539*
X31476Y06542*
X32276*
X32238Y06539*
G37*
G36*
X32077Y05354D02*
X32081Y05308D01*
X32084Y05287*
X32088Y05269*
X32093Y05252*
X32098Y05237*
X32105Y05224*
X32113Y05212*
X32121Y05202*
X31631*
X3164Y05212*
X31648Y05224*
X31654Y05237*
X3166Y05252*
X31665Y05269*
X31669Y05287*
X31672Y05308*
X31676Y05354*
X31676Y0538*
X32076*
X32077Y05354*
G37*
G36*
X11888Y04624D02*
X11894Y04607D01*
X11903Y04592*
X11917Y04579*
X11934Y04568*
X11955Y04559*
X1198Y04552*
X12008Y04547*
X1204Y04544*
X12076Y04543*
Y04343*
X1204Y04342*
X12008Y04339*
X1198Y04334*
X11955Y04327*
X11934Y04318*
X11917Y04307*
X11903Y04294*
X11894Y04279*
X11888Y04262*
X11886Y04243*
Y04643*
X11888Y04624*
G37*
G36*
X12694Y04198D02*
X12666Y04226D01*
X12614Y04272*
X1259Y04291*
X12567Y04307*
X12545Y0432*
X12524Y0433*
X12505Y04337*
X12486Y04342*
X12469Y04343*
Y04543*
X12486Y04545*
X12505Y04549*
X12524Y04556*
X12545Y04566*
X12567Y04579*
X1259Y04595*
X12614Y04614*
X12666Y04661*
X12694Y04688*
Y04198*
G37*
G36*
X27751Y04299D02*
X27749Y04318D01*
X27743Y04335*
X27734Y0435*
X2772Y04363*
X27703Y04374*
X27682Y04383*
X27658Y0439*
X27629Y04395*
X27597Y04398*
X27561Y04399*
Y04599*
X27597Y046*
X27629Y04603*
X27658Y04608*
X27682Y04615*
X27703Y04624*
X2772Y04635*
X27734Y04648*
X27743Y04663*
X27749Y0468*
X27751Y04699*
Y04299*
G37*
G36*
X25888Y0468D02*
X25894Y04663D01*
X25904Y04648*
X25917Y04635*
X25934Y04624*
X25955Y04615*
X25979Y04608*
X26008Y04603*
X2604Y046*
X26076Y04599*
Y04399*
X2604Y04398*
X26008Y04395*
X25979Y0439*
X25955Y04383*
X25934Y04374*
X25917Y04363*
X25904Y0435*
X25894Y04335*
X25888Y04318*
X25886Y04299*
Y04699*
X25888Y0468*
G37*
G54D10*
X27813Y1651D02*
D01*
X27883Y16512*
X27954Y16519*
X28024Y16532*
X28093Y16549*
X2816Y16571*
X28226Y16597*
X28289Y16628*
X28351Y16664*
X2841Y16704*
X28466Y16747*
X28518Y16795*
X28568Y16846*
X28613Y169*
X28655Y16957*
X28692Y17018*
X28726Y1708*
X28755Y17145*
X28779Y17212*
X28798Y1728*
X28813Y17349*
X28823Y17419*
X28828Y1749*
X28829Y17526*
X24892Y17018D02*
D01*
X24893Y16982*
X24896Y16947*
X24903Y16912*
X24911Y16877*
X24922Y16844*
X24935Y16811*
X24951Y16779*
X24969Y16748*
X24989Y16719*
X2501Y16691*
X25034Y16665*
X2506Y1664*
X25087Y16617*
X25115Y16596*
X25146Y16578*
X25177Y16561*
X25209Y16546*
X25243Y16534*
X25277Y16525*
X25311Y16517*
X25346Y16512*
X25382Y1651*
X254Y1651*
X24892Y18424D02*
D01*
X2489Y18478*
X24884Y18532*
X24875Y18585*
X24861Y18638*
X24845Y18689*
X24824Y1874*
X24801Y18788*
X24774Y18835*
X24743Y1888*
X2471Y18923*
X24674Y18963*
X24635Y19*
X24594Y19035*
X2455Y19067*
X24504Y19096*
X24456Y19121*
X24407Y19143*
X24356Y19162*
X24304Y19176*
X24251Y19188*
X24197Y19195*
X24143Y19199*
X24116Y19199*
X2398Y28321D02*
D01*
X23902Y28318*
X23824Y2831*
X23747Y28296*
X23671Y28277*
X23597Y28253*
X23525Y28224*
X23454Y28189*
X23386Y2815*
X23322Y28106*
X2326Y28058*
X23202Y28006*
X23147Y2795*
X23097Y2789*
X23051Y27826*
X2301Y2776*
X22973Y27691*
X22941Y27619*
X22914Y27546*
X22893Y27471*
X22877Y27394*
X22866Y27317*
X2286Y27239*
X2286Y27199*
Y25781D02*
D01*
X22862Y25701*
X22871Y25621*
X22884Y25543*
X22904Y25465*
X22928Y2539*
X22958Y25316*
X22993Y25244*
X23033Y25175*
X23078Y25109*
X23127Y25046*
X2318Y24986*
X23238Y24931*
X23299Y2488*
X23363Y24833*
X23431Y24791*
X23501Y24753*
X23574Y24721*
X23649Y24693*
X23726Y24671*
X23804Y24655*
X23883Y24644*
X23963Y24638*
X24003Y24638*
X28829Y23876D02*
D01*
X28827Y23929*
X28821Y23982*
X28812Y24034*
X28799Y24086*
X28783Y24136*
X28763Y24185*
X28739Y24233*
X28713Y24279*
X28683Y24323*
X2865Y24365*
X28615Y24405*
X28576Y24442*
X28536Y24476*
X28493Y24507*
X28448Y24535*
X28401Y2456*
X28352Y24582*
X28302Y246*
X28251Y24615*
X28199Y24626*
X28146Y24633*
X28093Y24637*
X28067Y24638*
X15113Y0576D02*
Y08001D01*
X1625*
X16549Y08299*
X19799Y10503D02*
Y11211D01*
Y10503D02*
X20193Y1011D01*
X19749Y11261D02*
X19799Y11211D01*
X20193Y07493D02*
Y1011D01*
X19082Y06382D02*
X20193Y07493D01*
X18449Y06099D02*
X18732Y06382D01*
X19082*
X11399Y04499D02*
X11456Y04443D01*
X12944*
X15748Y10033D02*
X17229D01*
X17699Y10503*
X07805Y09378D02*
X17075D01*
X18199Y10503*
X07773Y09346D02*
X09116Y08002D01*
X18743Y09362D02*
X19199Y09818D01*
X17741Y09362D02*
X18743D01*
X17345Y08966D02*
X17741Y09362D01*
X16199Y04198D02*
Y04673D01*
X15113Y0576D02*
X16199Y04673D01*
X16849Y04198D02*
Y05799D01*
X16549Y06099D02*
X16849Y05799D01*
X17499Y04198D02*
X17526Y04224D01*
Y05842*
X17783Y06099*
X18449*
X15566Y2499D02*
X15941D01*
X10287Y14224D02*
X10299Y14236D01*
X11748D02*
X11761Y14249D01*
X10299Y14236D02*
X11748D01*
X23527Y04572D02*
X23599Y04499D01*
X22098Y04572D02*
X23527D01*
X07659Y09525D02*
X07805Y09378D01*
X07405Y09779D02*
X07532Y09652D01*
X07184Y09999D02*
X07405Y09779D01*
X07532Y09652D02*
X07659Y09525D01*
X17345Y07145D02*
Y08966D01*
X16549Y0635D02*
X17345Y07145D01*
X16549Y06099D02*
Y0635D01*
X17699Y10503D02*
Y11211D01*
X17749Y11261*
X254Y04499D02*
X28149D01*
X06849D02*
X09599D01*
X25924Y06999D02*
X30099D01*
X25882Y06957D02*
X25924Y06999D01*
X25735Y07105D02*
X25882Y06957D01*
X25735Y07105D02*
Y09175D01*
X26559Y09999D02*
X27814D01*
X25735Y09175D02*
X26559Y09999D01*
X18749Y10232D02*
Y11261D01*
X18457Y09939D02*
X18749Y10232D01*
X19199Y09818D02*
Y11211D01*
X0605Y17684D02*
X06096Y1773D01*
Y24977*
X04953Y2612D02*
X06096Y24977D01*
X04953Y2612D02*
Y2615D01*
X0254Y04953D02*
X03683D01*
X04899Y06169D02*
Y06999D01*
X03683Y04953D02*
X04899Y06169D01*
X01651Y05842D02*
Y24618D01*
X04953Y2792*
X01651Y05842D02*
X0254Y04953D01*
X04953Y2792D02*
Y2795D01*
X06129Y09999D02*
X07184D01*
X03129Y06999D02*
X06129Y09999D01*
X03099Y06999D02*
X03129D01*
X1016Y10668D02*
X10668Y1016D01*
X14856*
X15199Y10503*
Y11211*
X15249Y11261*
X17399Y24003D02*
X17693D01*
X18199Y23496*
Y22787D02*
Y23496D01*
Y22787D02*
X18249Y22737D01*
X11754Y16242D02*
X11761Y16249D01*
X09652Y16235D02*
X09659Y16242D01*
X19199Y11211D02*
X19249Y11261D01*
X18199Y10503D02*
Y11211D01*
X18249Y11261*
X09116Y06941D02*
Y08002D01*
X25273Y15748D02*
X29201D01*
X3009Y14859*
X24437Y16582D02*
X25273Y15748D01*
X254Y1651D02*
X27813D01*
X24892Y17018D02*
Y18424D01*
X23237Y18749D02*
X23287Y18699D01*
X23996*
X24437Y18258*
Y16582D02*
Y18258D01*
X3009Y14859D02*
X3012D01*
X30885Y14883D02*
X33274Y17272D01*
X30145Y14883D02*
X30885D01*
X3012Y14859D02*
X30145Y14883D01*
X33274Y17272D02*
Y21082D01*
X3217Y22184D02*
X33274Y21082D01*
X30999Y22184D02*
X3217D01*
X23287Y19199D02*
X24116D01*
X21249Y22737D02*
X21254Y22733D01*
X23237Y19249D02*
X23287Y19199D01*
X28829Y17526D02*
Y23876D01*
X24003Y24638D02*
X28067D01*
X2286Y25781D02*
Y27199D01*
X25781Y26045D02*
X25791Y26035D01*
X03937Y42976D02*
X04126Y43166D01*
G54D16*
X18723Y01524D03*
X16323D03*
G54D17*
X20723Y03973D03*
X14323D03*
G54D18*
X18823Y04198D03*
X18173D03*
X17523D03*
X16873D03*
X16223D03*
G54D19*
X04953Y2615D03*
Y2795D03*
G54D20*
X28386Y26165D03*
X30286D03*
X29337Y27935D03*
G54D21*
X18449Y06099D03*
X16549D03*
Y08299D03*
G54D22*
X18249Y08299D03*
G54D23*
X27814Y09999D03*
X32184D03*
X07184D03*
X02814D03*
G54D24*
X29849Y04499D03*
X28149D03*
X05149D03*
X06849D03*
G54D25*
X30099Y06999D03*
X31899D03*
X03099D03*
X04899D03*
X11399Y04499D03*
X09599D03*
X23599D03*
X254D03*
X28321Y14859D03*
X3012D03*
X23991Y26035D03*
X25791D03*
X2398Y28321D03*
X25781D03*
X09906Y33768D03*
X01016Y33641D03*
X09906Y35318D03*
X01016Y35191D03*
G54D26*
X24082Y06957D03*
X25882D03*
X25625Y18057D03*
X27425D03*
X25582Y20557D03*
X27382D03*
X25582Y23057D03*
X27382D03*
X09416Y20441D03*
X07616D03*
X09416Y22941D03*
X07616D03*
Y12941D03*
X10916Y06941D03*
X09116D03*
X09416Y12941D03*
G54D27*
X22057Y09416D03*
Y07616D03*
X15941Y2679D03*
X13441D03*
X21441D03*
X18941D03*
X21441Y2499D03*
X18941D03*
X15941D03*
X13441D03*
G54D28*
X21249Y22737D03*
X20749D03*
X20249D03*
X19749D03*
X19249D03*
X18749D03*
X18249D03*
X17749D03*
X17249D03*
X16749D03*
X16249D03*
X15749D03*
X15249D03*
X14749D03*
X14249D03*
X13749D03*
Y11261D03*
X14249D03*
X14749D03*
X15249D03*
X15749D03*
X16249D03*
X16749D03*
X17249D03*
X17749D03*
X18249D03*
X18749D03*
X19249D03*
X19749D03*
X20249D03*
X20749D03*
X21249D03*
G54D29*
X11761Y20749D03*
Y20249D03*
Y19749D03*
Y19249D03*
Y18749D03*
Y18249D03*
Y17749D03*
Y17249D03*
Y16749D03*
Y16249D03*
Y15749D03*
Y15249D03*
Y14749D03*
Y14249D03*
Y13749D03*
Y13249D03*
X23237D03*
Y13749D03*
Y14249D03*
Y14749D03*
Y15249D03*
Y15749D03*
Y16249D03*
Y16749D03*
Y17249D03*
Y17749D03*
Y18249D03*
Y18749D03*
Y19249D03*
Y19749D03*
Y20249D03*
Y20749D03*
G54D30*
X32999Y31199D03*
Y34799D03*
G54D31*
X30474Y32499D03*
Y33499D03*
G54D33*
X03937Y39826D03*
Y42976D03*
G54D34*
X05588Y31368D03*
G54D35*
X03297Y37761D03*
X05588D03*
X07877D03*
G54D36*
X03999Y17814D03*
X30999Y22184D03*
Y17814D03*
X03999Y22184D03*
G54D62*
X25545Y23057D02*
D01*
X25384Y23052*
X25224Y23035*
X25066Y23007*
X24909Y22968*
X24756Y22918*
X24607Y22858*
X24462Y22787*
X24322Y22707*
X24189Y22617*
X24062Y22518*
X23942Y2241*
X2383Y22294*
X23727Y2217*
X23632Y2204*
X23547Y21903*
X23471Y21761*
X23406Y21614*
X2335Y21463*
X23306Y21308*
X23273Y2115*
X2325Y20991*
X23239Y2083*
X23237Y20749*
X21249Y10674D02*
X2171D01*
X22057Y09416D02*
Y10326D01*
X2171Y10674D02*
X22057Y10326D01*
X21249Y10674D02*
Y12404D01*
X20983Y12671D02*
X21249Y12404D01*
X13294Y12671D02*
X20983D01*
X20199Y19749D02*
X21199Y20749D01*
X11761Y19749D02*
X20199D01*
X09566Y20288D02*
X09959Y19886D01*
X10866Y12941D02*
X11174Y13249D01*
X09416Y12941D02*
Y13316D01*
X11174Y13249D02*
X11761D01*
X12715*
X07747Y14986D02*
X09416Y13316D01*
Y20441D02*
X09566Y20288D01*
X09416Y20441D02*
Y22941D01*
X09959Y19886D02*
X10076Y19769D01*
X11761Y19749*
X07747Y14986D02*
Y18396D01*
X09416Y20066*
Y20441*
Y12941D02*
X10866D01*
X25545Y23057D02*
X25582D01*
X12715Y13249D02*
X13294Y12671D01*
X21199Y20749D02*
X23237D01*
X03999Y25167D02*
X04953Y2612D01*
X03999Y22184D02*
Y25167D01*
X28255Y26035D02*
X28386Y26165D01*
X25781Y26045D02*
Y26165D01*
Y28321*
X25791Y26035D02*
X28255D01*
G54D63*
X26999Y30799D03*
Y35199D03*
G54D64*
X14691Y2499D02*
X15249Y24432D01*
Y22737D02*
Y24432D01*
G54D65*
X15941Y2499D02*
X18941D01*
X14691D02*
X15941D01*
X13441D02*
X14691D01*
X09212D02*
X13441D01*
X05588Y28615D02*
X09212Y2499D01*
X02667Y36812D02*
X03297Y37443D01*
X01045Y35191D02*
X02667Y36812D01*
Y29591D02*
Y36812D01*
X01524Y28448D02*
X02667Y29591D01*
X18941Y2499D02*
X21441D01*
X04953Y2798D02*
X05588Y28615D01*
Y31368*
Y37571D02*
Y37761D01*
X03297Y37443D02*
Y39212D01*
X01016Y35191D02*
X01045D01*
X03911Y39826D02*
X03937D01*
X03297Y39212D02*
X03911Y39826D01*
X03999Y43166D02*
Y45759D01*
G54D66*
X31115Y17017D02*
X31623Y1651D01*
X30999Y17814D02*
X31115Y17699D01*
Y17017D02*
Y17699D01*
X31877Y06976D02*
X31899Y06999D01*
X31877Y04953D02*
Y06976D01*
X09659Y16242D02*
X11754D01*
X25625Y18057D02*
Y19273D01*
X25149Y19749D02*
X25625Y19273D01*
X25582Y20182D02*
Y20557D01*
X25149Y19749D02*
X25582Y20182D01*
X23237Y19749D02*
X25149D01*
X21254Y22733D02*
X22479D01*
X22987Y23241*
Y24384*
X22379Y2499D02*
X22987Y24384D01*
X21441Y2499D02*
X22379D01*
G54D67*
X20823Y01524D03*
X14224D03*
G54D68*
X03999Y45759D03*
X13149D03*
Y60999D03*
X03999D03*
G54D69*
X12669Y36322D03*
X17369D03*
X22069D03*
G54D70*
X24998Y57494D03*
Y52494D03*
G54D71*
X32258Y62611D03*
X02032Y01905D03*
G54D72*
X15113Y08001D03*
X19431Y08255D03*
X30853Y58599D03*
Y55099D03*
Y51599D03*
Y48099D03*
Y44599D03*
Y41099D03*
Y30599D03*
Y23599D03*
Y20099D03*
Y13099D03*
Y09599D03*
Y02599D03*
X27353Y62099D03*
Y58599D03*
Y48099D03*
Y44599D03*
Y41099D03*
Y27099D03*
Y13099D03*
Y06099D03*
Y02599D03*
X23853Y62099D03*
Y44599D03*
Y30599D03*
Y27099D03*
Y02599D03*
X20353Y62099D03*
Y58599D03*
Y30599D03*
Y16599D03*
Y06099D03*
X16853Y62099D03*
Y58599D03*
Y55099D03*
Y16599D03*
X13353Y58599D03*
Y55099D03*
Y41099D03*
Y30599D03*
Y16599D03*
Y06099D03*
Y02599D03*
X09853Y62099D03*
Y58599D03*
Y48099D03*
Y44599D03*
Y41099D03*
Y37599D03*
Y30599D03*
Y27099D03*
Y02599D03*
X06353Y62099D03*
Y51599D03*
Y48099D03*
Y44599D03*
Y41099D03*
Y13099D03*
Y06099D03*
Y02599D03*
X02853Y55099D03*
Y51599D03*
Y48099D03*
Y44599D03*
Y41099D03*
Y27099D03*
Y23599D03*
Y20099D03*
Y13099D03*
X12944Y04443D03*
X15748Y10033D03*
X18457Y09939D03*
X25625Y19273D03*
X10287Y14224D03*
X22098Y04572D03*
X1016Y10668D03*
X31623Y1651D03*
X31877Y04953D03*
X17399Y25019D03*
X25735Y09175D03*
X0605Y17684D03*
X17399Y24003D03*
X09652Y16235D03*
G54D73*
X01524Y28448D03*
M02*