%FSTAX23Y23*%
%MOMM*%
%SFA1B1*%

%IPPOS*%
%AMD35*
4,1,8,-0.396240,-0.728980,0.396240,-0.728980,0.541020,-0.584200,0.541020,0.584200,0.396240,0.728980,-0.396240,0.728980,-0.541020,0.584200,-0.541020,-0.584200,-0.396240,-0.728980,0.0*
1,1,0.289400,-0.396240,-0.584200*
1,1,0.289400,0.396240,-0.584200*
1,1,0.289400,0.396240,0.584200*
1,1,0.289400,-0.396240,0.584200*
%
%AMD36*
4,1,8,-0.299720,-0.474980,0.299720,-0.474980,0.474980,-0.299720,0.474980,0.299720,0.299720,0.474980,-0.299720,0.474980,-0.474980,0.299720,-0.474980,-0.299720,-0.299720,-0.474980,0.0*
1,1,0.350000,-0.299720,-0.299720*
1,1,0.350000,0.299720,-0.299720*
1,1,0.350000,0.299720,0.299720*
1,1,0.350000,-0.299720,0.299720*
%
%AMD41*
4,1,8,-1.521460,-0.728980,1.521460,-0.728980,1.694180,-0.556260,1.694180,0.556260,1.521460,0.728980,-1.521460,0.728980,-1.694180,0.556260,-1.694180,-0.556260,-1.521460,-0.728980,0.0*
1,1,0.346600,-1.521460,-0.556260*
1,1,0.346600,1.521460,-0.556260*
1,1,0.346600,1.521460,0.556260*
1,1,0.346600,-1.521460,0.556260*
%
%ADD25R,0.949998X0.899998*%
%ADD29R,0.349999X1.524997*%
%ADD30R,1.524997X0.349999*%
%ADD31R,0.849998X1.599997*%
%ADD32R,1.949996X1.349997*%
%ADD33R,1.461597X1.331597*%
%ADD34R,1.129998X1.069998*%
G04~CAMADD=35~8~0.0~0.0~425.2~574.8~57.0~0.0~15~0.0~0.0~0.0~0.0~0~0.0~0.0~0.0~0.0~0~0.0~0.0~0.0~180.0~426.0~575.0*
%ADD35D35*%
G04~CAMADD=36~8~0.0~0.0~374.0~374.0~68.9~0.0~15~0.0~0.0~0.0~0.0~0~0.0~0.0~0.0~0.0~0~0.0~0.0~0.0~180.0~374.0~374.0*
%ADD36D36*%
%ADD37R,1.331597X1.461597*%
%ADD38R,0.951998X1.121998*%
%ADD39R,2.249995X1.549997*%
%ADD40R,1.699997X0.749999*%
G04~CAMADD=41~8~0.0~0.0~1334.6~574.8~68.2~0.0~15~0.0~0.0~0.0~0.0~0~0.0~0.0~0.0~0.0~0~0.0~0.0~0.0~180.0~1334.0~574.0*
%ADD41D41*%
%ADD42C,1.649997*%
%ADD43R,1.649997X1.649997*%
%ADD44C,1.673997*%
%ADD45C,3.949992*%
%ADD46O,3.149994X3.949992*%
%ADD47C,3.749993*%
%ADD48R,1.649997X1.649997*%
%LNpcb1-1*%
%LPD*%
G54D25*
X03937Y39826D03*
Y42976D03*
G54D29*
X20249Y21737D03*
X19749D03*
X19249D03*
X18749D03*
X18249D03*
X17749D03*
X17249D03*
X16749D03*
X16249D03*
X15749D03*
X15249D03*
X14749D03*
Y13261D03*
X15249D03*
X15749D03*
X16249D03*
X16749D03*
X17249D03*
X17749D03*
X18249D03*
X18749D03*
X19249D03*
X19749D03*
X20249D03*
G54D30*
X13261Y20249D03*
Y19749D03*
Y19249D03*
Y18749D03*
Y18249D03*
Y17749D03*
Y16749D03*
Y16249D03*
Y15749D03*
Y15249D03*
Y14749D03*
X21737D03*
Y15249D03*
Y15749D03*
Y16249D03*
Y16749D03*
Y17249D03*
Y17749D03*
Y18249D03*
Y18749D03*
Y19249D03*
Y19749D03*
Y20249D03*
X13261Y17249D03*
G54D31*
X10916Y06941D03*
X24082Y06957D03*
X09116Y06941D03*
X25882Y06957D03*
G54D32*
X33401Y43455D03*
Y39855D03*
G54D33*
X03999Y17814D03*
X30999Y22184D03*
Y17814D03*
X03999Y22184D03*
G54D34*
X01016Y33641D03*
X09906Y33768D03*
X01016Y35191D03*
X09906Y35318D03*
G54D35*
X07877Y37761D03*
X03297D03*
X05588D03*
G54D36*
X05149Y04499D03*
X29849D03*
X18349Y27999D03*
X16649D03*
X28149Y04499D03*
X06849D03*
G54D37*
X02814Y09999D03*
X32184D03*
X27814D03*
X07184D03*
G54D38*
X30159Y32261D03*
X28259D03*
X2921Y34031D03*
G54D39*
X27051Y40934D03*
Y36534D03*
G54D40*
X30875Y42155D03*
Y41155D03*
G54D41*
X05588Y31368D03*
G54D42*
X23999Y01778D03*
X21459D03*
X18919D03*
X16379D03*
X13839D03*
X32893Y29845D03*
Y37465D03*
Y34925D03*
Y32385D03*
Y27305D03*
G54D43*
X11299Y01778D03*
G54D44*
X18999Y45849D03*
X03759D03*
X18999Y54999D03*
X03759D03*
G54D45*
X26922Y51897D03*
Y46897D03*
G54D46*
X22069Y36322D03*
X12669D03*
X17369D03*
G54D47*
X32499Y02499D03*
X02499D03*
X32004Y57785D03*
G54D48*
X32893Y24765D03*
M02*