%FSTAX23Y23*%
%MOMM*%
%SFA1B1*%

%IPPOS*%
%AMD46*
4,1,8,0.299720,0.474980,-0.299720,0.474980,-0.474980,0.299720,-0.474980,-0.299720,-0.299720,-0.474980,0.299720,-0.474980,0.474980,-0.299720,0.474980,0.299720,0.299720,0.474980,0.0*
1,1,0.350000,0.299720,0.299720*
1,1,0.350000,-0.299720,0.299720*
1,1,0.350000,-0.299720,-0.299720*
1,1,0.350000,0.299720,-0.299720*
%
%AMD54*
4,1,8,-1.521460,-0.728980,1.521460,-0.728980,1.694180,-0.556260,1.694180,0.556260,1.521460,0.728980,-1.521460,0.728980,-1.694180,0.556260,-1.694180,-0.556260,-1.521460,-0.728980,0.0*
1,1,0.346600,-1.521460,-0.556260*
1,1,0.346600,1.521460,-0.556260*
1,1,0.346600,1.521460,0.556260*
1,1,0.346600,-1.521460,0.556260*
%
%AMD55*
4,1,8,-0.396240,-0.728980,0.396240,-0.728980,0.541020,-0.584200,0.541020,0.584200,0.396240,0.728980,-0.396240,0.728980,-0.541020,0.584200,-0.541020,-0.584200,-0.396240,-0.728980,0.0*
1,1,0.289400,-0.396240,-0.584200*
1,1,0.289400,0.396240,-0.584200*
1,1,0.289400,0.396240,0.584200*
1,1,0.289400,-0.396240,0.584200*
%
%ADD33R,0.949998X0.899998*%
%ADD37R,1.129998X1.069998*%
%ADD38R,2.049996X2.049996*%
%ADD39R,1.749997X1.549997*%
%ADD40R,0.549999X1.499997*%
%ADD41R,1.069998X1.129998*%
%ADD42R,0.951998X1.121998*%
%ADD43R,1.049998X1.549997*%
%ADD44R,1.249998X1.549997*%
%ADD45R,1.331597X1.461597*%
G04~CAMADD=46~8~0.0~0.0~374.0~374.0~68.9~0.0~15~0.0~0.0~0.0~0.0~0~0.0~0.0~0.0~0.0~0~0.0~0.0~0.0~0.0~374.0~374.0*
%ADD46D46*%
%ADD47R,0.849998X1.599997*%
%ADD48R,1.599997X0.849998*%
%ADD49R,0.449999X1.624997*%
%ADD50R,1.624997X0.449999*%
%ADD51R,1.949996X1.349997*%
%ADD52R,1.699997X0.749999*%
%ADD53R,2.249995X1.549997*%
G04~CAMADD=54~8~0.0~0.0~1334.6~574.8~68.2~0.0~15~0.0~0.0~0.0~0.0~0~0.0~0.0~0.0~0.0~0~0.0~0.0~0.0~180.0~1334.0~574.0*
%ADD54D54*%
G04~CAMADD=55~8~0.0~0.0~425.2~574.8~57.0~0.0~15~0.0~0.0~0.0~0.0~0~0.0~0.0~0.0~0.0~0~0.0~0.0~0.0~180.0~426.0~575.0*
%ADD55D55*%
%ADD56R,1.461597X1.331597*%
%ADD57O,3.149994X3.949992*%
%ADD58O,1.049998X1.949996*%
%ADD59C,1.673997*%
%ADD60C,3.949992*%
%ADD61C,3.149994*%
%LNpcb1-1*%
%LPD*%
G54D33*
X03937Y39826D03*
Y42976D03*
G54D37*
X09906Y33768D03*
Y35318D03*
X30099Y06999D03*
X31899D03*
X03099D03*
X04899D03*
X11399Y04499D03*
X09599D03*
X23599D03*
X254D03*
X28321Y14859D03*
X3012D03*
X23991Y26035D03*
X25791D03*
X2398Y28321D03*
X25781D03*
X01016Y33641D03*
Y35191D03*
G54D38*
X18723Y01524D03*
X16323D03*
G54D39*
X20723Y03973D03*
X14323D03*
G54D40*
X18823Y04198D03*
X18173D03*
X17523D03*
X16873D03*
X16223D03*
G54D41*
X04953Y2615D03*
Y2795D03*
G54D42*
X28386Y26165D03*
X30286D03*
X29337Y27935D03*
G54D43*
X18449Y06099D03*
X16549D03*
Y08299D03*
G54D44*
X18249Y08299D03*
G54D45*
X27814Y09999D03*
X32184D03*
X07184D03*
X02814D03*
G54D46*
X29849Y04499D03*
X28149D03*
X05149D03*
X06849D03*
G54D47*
X24082Y06957D03*
X25882D03*
X25625Y18057D03*
X27425D03*
X25582Y20557D03*
X27382D03*
X25582Y23057D03*
X27382D03*
X09416Y20441D03*
X07616D03*
X09416Y22941D03*
X07616D03*
Y12941D03*
X10916Y06941D03*
X09116D03*
X09416Y12941D03*
G54D48*
X22057Y09416D03*
Y07616D03*
X15941Y2679D03*
X13441D03*
X21441D03*
X18941D03*
X21441Y2499D03*
X18941D03*
X15941D03*
X13441D03*
G54D49*
X21249Y22737D03*
X20749D03*
X20249D03*
X19749D03*
X19249D03*
X18749D03*
X18249D03*
X17749D03*
X17249D03*
X16749D03*
X16249D03*
X15749D03*
X15249D03*
X14749D03*
X14249D03*
X13749D03*
Y11261D03*
X14249D03*
X14749D03*
X15249D03*
X15749D03*
X16249D03*
X16749D03*
X17249D03*
X17749D03*
X18249D03*
X18749D03*
X19249D03*
X19749D03*
X20249D03*
X20749D03*
X21249D03*
G54D50*
X11761Y20749D03*
Y20249D03*
Y19749D03*
Y19249D03*
Y18749D03*
Y18249D03*
Y17749D03*
Y17249D03*
Y16749D03*
Y16249D03*
Y15749D03*
Y15249D03*
Y14749D03*
Y14249D03*
Y13749D03*
Y13249D03*
X23237D03*
Y13749D03*
Y14249D03*
Y14749D03*
Y15249D03*
Y15749D03*
Y16249D03*
Y16749D03*
Y17249D03*
Y17749D03*
Y18249D03*
Y18749D03*
Y19249D03*
Y19749D03*
Y20249D03*
Y20749D03*
G54D51*
X32999Y31199D03*
Y34799D03*
G54D52*
X30474Y32499D03*
Y33499D03*
G54D53*
X26999Y30799D03*
Y35199D03*
G54D54*
X05588Y31368D03*
G54D55*
X03297Y37761D03*
X05588D03*
X07877D03*
G54D56*
X03999Y17814D03*
X30999Y22184D03*
Y17814D03*
X03999Y22184D03*
G54D57*
X12669Y36322D03*
X17369D03*
X22069D03*
G54D58*
X20823Y01524D03*
X14224D03*
G54D59*
X03999Y45759D03*
X13149D03*
Y60999D03*
X03999D03*
G54D60*
X24998Y57494D03*
Y52494D03*
G54D61*
X32258Y62611D03*
X02032Y01905D03*
M02*