%FSTAX23Y23*%
%MOMM*%
%SFA1B1*%

%IPPOS*%
%AMD22*
4,1,8,-0.396240,-0.655320,0.396240,-0.655320,0.464820,-0.584200,0.464820,0.584200,0.396240,0.655320,-0.396240,0.655320,-0.464820,0.584200,-0.464820,-0.584200,-0.396240,-0.655320,0.0*
1,1,0.139600,-0.396240,-0.584200*
1,1,0.139600,0.396240,-0.584200*
1,1,0.139600,0.396240,0.584200*
1,1,0.139600,-0.396240,0.584200*
%
%AMD25*
4,1,8,-0.299720,-0.398780,0.299720,-0.398780,0.398780,-0.299720,0.398780,0.299720,0.299720,0.398780,-0.299720,0.398780,-0.398780,0.299720,-0.398780,-0.299720,-0.299720,-0.398780,0.0*
1,1,0.200000,-0.299720,-0.299720*
1,1,0.200000,0.299720,-0.299720*
1,1,0.200000,0.299720,0.299720*
1,1,0.200000,-0.299720,0.299720*
%
%AMD32*
4,1,8,-1.521460,-0.655320,1.521460,-0.655320,1.620520,-0.556260,1.620520,0.556260,1.521460,0.655320,-1.521460,0.655320,-1.620520,0.556260,-1.620520,-0.556260,-1.521460,-0.655320,0.0*
1,1,0.196600,-1.521460,-0.556260*
1,1,0.196600,1.521460,-0.556260*
1,1,0.196600,1.521460,0.556260*
1,1,0.196600,-1.521460,0.556260*
%
%ADD16R,1.549997X0.599999*%
%ADD17R,1.799996X1.199998*%
%ADD18R,0.699999X1.449997*%
%ADD19R,1.359997X1.229998*%
%ADD20R,0.979998X0.919998*%
%ADD21R,1.449997X0.699999*%
G04~CAMADD=22~8~0.0~0.0~366.1~515.7~27.5~0.0~15~0.0~0.0~0.0~0.0~0~0.0~0.0~0.0~0.0~0~0.0~0.0~0.0~180.0~366.0~516.0*
%ADD22D22*%
%ADD23R,1.474997X0.299999*%
%ADD24R,0.299999X1.474997*%
G04~CAMADD=25~8~0.0~0.0~315.0~315.0~39.4~0.0~15~0.0~0.0~0.0~0.0~0~0.0~0.0~0.0~0.0~0~0.0~0.0~0.0~180.0~314.0~314.0*
%ADD25D25*%
%ADD26R,1.229998X1.359997*%
%ADD27R,1.099998X1.399997*%
%ADD28R,0.801998X0.971998*%
%ADD29R,0.399999X1.349997*%
%ADD30R,1.599997X1.399997*%
%ADD31R,1.899996X1.899996*%
G04~CAMADD=32~8~0.0~0.0~1275.6~515.7~38.7~0.0~15~0.0~0.0~0.0~0.0~0~0.0~0.0~0.0~0.0~0~0.0~0.0~0.0~180.0~1276.0~516.0*
%ADD32D32*%
%ADD33R,0.899998X1.399997*%
%ADD34R,1.899996X1.199998*%
%ADD35R,0.949998X0.899998*%
%LNpcb1-1*%
%LPD*%
G54D16*
X30474Y33499D03*
Y32499D03*
G54D17*
X32999Y34799D03*
Y31199D03*
G54D18*
X09416Y12941D03*
X07616D03*
X10916Y06941D03*
X27382Y23057D03*
X24082Y06957D03*
X09116Y06941D03*
X25882Y06957D03*
X25582Y23057D03*
G54D19*
X03999Y17814D03*
X30999D03*
Y22184D03*
X03999D03*
G54D20*
X01016Y33641D03*
X28321Y14859D03*
X09906Y33768D03*
Y35318D03*
X3012Y14859D03*
X01016Y35191D03*
G54D21*
X18941Y2679D03*
X21441D03*
X13441D03*
X15941D03*
X22057Y07616D03*
X13441Y2499D03*
X15941D03*
X18941D03*
X21441D03*
X22057Y09416D03*
G54D22*
X07877Y37761D03*
X05588D03*
X03297D03*
G54D23*
X23237Y20249D03*
X11761Y13749D03*
Y20249D03*
Y20749D03*
Y19749D03*
Y19249D03*
Y18749D03*
Y18249D03*
Y17749D03*
Y17249D03*
Y16749D03*
Y16249D03*
Y15749D03*
Y15249D03*
Y14749D03*
Y14249D03*
Y13249D03*
X23237D03*
Y13749D03*
Y14249D03*
Y14749D03*
Y15249D03*
Y15749D03*
Y16249D03*
Y16749D03*
Y17249D03*
Y17749D03*
Y18249D03*
Y18749D03*
Y19249D03*
Y19749D03*
Y20749D03*
G54D24*
X20749Y11261D03*
X15749Y22737D03*
X18249Y11261D03*
X15249Y22737D03*
X21249D03*
X17749Y11261D03*
X20749Y22737D03*
X20249D03*
X19749D03*
X19249D03*
X18749D03*
X18249D03*
X17749D03*
X17249D03*
X16749D03*
X16249D03*
X14749D03*
X14249D03*
X13749D03*
Y11261D03*
X14249D03*
X14749D03*
X15249D03*
X15749D03*
X16249D03*
X16749D03*
X17249D03*
X18749D03*
X19249D03*
X19749D03*
X20249D03*
X21249D03*
G54D25*
X05149Y04499D03*
X29849D03*
X28149D03*
X06849D03*
G54D26*
X02814Y09999D03*
X32184D03*
X07184D03*
X27814D03*
G54D27*
X18249Y08299D03*
G54D28*
X30286Y26165D03*
X28386D03*
X29337Y27935D03*
G54D29*
X18823Y04198D03*
X18173D03*
X17523D03*
X16873D03*
X16223D03*
G54D30*
X14323Y03973D03*
X20723D03*
G54D31*
X16323Y01524D03*
X18723D03*
G54D32*
X05588Y31368D03*
G54D33*
X18449Y06099D03*
X16549D03*
Y08299D03*
G54D34*
X26999Y30799D03*
Y35199D03*
G54D35*
X03937Y39826D03*
Y42976D03*
M02*