%FSTAX23Y23*%
%MOMM*%
%SFA1B1*%

%IPPOS*%
%ADD72C,0.050000*%
%ADD73C,0.253999*%
%ADD74C,0.076200*%
%LNpcb1-1*%
%LPD*%
G36*
X26922Y54597D02*
X27099D01*
X2745Y54551*
X27792Y5446*
X28119Y54324*
X28426Y54147*
X28707Y53932*
X28957Y53682*
X29172Y53401*
X29349Y53094*
X29485Y52767*
X29576Y52425*
X29622Y52074*
Y51897*
Y44297*
X29522Y44197*
X24322*
X24222Y44297*
Y51897*
Y52074*
X24269Y52425*
X2436Y52767*
X24496Y53094*
X24673Y53401*
X24888Y53682*
X25138Y53932*
X25419Y54147*
X25726Y54324*
X26053Y5446*
X26395Y54551*
X26745Y54597*
X26922*
G37*
%LNpcb1-2*%
%LPC*%
G36*
X26922Y54397D02*
X26677Y54385D01*
X26197Y5429*
X25744Y54102*
X25336Y5383*
X2499Y53483*
X24718Y53076*
X2453Y52623*
X24434Y52143*
X24422Y51897*
Y44397*
X29422*
Y51897*
X2941Y52143*
X29315Y52623*
X29127Y53076*
X28855Y53483*
X28508Y5383*
X28101Y54102*
X27648Y5429*
X27168Y54385*
X26922Y54397*
G37*
%LNpcb1-3*%
%LPD*%
G54D72*
X22724Y12274D02*
Y22724D01*
X12274Y12274D02*
X22724D01*
X12274D02*
Y22724D01*
X22724*
X06639Y26236D02*
X08639D01*
Y22736D02*
Y26236D01*
X06639Y22736D02*
X08639D01*
X06639D02*
Y26236D01*
X08798Y22736D02*
Y26236D01*
Y22736D02*
X10798D01*
Y26236*
X08798D02*
X10798D01*
X21476Y20634D02*
Y24134D01*
X19476D02*
X21476D01*
X19476Y20634D02*
Y24134D01*
Y20634D02*
X21476D01*
X23976D02*
Y24134D01*
X21976D02*
X23976D01*
X21976Y20634D02*
Y24134D01*
Y20634D02*
X23976D01*
X10957Y22736D02*
Y26236D01*
Y22736D02*
X12957D01*
Y26236*
X10957D02*
X12957D01*
X08266Y07941D02*
X11766D01*
Y05941D02*
Y07941D01*
X08266Y05941D02*
X11766D01*
X08266D02*
Y07941D01*
X3455Y39005D02*
Y44305D01*
X2985Y39005D02*
X3455D01*
X2985D02*
Y44305D01*
X3455*
X06307Y13345D02*
Y16845D01*
Y13345D02*
X08307D01*
Y16845*
X06307D02*
X08307D01*
X01354Y13218D02*
Y16718D01*
Y13218D02*
X03354D01*
Y16718*
X01354D02*
X03354D01*
X10645Y33058D02*
Y36028D01*
X09165Y33058D02*
Y36028D01*
Y33058D02*
X10645D01*
X09165Y36028D02*
X10645D01*
X27499Y31525D02*
X30919D01*
Y34767*
X27499D02*
X30919D01*
X27499Y31525D02*
Y34767D01*
X26732Y05957D02*
Y07957D01*
X23232D02*
X26732D01*
X23232Y05957D02*
Y07957D01*
Y05957D02*
X26732D01*
X2555Y41884D02*
X2855D01*
X2555Y35584D02*
Y41884D01*
Y35584D02*
X2855D01*
Y41884*
X07457Y32306D02*
X09197D01*
X07457Y30166D02*
Y32306D01*
X03717Y30166D02*
X07457D01*
X03717D02*
Y32306D01*
X01977D02*
X03717D01*
X01977D02*
Y36526D01*
X02577*
Y38666*
X08597*
Y36526D02*
Y38666D01*
Y36526D02*
X09197D01*
Y32306D02*
Y36526D01*
X01755Y32931D02*
Y35901D01*
X00275Y32931D02*
Y35901D01*
Y32931D02*
X01755D01*
X00275Y35901D02*
X01755D01*
G54D73*
X17499Y27999D03*
X28999Y04499D03*
X05999D03*
G54D74*
X15949Y27324D02*
Y28674D01*
Y27324D02*
X1905D01*
Y28674*
X15949D02*
X1905D01*
X27449Y03824D02*
Y05174D01*
Y03824D02*
X30549D01*
Y05174*
X27449D02*
X30549D01*
X07549Y03824D02*
Y05174D01*
X04449D02*
X07549D01*
X04449Y03824D02*
Y05174D01*
Y03824D02*
X07549D01*
M02*