%FSTAX23Y23*%
%MOMM*%
%SFA1B1*%

%IPPOS*%
%ADD11C,0.253999*%
%LNpcb1-1*%
%LPD*%
G54D11*
X07628Y13449D02*
X07374Y13703D01*
X06866*
X06612Y13449*
Y12434*
X06866Y1218*
X07374*
X07628Y12434*
X08136Y1218D02*
X08643D01*
X08389*
Y13703*
X08136Y13449*
X10167Y1218D02*
Y13703D01*
X09405Y12941*
X10421*
X2324Y3556D02*
X23747D01*
X24001Y35814*
Y36829*
X23747Y37083*
X2324*
X22986Y36829*
Y35814*
X2324Y3556*
X21462D02*
X22478D01*
Y36322*
X2197*
X22478*
Y37083*
X19939Y3556D02*
X20954D01*
Y36322*
X20447*
X20954*
Y37083*
X12575Y3556D02*
X13083D01*
X13337Y35814*
Y36829*
X13083Y37083*
X12575*
X12321Y36829*
Y35814*
X12575Y3556*
X11813Y37083D02*
Y3556D01*
X10798Y37083*
Y3556*
X1919Y02623D02*
X18682D01*
X18936*
Y01353*
X18682Y01099*
X18428*
X18175Y01353*
X19698Y01099D02*
X20206D01*
X19952*
Y02623*
X19698Y02369*
X25236Y0645D02*
X2549Y06196D01*
X25998*
X26252Y0645*
Y07465*
X25998Y07719*
X2549*
X25236Y07465*
X23713Y07719D02*
X24729D01*
X23713Y06704*
Y0645*
X23967Y06196*
X24475*
X24729Y0645*
X2155Y07628D02*
X21296Y07374D01*
Y06866*
X2155Y06612*
X22565*
X22819Y06866*
Y07374*
X22565Y07628*
X22819Y08136D02*
Y08643D01*
Y08389*
X21296*
X2155Y08136*
X21296Y10421D02*
Y09405D01*
X22057*
X21804Y09913*
Y10167*
X22057Y10421*
X22565*
X22819Y10167*
Y09659*
X22565Y09405*
X27951Y14097D02*
Y1562D01*
X28713*
X28967Y15366*
Y14859*
X28713Y14605*
X27951*
X28459D02*
X28967Y14097D01*
X29474Y1562D02*
X3049D01*
Y15366*
X29474Y14351*
Y14097*
X27371Y2255D02*
X27625Y22296D01*
X28133*
X28387Y2255*
Y23565*
X28133Y23819*
X27625*
X27371Y23565*
X26863Y23819D02*
X26355D01*
X26609*
Y22296*
X26863Y2255*
X24578Y22296D02*
X25086Y2255D01*
X25594Y23057*
Y23565*
X2534Y23819*
X24832*
X24578Y23565*
Y23311*
X24832Y23057*
X25594*
X04826Y39428D02*
X05841D01*
X06349Y3892*
X05841Y38412*
X04826*
X05588*
Y39428*
X04826Y37904D02*
X06349D01*
X05841Y37397*
X06349Y36889*
X04826*
X06095Y35365D02*
X06349Y35619D01*
Y36127*
X06095Y36381*
X05841*
X05588Y36127*
Y35619*
X05334Y35365*
X0508*
X04826Y35619*
Y36127*
X0508Y36381*
X04826Y34857D02*
Y3435D01*
Y34603*
X06349*
X06095Y34857*
X04826Y33588D02*
Y3308D01*
Y33334*
X06349*
X06095Y33588*
X04826Y32318D02*
Y3181D01*
Y32064*
X06349*
X06095Y32318*
X06349Y31049D02*
Y30033D01*
X06095*
X0508Y31049*
X04826*
X12136Y55515D02*
X10613D01*
Y54754*
X10867Y545*
X11121*
X11374Y54754*
Y55515*
Y54754*
X11628Y545*
X11882*
X12136Y54754*
Y55515*
Y53992D02*
X10867D01*
X10613Y53738*
Y5323*
X10867Y52976*
X12136*
X11882Y51453D02*
X12136Y51707D01*
Y52214*
X11882Y52468*
X10867*
X10613Y52214*
Y51707*
X10867Y51453*
X12136Y50945D02*
X10613D01*
X11121*
X12136Y49929*
X11374Y50691*
X10613Y49929*
X11882Y49421D02*
X12136Y49167D01*
Y4866*
X11882Y48406*
X11628*
X11374Y4866*
Y48913*
Y4866*
X11121Y48406*
X10867*
X10613Y4866*
Y49167*
X10867Y49421*
X12136Y46882D02*
X11882Y4739D01*
X11374Y47898*
X10867*
X10613Y47644*
Y47136*
X10867Y46882*
X11121*
X11374Y47136*
Y47898*
X11882Y46374D02*
X12136Y4612D01*
Y45613*
X11882Y45359*
X10867*
X10613Y45613*
Y4612*
X10867Y46374*
X11882*
X21949Y26144D02*
X22203Y26398D01*
Y26906*
X21949Y2716*
X20934*
X2068Y26906*
Y26398*
X20934Y26144*
X22203Y24621D02*
X21949Y25129D01*
X21441Y25637*
X20934*
X2068Y25383*
Y24875*
X20934Y24621*
X21188*
X21441Y24875*
Y25637*
X19449Y26144D02*
X19703Y26398D01*
Y26906*
X19449Y2716*
X18434*
X1818Y26906*
Y26398*
X18434Y26144*
X19703Y24621D02*
Y25637D01*
X18941*
X19195Y25129*
Y24875*
X18941Y24621*
X18434*
X1818Y24875*
Y25383*
X18434Y25637*
X10016Y07449D02*
X09763Y07703D01*
X09255*
X09001Y07449*
Y06434*
X09255Y0618*
X09763*
X10016Y06434*
X10524Y0618D02*
X11032D01*
X10778*
Y07703*
X10524Y07449*
X16449Y26779D02*
X16703Y27033D01*
Y27541*
X16449Y27795*
X15434*
X1518Y27541*
Y27033*
X15434Y26779*
X1518Y26271D02*
Y25763D01*
Y26017*
X16703*
X16449Y26271*
Y25002D02*
X16703Y24748D01*
Y2424*
X16449Y23986*
X15434*
X1518Y2424*
Y24748*
X15434Y25002*
X16449*
X13949Y26144D02*
X14203Y26398D01*
Y26906*
X13949Y2716*
X12934*
X1268Y26906*
Y26398*
X12934Y26144*
Y25637D02*
X1268Y25383D01*
Y24875*
X12934Y24621*
X13949*
X14203Y24875*
Y25383*
X13949Y25637*
X13695*
X13441Y25383*
Y24621*
M02*