%FSTAX23Y23*%
%MOMM*%
%SFA1B1*%

%IPPOS*%
%ADD10C,0.200000*%
%ADD18R,0.699999X1.449997*%
%ADD20R,0.979998X0.919998*%
%ADD21R,1.449997X0.699999*%
%ADD62C,0.399999*%
%ADD65C,2.999994*%
%ADD66C,1.523997*%
%ADD67O,0.899998X1.799996*%
%ADD68C,3.799992*%
%ADD69O,2.999994X3.799992*%
%ADD70C,0.699999*%
%ADD71C,0.999998*%
%ADD72C,0.799998*%
%ADD73C,0.899998*%
%ADD74R,0.919998X0.979998*%
%ADD75R,0.899998X0.949998*%
%ADD76C,0.499999*%
%ADD77C,0.599999*%
%LNpcb1-1*%
%LPD*%
G36*
X34774Y59788D02*
X34788Y59774D01*
X34796Y59755*
Y59745*
Y00254*
Y00243*
X34788Y00225*
X34774Y00211*
X34755Y00203*
X02699*
X02674Y0033*
X02837Y00398*
X03115Y00584*
X03352Y00821*
X03538Y01099*
X03666Y01409*
X03731Y01737*
Y02072*
X03666Y024*
X03538Y0271*
X03352Y02988*
X03115Y03225*
X02837Y03411*
X02527Y03539*
X02199Y03604*
X01864*
X01536Y03539*
X01226Y03411*
X00948Y03225*
X00711Y02988*
X00525Y0271*
X00397Y024*
X00331Y02072*
Y01737*
X00397Y01409*
X00525Y01099*
X00711Y00821*
X00948Y00584*
X01226Y00398*
X01389Y0033*
X01364Y00203*
X00243*
X00225Y00211*
X00211Y00225*
X00203Y00243*
Y11517*
X0033Y11556*
X00401Y1145*
X03703Y08148*
X03868Y08037*
X04064Y07999*
X0642*
X06494Y07872*
X06434Y07729*
Y0751*
X06474Y07415*
X06365Y07305*
X05589*
Y07659*
X04209*
Y06339*
X05589*
Y06694*
X06491*
X06608Y06717*
X06708Y06783*
X06994Y07069*
X07094*
X07296Y07153*
X07451Y07308*
X07534Y0751*
Y07667*
X07661Y07719*
X08188Y07192*
Y06563*
X09488*
Y07913*
X08909*
X07954Y08869*
X07789Y08979*
X07593Y09018*
X04275*
X01271Y12022*
Y13409*
X01375Y13464*
X01398*
X02227*
Y14068*
Y14672*
X01398*
X01375*
X01271Y14727*
Y27474*
X01544Y27747*
X01616*
X01794Y27795*
X01953Y27887*
X02084Y28018*
X02176Y28177*
X02223Y28355*
Y2854*
X02176Y28718*
X02084Y28877*
X01953Y29008*
X01794Y291*
X01616Y29147*
X01431*
X01253Y291*
X01094Y29008*
X00963Y28877*
X00871Y28718*
X00823Y2854*
Y28468*
X00401Y28046*
X0033Y2794*
X00203Y27979*
Y59755*
X00211Y59774*
X00225Y59788*
X00243Y59796*
X3142*
X31446Y59669*
X31169Y59554*
X30881Y59362*
X30637Y59118*
X30445Y5883*
X30313Y58511*
X30245Y58172*
Y58126*
X33753*
Y58172*
X33686Y58511*
X33554Y5883*
X33362Y59118*
X33118Y59362*
X3283Y59554*
X32553Y59669*
X32579Y59796*
X34755*
X34774Y59788*
G37*
%LNpcb1-2*%
%LPC*%
G36*
X33753Y57872D02*
X32126D01*
Y56245*
X32172*
X32511Y56313*
X3283Y56445*
X33118Y56637*
X33362Y56881*
X33554Y57169*
X33686Y57488*
X33753Y57827*
Y57872*
G37*
G36*
X31872D02*
X30245D01*
Y57827*
X30313Y57488*
X30445Y57169*
X30637Y56881*
X30881Y56637*
X31169Y56445*
X31488Y56313*
X31827Y56245*
X31872*
Y57872*
G37*
G36*
X03886Y55961D02*
X03633D01*
X03388Y55896*
X03169Y55769*
X0299Y5559*
X02863Y55371*
X02797Y55126*
Y54873*
X02863Y54628*
X0299Y54409*
X03169Y5423*
X03388Y54103*
X03633Y54037*
X03886*
X04131Y54103*
X0435Y5423*
X04529Y54409*
X04656Y54628*
X04721Y54873*
Y55126*
X04656Y55371*
X04529Y5559*
X0435Y55769*
X04131Y55896*
X03886Y55961*
G37*
G36*
X28211Y54648D02*
X28125D01*
Y52621*
X30152*
Y52707*
X3007Y53123*
X29907Y53515*
X29672Y53868*
X29372Y54168*
X29019Y54403*
X28627Y54566*
X28211Y54648*
G37*
G36*
X27871D02*
X27786D01*
X2737Y54566*
X26978Y54403*
X26625Y54168*
X26325Y53868*
X2609Y53515*
X25927Y53123*
X25844Y52707*
Y52621*
X27871*
Y54648*
G37*
G36*
X30152Y52367D02*
X28125D01*
Y5034*
X28211*
X28627Y50423*
X29019Y50586*
X29372Y50821*
X29672Y51121*
X29907Y51474*
X3007Y51866*
X30152Y52282*
Y52367*
G37*
G36*
X27871D02*
X25844D01*
Y52282*
X25927Y51866*
X2609Y51474*
X26325Y51121*
X26625Y50821*
X26978Y50586*
X2737Y50423*
X27786Y5034*
X27871*
Y52367*
G37*
G36*
X25146Y56972D02*
X17907D01*
X17828Y56957*
X17762Y56913*
X17718Y56846*
X17703Y56769*
Y55337*
X17708Y5531*
X17709Y55284*
X17715Y55272*
X17718Y55258*
X17733Y55236*
X17745Y55212*
X17755Y55204*
X17762Y55192*
X17784Y55178*
X17804Y5516*
X17817Y55156*
X17828Y55148*
X17855Y55143*
X1788Y55134*
X18007Y55118*
X18036Y54999*
X18007Y54881*
X1788Y54865*
X17855Y54856*
X17828Y54851*
X17817Y54843*
X17804Y54839*
X17784Y54821*
X17762Y54807*
X17755Y54795*
X17745Y54787*
X17733Y54763*
X17718Y5474*
X17715Y54727*
X17709Y54715*
X17708Y54689*
X17703Y54662*
Y52197*
X17718Y52118*
X17762Y52052*
X19862Y49953*
Y46604*
X19735Y46551*
X19623Y46662*
X19392Y46796*
X19133Y46865*
X19126*
Y45849*
Y44833*
X19133*
X19392Y44903*
X19623Y45036*
X19735Y45148*
X19862Y45095*
Y34733*
X19877Y34655*
X19921Y34588*
X19934Y34435*
X13775Y28276*
X13676Y28127*
X13641Y27952*
Y26821*
X13638Y26786*
X13629Y26732*
X13618Y26693*
X13608Y26667*
X13603Y2666*
X13594Y26659*
X13409*
Y26461*
X13409Y26456*
X13409Y26452*
Y25339*
X14789*
Y26452*
X1479Y26456*
X14789Y26461*
Y26659*
X14605*
X14595Y2666*
X14591Y26667*
X14581Y26693*
X1457Y26732*
X14561Y26786*
X14558Y26821*
Y27762*
X19744Y32948*
X19862Y32899*
Y32639*
X19877Y3256*
X19921Y32494*
X19987Y3245*
X20066Y32435*
X23622*
X23699Y3245*
X23766Y32494*
X2529Y34018*
X25334Y34084*
X25349Y34163*
Y56769*
X25334Y56846*
X2529Y56913*
X25223Y56957*
X25146Y56972*
G37*
G36*
X18872Y46865D02*
X18866D01*
X18607Y46796*
X18376Y46662*
X18186Y46473*
X18053Y46242*
X17983Y45983*
Y45976*
X18872*
Y46865*
G37*
G36*
X03893D02*
X03886D01*
Y45976*
X04775*
Y45983*
X04706Y46242*
X04572Y46473*
X04383Y46662*
X04152Y46796*
X03893Y46865*
G37*
G36*
X03632D02*
X03626D01*
X03367Y46796*
X03136Y46662*
X02946Y46473*
X02813Y46242*
X02743Y45983*
Y45976*
X03632*
Y46865*
G37*
G36*
X28205Y49594D02*
X27792D01*
X27386Y49514*
X27004Y49355*
X2666Y49126*
X26367Y48833*
X26137Y48489*
X25979Y48107*
X25898Y47701*
Y47288*
X25979Y46882*
X26137Y465*
X26367Y46156*
X2666Y45863*
X27004Y45633*
X27386Y45475*
X27792Y45394*
X28205*
X28611Y45475*
X28993Y45633*
X29337Y45863*
X2963Y46156*
X29859Y465*
X30018Y46882*
X30099Y47288*
Y47701*
X30018Y48107*
X29859Y48489*
X2963Y48833*
X29337Y49126*
X28993Y49355*
X28611Y49514*
X28205Y49594*
G37*
G36*
X18872Y45722D02*
X17983D01*
Y45716*
X18053Y45457*
X18186Y45226*
X18376Y45036*
X18607Y44903*
X18866Y44833*
X18872*
Y45722*
G37*
G36*
X04775D02*
X03886D01*
Y44833*
X03893*
X04152Y44903*
X04383Y45036*
X04572Y45226*
X04706Y45457*
X04775Y45716*
Y45722*
G37*
G36*
X03632D02*
X02743D01*
Y45716*
X02813Y45457*
X02946Y45226*
X03136Y45036*
X03367Y44903*
X03626Y44833*
X03632*
Y45722*
G37*
G36*
X17369Y3843D02*
X17036Y38397D01*
X16715Y383*
X1642Y38142*
X16161Y37929*
X15949Y3767*
X15791Y37375*
X15694Y37055*
X15661Y36721*
Y35921*
X15694Y35588*
X15791Y35268*
X15949Y34972*
X16161Y34714*
X1642Y34501*
X16715Y34343*
X17036Y34246*
X17369Y34213*
X17702Y34246*
X18023Y34343*
X18318Y34501*
X18577Y34714*
X18789Y34972*
X18947Y35268*
X19044Y35588*
X19077Y35921*
Y36721*
X19044Y37055*
X18947Y37375*
X18789Y3767*
X18577Y37929*
X18318Y38142*
X18023Y383*
X17702Y38397*
X17369Y3843*
G37*
G36*
X12669D02*
X12336Y38397D01*
X12015Y383*
X1172Y38142*
X11461Y37929*
X11249Y3767*
X11091Y37375*
X10994Y37055*
X10961Y36721*
Y35921*
X10994Y35588*
X11091Y35268*
X11249Y34972*
X11461Y34714*
X1172Y34501*
X12015Y34343*
X12336Y34246*
X12669Y34213*
X13002Y34246*
X13323Y34343*
X13618Y34501*
X13877Y34714*
X14089Y34972*
X14247Y35268*
X14344Y35588*
X14377Y35921*
Y36721*
X14344Y37055*
X14247Y37375*
X14089Y3767*
X13877Y37929*
X13618Y38142*
X13323Y383*
X13002Y38397*
X12669Y3843*
G37*
G36*
X22469Y29033D02*
X2225D01*
X22048Y2895*
X21893Y28795*
X21809Y28593*
Y28374*
X21893Y28172*
X22048Y28017*
X2225Y27933*
X22469*
X22671Y28017*
X22826Y28172*
X22828Y28177*
X2329*
Y2766*
X2467*
Y2898*
X2329*
Y28789*
X22828*
X22826Y28795*
X22671Y2895*
X22469Y29033*
G37*
G36*
X05681Y29301D02*
X0551D01*
X05345Y29257*
X05196Y29172*
X05075Y2905*
X0499Y28902*
X04945Y28737*
Y28578*
X04898Y28531*
X0481Y28398*
X04782Y28259*
X04292*
Y26879*
X05612*
Y28001*
X05681*
X05846Y28046*
X05995Y28131*
X06116Y28252*
X06201Y284*
X06245Y28566*
Y28737*
X06201Y28902*
X06116Y2905*
X05995Y29172*
X05846Y29257*
X05681Y29301*
G37*
G36*
X24735Y26748D02*
X24118D01*
Y26162*
X24735*
Y26748*
G37*
G36*
X23864D02*
X23247D01*
Y26162*
X23864*
Y26748*
G37*
G36*
X21643Y26713D02*
X21026D01*
Y26126*
X21643*
Y26713*
G37*
G36*
X20772D02*
X20155D01*
Y26126*
X20772*
Y26713*
G37*
G36*
X2647Y2898D02*
X2509D01*
Y2766*
X25484*
Y26694*
X25101*
Y25477*
X24735*
Y25908*
X23991*
X23247*
Y25477*
X21643*
Y25872*
X20899*
X20155*
Y25477*
X19789*
Y26659*
X18409*
Y26425*
X18407Y26424*
X18381Y26416*
X18342Y2641*
X18316Y26407*
X16683*
X16657Y2641*
X16618Y26416*
X16592Y26424*
X16589Y26425*
Y26659*
X15209*
Y25339*
X15492*
Y22652*
X09625Y16785*
X09542*
X0934Y16701*
X09185Y16546*
X09101Y16344*
Y16125*
X09185Y15923*
X0934Y15769*
X09542Y15685*
X09761*
X09963Y15769*
X10118Y15923*
X10201Y16125*
Y16208*
X16188Y22194*
X16276Y22327*
X16307Y22483*
Y25339*
X16589*
Y25574*
X16592Y25575*
X16618Y25582*
X16657Y25589*
X16683Y25592*
X17028*
X17046Y2556*
X17067Y25465*
X16932Y2533*
X16848Y25128*
Y24909*
X16932Y24707*
X17049Y2459*
X17074Y24511*
X17049Y24431*
X16932Y24314*
X16848Y24112*
Y23893*
X16932Y23691*
X17087Y23536*
X17093Y23534*
Y21843*
X10541Y15291*
X08819*
X08281Y15829*
X08275Y15836*
X08263Y15852*
X08254Y15867*
X08247Y15881*
X08241Y15893*
X08238Y15904*
X08235Y15913*
X08234Y15923*
X08233Y15941*
X08232Y15944*
Y16545*
X07509*
X07489Y16645*
X07423Y16745*
X06614Y17553*
X06613Y17558*
X0661Y17573*
X06608Y17591*
X06604Y17648*
X06604Y17682*
X066Y17701*
Y17794*
X06517Y17996*
X06362Y18151*
X0616Y18234*
X05941*
X05739Y18151*
X05584Y17996*
X055Y17794*
Y17575*
X05584Y17373*
X05739Y17218*
X05941Y17134*
X06034*
X06053Y17131*
X06086Y1713*
X06144Y17127*
X06162Y17125*
X06177Y17122*
X06181Y17121*
X06639Y16663*
X06591Y16545*
X06382*
Y16174*
X03279*
Y16418*
X01429*
Y15318*
X03279*
Y15563*
X06382*
Y15445*
X07734*
X07737Y15445*
X07755Y15444*
X07764Y15443*
X07774Y1544*
X07785Y15437*
X07797Y15431*
X0781Y15424*
X07825Y15415*
X07842Y15402*
X07849Y15397*
X08342Y14904*
X08266Y14799*
X08168*
X07434*
Y14322*
X08286*
Y14674*
Y14779*
X08391Y14855*
X08476Y14769*
X08575Y14703*
X08692Y1468*
X09799*
X09847Y14562*
X0982Y14535*
X09736Y14333*
Y14114*
X0982Y13912*
X09975Y13757*
X10177Y13673*
X10396*
X10598Y13757*
X10656Y13816*
X21971*
X22127Y13847*
X22259Y13935*
X2534Y17016*
X26141*
Y18866*
X25954*
Y1902*
X25923Y19176*
X25835Y19308*
X25835*
X25734Y19409*
X25755Y19451*
X25775Y19482*
X25778Y19498*
X25788Y19516*
X26098*
Y21366*
X24998*
Y20331*
X24991Y20291*
X24991*
Y19835*
X24834Y1977*
X24679Y19615*
X24595Y19413*
Y19194*
X24679Y18992*
X24834Y18837*
X25036Y18753*
X25041*
Y17871*
X21802Y14631*
X10906*
X10867Y14758*
X10884Y14769*
X17615Y215*
X17681Y21599*
X17704Y21717*
Y23534*
X1771Y23536*
X17865Y23691*
X17948Y23893*
Y24112*
X17865Y24314*
X17748Y24431*
X17747Y24435*
X17797Y2456*
X27495*
X31164Y20891*
Y16828*
X31156Y16821*
X31072Y16619*
Y164*
X31156Y16198*
X31311Y16043*
X31513Y15959*
X31524*
X32688Y14795*
Y08445*
X31903Y07659*
X31209*
Y06339*
X32589*
Y07049*
X33471Y0793*
X3357Y08079*
X33605Y08255*
Y14986*
X3357Y15161*
X33471Y1531*
X32172Y16608*
Y16619*
X32089Y16821*
X32081Y16828*
Y21082*
X32046Y21257*
X31947Y21406*
X2801Y25343*
X27861Y25442*
X27686Y25477*
X27625*
X27616Y25493*
X27587Y25604*
X27718Y25735*
X27801Y25937*
Y26156*
X27718Y26358*
X27563Y26513*
X27361Y26597*
X27142*
X2694Y26513*
X26785Y26358*
X26783Y26353*
X26481*
Y26694*
X26096*
Y2766*
X2647*
Y2898*
G37*
G36*
X08255Y24036D02*
X07777D01*
Y23184*
X08255*
Y24036*
G37*
G36*
X07523D02*
X07046D01*
Y23184*
X07523*
Y24036*
G37*
G36*
X05612Y26459D02*
X04292D01*
Y25079*
X04647*
Y24384*
X0467Y24266*
X04736Y24167*
X05091Y23812*
X05072Y23743*
Y23572*
X05117Y23406*
X05202Y23258*
X05323Y23137*
X05472Y23052*
X05637Y23007*
X05808*
X05973Y23052*
X06122Y23137*
X06243Y23258*
X06328Y23406*
X06372Y23572*
Y23743*
X06328Y23908*
X06243Y24056*
X06122Y24177*
X05973Y24263*
X05808Y24307*
X05637*
X05498Y2427*
X05258Y2451*
Y25079*
X05612*
Y26459*
G37*
G36*
X08255Y2293D02*
X07777D01*
Y22078*
X08255*
Y2293*
G37*
G36*
X07523D02*
X07046D01*
Y22078*
X07523*
Y2293*
G37*
G36*
X08255Y21536D02*
X07777D01*
Y20684*
X08255*
Y21536*
G37*
G36*
X07523D02*
X07046D01*
Y20684*
X07523*
Y21536*
G37*
G36*
X27952Y2142D02*
X27475D01*
Y20568*
X27952*
Y2142*
G37*
G36*
X27221D02*
X26744D01*
Y20568*
X27221*
Y2142*
G37*
G36*
X08255Y2043D02*
X07777D01*
Y19578*
X08255*
Y2043*
G37*
G36*
X07523D02*
X07046D01*
Y19578*
X07523*
Y2043*
G37*
G36*
X27952Y20314D02*
X27475D01*
Y19462*
X27952*
Y20314*
G37*
G36*
X27221D02*
X26744D01*
Y19462*
X27221*
Y20314*
G37*
G36*
X1Y23982D02*
X089D01*
Y22132*
X08983*
Y21482*
X089*
Y19632*
X09352*
X09696Y19288*
X09778Y19091*
X09947Y18922*
X10167Y1883*
X10406*
X10626Y18922*
X10795Y19091*
X10886Y19311*
Y1955*
X10795Y1977*
X10626Y19939*
X10406Y2003*
X10251*
X1Y20281*
Y21482*
X09901*
Y22132*
X1*
Y23982*
G37*
G36*
X27995Y1892D02*
X27518D01*
Y18068*
X27995*
Y1892*
G37*
G36*
X27264D02*
X26787D01*
Y18068*
X27264*
Y1892*
G37*
G36*
X27995Y17814D02*
X27518D01*
Y16962*
X27995*
Y17814*
G37*
G36*
X27264D02*
X26787D01*
Y16962*
X27264*
Y17814*
G37*
G36*
X0718Y14799D02*
X06328D01*
Y14322*
X0718*
Y14799*
G37*
G36*
X02481Y14672D02*
Y14195D01*
X03333*
Y14672*
X02481*
G37*
G36*
X08286Y14068D02*
X07434D01*
Y13591*
X08286*
Y14068*
G37*
G36*
X0718D02*
X06328D01*
Y13591*
X0718*
Y14068*
G37*
G36*
X03333Y13941D02*
X02481D01*
Y13464*
X03333*
Y13941*
G37*
G36*
X18566Y10489D02*
X18347D01*
X18145Y10405*
X1799Y10251*
X17907Y10048*
Y0983*
X1799Y09627*
X18145Y09473*
X18347Y09389*
X18388*
X18446Y09379*
X18471Y09374*
X18517Y09362*
X18529Y09357*
X18531Y09357*
X1896Y08927*
X19059Y08861*
X19177Y08838*
X25259*
X2527Y08832*
X25282Y08825*
X25353Y08773*
X25379Y08751*
X25384Y08748*
X25424Y08709*
X25626Y08625*
X25845*
X26047Y08709*
X26202Y08864*
X26285Y09066*
Y09285*
X26202Y09487*
X26047Y09642*
X25845Y09725*
X25626*
X25424Y09642*
X25321Y09539*
X25311Y09531*
X25294Y09511*
X25269Y09487*
X25266Y09481*
X25253Y09467*
X25239Y09455*
X25232Y09449*
X19303*
X18996Y09756*
X18996Y09759*
X18996Y09772*
X18999Y0981*
X19007Y0983*
Y10048*
X18923Y10251*
X18768Y10405*
X18566Y10489*
G37*
G36*
X15222Y0855D02*
X15003D01*
X14801Y08467*
X14646Y08312*
X14562Y0811*
Y07891*
X14565Y07885*
X14224Y07544*
X12638*
Y07913*
X11338*
Y06563*
X12638*
Y06933*
X14351*
X14468Y06956*
X14567Y07022*
X14997Y07453*
X15003Y0745*
X15222*
X15424Y07534*
X15579Y07689*
X15662Y07891*
Y0811*
X15579Y08312*
X15424Y08467*
X15222Y0855*
G37*
G36*
X30789Y07659D02*
X29409D01*
Y07407*
X28324*
X28266Y07466*
X28064Y07549*
X27845*
X27643Y07466*
X27488Y07311*
X27404Y07109*
Y0689*
X27488Y06688*
X27643Y06533*
X27845Y06449*
X28064*
X28266Y06533*
X28324Y06592*
X29409*
Y06339*
X30789*
Y07659*
G37*
G36*
X03789D02*
X02409D01*
Y06772*
X0195Y06313*
X0176Y06391*
X01541*
X01339Y06308*
X01184Y06153*
X011Y05951*
Y05732*
X01184Y0553*
X01339Y05375*
X01541Y05291*
X0176*
X01962Y05375*
X02117Y0553*
X02185Y05695*
X02223Y05721*
X02842Y06339*
X03789*
Y07659*
G37*
G36*
X10289Y05159D02*
X08909D01*
Y0475*
X08596*
X08594Y04756*
X08439Y04911*
X08237Y04994*
X08018*
X07816Y04911*
X07661Y04756*
X07577Y04554*
Y04335*
X07661Y04133*
X07816Y03978*
X08018Y03894*
X08237*
X08439Y03978*
X08594Y04133*
X08596Y04139*
X08909*
Y03839*
X10289*
Y05159*
G37*
G36*
X26089D02*
X24709D01*
Y03839*
X26089*
Y04139*
X26455*
X26457Y04133*
X26612Y03978*
X26814Y03894*
X27033*
X27235Y03978*
X2739Y04133*
X27473Y04335*
Y04554*
X2739Y04756*
X27235Y04911*
X27033Y04994*
X26814*
X26612Y04911*
X26457Y04756*
X26455Y0475*
X26089*
Y05159*
G37*
G36*
X15857Y10582D02*
X15638D01*
X15436Y10499*
X15281Y10344*
X15197Y10142*
Y09923*
X15281Y09721*
X15436Y09566*
X15521Y09531*
X15534Y09465*
X156Y09366*
X20611Y04355*
X2071Y04289*
X20828Y04266*
X22909*
Y03839*
X24289*
Y05159*
X22909*
Y04877*
X20954*
X16162Y09669*
X16214Y09721*
X16297Y09923*
Y10142*
X16214Y10344*
X16059Y10499*
X15857Y10582*
G37*
G36*
X10269Y11217D02*
X1005D01*
X09848Y11134*
X09693Y10979*
X09609Y10777*
Y10558*
X09693Y10356*
X09848Y10201*
X09854Y10199*
Y07112*
X09877Y06994*
X09943Y06895*
X11094Y05745*
Y05159*
X10709*
Y03839*
X12089*
Y05159*
X11705*
Y05871*
X11682Y05989*
X11616Y06088*
X10465Y07238*
Y10199*
X10471Y10201*
X10626Y10356*
X10709Y10558*
Y10777*
X10626Y10979*
X10471Y11134*
X10269Y11217*
G37*
G36*
X2095Y02667D02*
Y01651D01*
X21534*
Y01973*
X21509Y02157*
X21438Y02328*
X21326Y02476*
X21178Y02588*
X21007Y02659*
X2095Y02667*
G37*
G36*
X14351D02*
Y01651D01*
X14934*
Y01973*
X14909Y02157*
X14838Y02328*
X14726Y02476*
X14578Y02588*
X14407Y02659*
X14351Y02667*
G37*
G36*
X20696D02*
X2064Y02659D01*
X20468Y02588*
X20321Y02476*
X20209Y02328*
X20138Y02157*
X20113Y01973*
Y01651*
X20696*
Y02667*
G37*
G36*
X14097D02*
X1404Y02659D01*
X13868Y02588*
X13721Y02476*
X13609Y02328*
X13538Y02157*
X13513Y01973*
Y01651*
X14097*
Y02667*
G37*
G36*
X21534Y01397D02*
X2095D01*
Y0038*
X21007Y00388*
X21178Y00459*
X21326Y00571*
X21438Y00718*
X21509Y0089*
X21534Y01073*
Y01397*
G37*
G36*
X14934D02*
X14351D01*
Y0038*
X14407Y00388*
X14578Y00459*
X14726Y00571*
X14838Y00718*
X14909Y0089*
X14934Y01073*
Y01397*
G37*
G36*
X20696D02*
X20113D01*
Y01073*
X20138Y0089*
X20209Y00718*
X20321Y00571*
X20468Y00459*
X2064Y00388*
X20696Y0038*
Y01397*
G37*
G36*
X14097D02*
X13513D01*
Y01073*
X13538Y0089*
X13609Y00718*
X13721Y00571*
X13868Y00459*
X1404Y00388*
X14097Y0038*
Y01397*
G37*
%LNpcb1-3*%
%LPD*%
G36*
X25146Y34163D02*
X23622Y32639D01*
X20066*
Y33269*
X21083Y34287*
X2111Y34309*
X21154Y3434*
X21194Y34362*
X21229Y34377*
X21234Y34379*
X21395Y34293*
X21725Y34193*
X21942Y34171*
Y36195*
X20307*
Y35921*
X2034Y35578*
X20441Y35247*
X20527Y35086*
X20525Y35081*
X2051Y35047*
X20487Y35007*
X20457Y34963*
X20435Y34936*
X20183Y34684*
X20066Y34733*
Y50038*
X17907Y52197*
Y54662*
X18034Y54679*
X18053Y54607*
X18186Y54376*
X18376Y54186*
X18607Y54053*
X18866Y53983*
X18872*
Y54999*
Y56015*
X18866*
X18607Y55946*
X18376Y55812*
X18186Y55623*
X18053Y55392*
X18034Y5532*
X17907Y55337*
Y56769*
X25146*
Y34163*
G37*
G36*
X21423Y34569D02*
X21373Y34585D01*
X21321Y34594*
X21268Y34594*
X21214Y34586*
X21159Y3457*
X21103Y34545*
X21045Y34512*
X20987Y34472*
X20927Y34422*
X20866Y34365*
X20513Y34719*
X2057Y3478*
X20619Y34839*
X2066Y34898*
X20693Y34955*
X20717Y35011*
X20733Y35067*
X20741Y35121*
X20741Y35173*
X20733Y35225*
X20716Y35276*
X21423Y34569*
G37*
G36*
X14352Y26841D02*
X14359Y2676D01*
X14371Y26689*
X14387Y26627*
X14409Y26575*
X14435Y26532*
X14466Y26499*
X14501Y26475*
X14541Y26461*
X14586Y26456*
X13613*
X13658Y26461*
X13698Y26475*
X13733Y26499*
X13764Y26532*
X1379Y26575*
X13812Y26627*
X13828Y26689*
X1384Y2676*
X13847Y26841*
X13849Y26931*
X14349*
X14352Y26841*
G37*
%LNpcb1-4*%
%LPC*%
G36*
X19133Y56015D02*
X19126D01*
Y55126*
X20015*
Y55133*
X19946Y55392*
X19812Y55623*
X19623Y55812*
X19392Y55946*
X19133Y56015*
G37*
G36*
X20015Y54872D02*
X19126D01*
Y53983*
X19133*
X19392Y54053*
X19623Y54186*
X19812Y54376*
X19946Y54607*
X20015Y54866*
Y54872*
G37*
G36*
X22196Y38471D02*
Y36449D01*
X23832*
Y36721*
X23798Y37065*
X23697Y37396*
X23534Y37701*
X23315Y37968*
X23048Y38187*
X22744Y3835*
X22413Y3845*
X22196Y38471*
G37*
G36*
X21942D02*
X21725Y3845D01*
X21395Y3835*
X2109Y38187*
X20823Y37968*
X20604Y37701*
X20441Y37396*
X2034Y37065*
X20307Y36721*
Y36449*
X21942*
Y38471*
G37*
G36*
X23832Y36195D02*
X22196D01*
Y34171*
X22413Y34193*
X22744Y34293*
X23048Y34456*
X23315Y34675*
X23534Y34942*
X23697Y35247*
X23798Y35578*
X23832Y35921*
Y36195*
G37*
%LNpcb1-5*%
%LPD*%
G36*
X18613Y25599D02*
X18609Y25637D01*
X18597Y25671*
X18578Y25701*
X18552Y25727*
X18517Y25749*
X18476Y25767*
X18426Y25781*
X18369Y25791*
X18305Y25797*
X18232Y25799*
Y26199*
X18305Y26201*
X18369Y26207*
X18426Y26217*
X18476Y26231*
X18517Y26249*
X18552Y26271*
X18578Y26297*
X18597Y26327*
X18609Y26361*
X18613Y26399*
Y25599*
G37*
G36*
X1639Y26361D02*
X16402Y26327D01*
X16421Y26297*
X16447Y26271*
X16481Y26249*
X16523Y26231*
X16573Y26217*
X1663Y26207*
X16694Y26201*
X16766Y26199*
Y25799*
X16694Y25797*
X1663Y25791*
X16573Y25781*
X16523Y25767*
X16481Y25749*
X16447Y25727*
X16421Y25701*
X16402Y25671*
X1639Y25637*
X16386Y25599*
Y26399*
X1639Y26361*
G37*
G36*
X064Y17642D02*
X06405Y17572D01*
X06408Y17542*
X06413Y17514*
X0642Y17489*
X06427Y17467*
X06436Y17448*
X06446Y17432*
X06457Y17419*
X06316Y17278*
X06303Y17289*
X06286Y17299*
X06267Y17307*
X06246Y17315*
X06221Y17321*
X06193Y17326*
X06163Y1733*
X06093Y17334*
X06054Y17334*
X064Y17681*
X064Y17642*
G37*
G36*
X07307Y16493D02*
X0731Y16461D01*
X07315Y16433*
X07322Y16409*
X0733Y16389*
X07341Y16372*
X07353Y16359*
X07368Y1635*
X07384Y16344*
X07402Y16342*
X07011*
X07029Y16344*
X07045Y1635*
X0706Y16359*
X07072Y16372*
X07083Y16389*
X07091Y16409*
X07098Y16433*
X07103Y16461*
X07105Y16493*
X07106Y16528*
X07306*
X07307Y16493*
G37*
G36*
X06586Y15668D02*
X06584Y15687D01*
X06578Y15704*
X06568Y15719*
X06555Y15732*
X06538Y15743*
X06517Y15752*
X06492Y15759*
X06464Y15764*
X06432Y15767*
X06395Y15768*
Y15968*
X06432Y15969*
X06464Y15972*
X06492Y15977*
X06517Y15984*
X06538Y15993*
X06555Y16004*
X06568Y16017*
X06578Y16032*
X06584Y16049*
X06586Y16068*
Y15668*
G37*
G36*
X03078Y16049D02*
X03084Y16032D01*
X03093Y16017*
X03107Y16004*
X03124Y15993*
X03145Y15984*
X03169Y15977*
X03198Y15972*
X0323Y15969*
X03266Y15968*
Y15768*
X0323Y15767*
X03198Y15764*
X03169Y15759*
X03145Y15752*
X03124Y15743*
X03107Y15732*
X03093Y15719*
X03084Y15704*
X03078Y15687*
X03076Y15668*
Y16068*
X03078Y16049*
G37*
G36*
X08031Y15903D02*
X08035Y15875D01*
X08041Y15847*
X08051Y15819*
X08063Y15792*
X08078Y15764*
X08095Y15737*
X08115Y1571*
X08138Y15683*
X08164Y15656*
X08022Y15514*
X07995Y1554*
X07968Y15563*
X07941Y15583*
X07914Y156*
X07886Y15615*
X07859Y15627*
X07831Y15636*
X07803Y15643*
X07775Y15647*
X07747Y15648*
X08029Y15931*
X08031Y15903*
G37*
G36*
X18797Y09845D02*
X18792Y09779D01*
X18792Y0975*
X18794Y09723*
X18798Y09699*
X18804Y09677*
X18812Y09658*
X18822Y09641*
X18834Y09628*
X18669Y09509*
X18657Y09519*
X18642Y09529*
X18623Y09539*
X18602Y09548*
X18577Y09557*
X18518Y09572*
X18484Y0958*
X18407Y09593*
X18802Y09882*
X18797Y09845*
G37*
G36*
X25509Y08909D02*
X25478Y08934D01*
X25395Y08995*
X2537Y0901*
X25347Y09022*
X25326Y09031*
X25306Y09038*
X25288Y09042*
X25271Y09043*
X25252Y09243*
X2527Y09245*
X25288Y0925*
X25308Y09257*
X25328Y09268*
X25349Y09282*
X2537Y09299*
X25392Y09318*
X25416Y09341*
X25464Y09397*
X25509Y08909*
G37*
G36*
X15109Y077D02*
X1508Y077D01*
X15026Y07696*
X15002Y07692*
X1498Y07687*
X1496Y07681*
X14941Y07674*
X14925Y07665*
X14911Y07656*
X14898Y07645*
X14757Y07786*
X14768Y07799*
X14777Y07813*
X14786Y07829*
X14793Y07848*
X14799Y07868*
X14804Y0789*
X14808Y07914*
X14811Y0794*
X14812Y07997*
X15109Y077*
G37*
G36*
X12437Y07419D02*
X12443Y07402D01*
X12452Y07387*
X12466Y07374*
X12483Y07363*
X12504Y07354*
X12528Y07347*
X12557Y07342*
X12589Y07339*
X12625Y07338*
Y07138*
X12589Y07137*
X12557Y07134*
X12528Y07129*
X12504Y07122*
X12483Y07113*
X12466Y07102*
X12452Y07089*
X12443Y07074*
X12437Y07057*
X12435Y07038*
Y07438*
X12437Y07419*
G37*
G54D10*
X0605Y17684D02*
X07206Y16528D01*
Y16096D02*
Y16528D01*
Y16096D02*
X07307Y15995D01*
X04953Y24384D02*
X05715Y23622D01*
X04953Y24384D02*
Y25769D01*
X25791Y26035D02*
X25804Y26047D01*
X27251*
X2579Y26394D02*
X25791Y26035D01*
X2579Y26394D02*
Y2796D01*
X25781Y28321D02*
X2579Y2796D01*
X2359Y28483D02*
X2398Y28321D01*
X22359Y28483D02*
X2359D01*
X06985Y07493D02*
Y0762D01*
X06491Y06999D02*
X06985Y07493D01*
X04899Y06999D02*
X06491D01*
X03069D02*
X03099D01*
X02007Y05937D02*
X03069Y06999D01*
X01746Y05937D02*
X02007D01*
X01651Y05842D02*
X01746Y05937D01*
X25454Y04445D02*
X26924D01*
X254Y04499D02*
X25454Y04445D01*
X20828Y04572D02*
X23599D01*
X15817Y09582D02*
Y09963D01*
Y09582D02*
X20828Y04572D01*
X15748Y10033D02*
X15817Y09963D01*
X08128Y04445D02*
X09544D01*
X09599Y04499*
X11399D02*
Y05871D01*
X11988Y07239D02*
X14351D01*
X15113Y08001*
X1016Y07112D02*
X11399Y05871D01*
X18457Y09863D02*
Y09939D01*
Y09863D02*
X19177Y09144D01*
X1016Y07112D02*
Y10668D01*
X19177Y09144D02*
X25781D01*
X07307Y15995D02*
X07682D01*
X08692Y14986*
X10668*
X17399Y21717*
Y24003*
X0718Y15868D02*
X07307Y15995D01*
X02354Y15868D02*
X0718D01*
G54D18*
X0765Y20557D03*
Y23057D03*
X27348Y20441D03*
X27391Y17941D03*
X0945Y23057D03*
X25548Y20441D03*
X25591Y17941D03*
X0945Y20557D03*
G54D20*
X20899Y25999D03*
X23991Y26035D03*
X2398Y28321D03*
X25781D03*
X25791Y26035D03*
X31899Y06999D03*
X30099D03*
X03099D03*
X04899D03*
X254Y04499D03*
X23599D03*
X09599D03*
X11399D03*
X14099Y25999D03*
X15899D03*
X19099D03*
G54D21*
X07307Y15995D03*
Y14195D03*
X02354Y14068D03*
Y15868D03*
G54D62*
X05595Y28651D02*
D01*
X05186Y28242D02*
X05595Y28651D01*
X05186Y27803D02*
Y28242D01*
X04953Y27569D02*
X05186Y27803D01*
X25547Y17957D02*
Y1902D01*
X25398Y19638D02*
Y20291D01*
X25548Y20441*
X25146Y19385D02*
X25398Y19638D01*
X25359Y19208D02*
X25547Y1902D01*
X25146Y19304D02*
Y19385D01*
X25547Y17957D02*
X25625Y17878D01*
X15899Y22483D02*
Y25999D01*
X09652Y16235D02*
X15899Y22483D01*
Y25999D02*
X19099D01*
X27954Y06999D02*
X30099D01*
X10287Y14224D02*
X21971D01*
X25625Y17878*
G54D65*
X31999Y57999D03*
X02032Y01905D03*
G54D66*
X18999Y45849D03*
X03759D03*
Y54999D03*
X18999D03*
G54D67*
X14224Y01524D03*
X20823D03*
G54D68*
X27998Y52494D03*
Y47494D03*
G54D69*
X12669Y36322D03*
X17369D03*
X22069D03*
G54D70*
X0605Y17684D03*
X30599Y55099D03*
Y51599D03*
Y41099D03*
Y23599D03*
Y20099D03*
Y13099D03*
Y09599D03*
Y02599D03*
X27099Y55099D03*
Y41099D03*
Y27099D03*
Y13099D03*
Y06099D03*
Y02599D03*
X23599Y30599D03*
Y27099D03*
Y02599D03*
X20099Y30599D03*
Y16599D03*
X16599Y55099D03*
Y51599D03*
Y48099D03*
Y44599D03*
Y16599D03*
X13099Y55099D03*
Y51599D03*
Y48099D03*
Y44599D03*
Y41099D03*
Y30599D03*
Y06099D03*
Y02599D03*
X09599Y41099D03*
Y37599D03*
Y30599D03*
Y27099D03*
Y02599D03*
X06099Y41099D03*
Y13099D03*
Y06099D03*
Y02599D03*
X02599Y51599D03*
Y48099D03*
Y41099D03*
Y27099D03*
Y23599D03*
Y20099D03*
Y13099D03*
X19431Y08255D03*
X09652Y16235D03*
X17399Y24003D03*
X25735Y09175D03*
X1016Y10668D03*
X10287Y14224D03*
X18457Y09939D03*
X15113Y08001D03*
X08128Y04445D03*
X15748Y10033D03*
X26924Y04445D03*
X31623Y1651D03*
X17399Y25019D03*
X01651Y05842D03*
X06985Y0762D03*
X27954Y06999D03*
X25146Y19304D03*
X22359Y28483D03*
X27251Y26047D03*
G54D71*
X01524Y28448D03*
G54D72*
X10287Y19431D03*
G54D73*
X05595Y28651D03*
X05722Y23657D03*
G54D74*
X04953Y27569D03*
Y25769D03*
G54D75*
X08838Y07239D03*
X11988D03*
G54D76*
X31857Y06927D02*
X32139Y07209D01*
X31623Y1651D02*
Y21082D01*
X17399Y25019D02*
X27686D01*
X31623Y21082*
X0945Y20182D02*
Y20557D01*
X10229Y19488D02*
X10287Y19431D01*
X10145Y19488D02*
X10229D01*
X0945Y20182D02*
X10145Y19488D01*
X09442Y20566D02*
Y23049D01*
X32139Y07247D02*
X33147Y08255D01*
X31819Y06927D02*
X31857D01*
X32139Y07209D02*
Y07247D01*
X33147Y08255D02*
Y14986D01*
X31623Y1651D02*
X33147Y14986D01*
X14099Y25999D02*
Y27952D01*
X22069Y35921*
Y36322*
G54D77*
X07593Y08509D02*
X08838Y07263D01*
X00762Y11811D02*
X04064Y08509D01*
X07593*
X08838Y07239D02*
Y07263D01*
X00762Y27686D02*
X01524Y28448D01*
X00762Y11811D02*
Y27686D01*
M02*