%FSTAX23Y23*%
%MOMM*%
%SFA1B1*%

%IPPOS*%
%ADD12C,0.200000*%
%ADD14C,0.127000*%
%ADD71C,0.100000*%
%ADD72C,0.050000*%
%LNpcb1-1*%
%LPD*%
G54D12*
X295Y42155D02*
D01*
X295Y42162*
X295Y42169*
X29498Y42176*
X29497Y42183*
X29494Y4219*
X29492Y42196*
X29489Y42202*
X29485Y42208*
X29481Y42214*
X29477Y4222*
X29472Y42225*
X29467Y4223*
X29462Y42234*
X29456Y42238*
X2945Y42242*
X29444Y42245*
X29438Y42248*
X29431Y42251*
X29425Y42253*
X29418Y42254*
X29411Y42255*
X29404Y42255*
X29397*
X2939Y42255*
X29383Y42254*
X29376Y42253*
X2937Y42251*
X29363Y42248*
X29357Y42245*
X2935Y42242*
X29345Y42238*
X29339Y42234*
X29334Y4223*
X29329Y42225*
X29324Y4222*
X2932Y42214*
X29316Y42208*
X29312Y42202*
X29309Y42196*
X29307Y4219*
X29304Y42183*
X29303Y42176*
X29301Y42169*
X29301Y42162*
X293Y42155*
X29301Y42149*
X29301Y42142*
X29303Y42135*
X29304Y42128*
X29307Y42121*
X29309Y42115*
X29312Y42109*
X29316Y42102*
X2932Y42097*
X29324Y42091*
X29329Y42086*
X29334Y42081*
X29339Y42077*
X29345Y42073*
X2935Y42069*
X29357Y42066*
X29363Y42063*
X2937Y4206*
X29376Y42058*
X29383Y42057*
X2939Y42056*
X29397Y42056*
X29404*
X29411Y42056*
X29418Y42057*
X29425Y42058*
X29431Y4206*
X29438Y42063*
X29444Y42066*
X2945Y42069*
X29456Y42073*
X29462Y42077*
X29467Y42081*
X29472Y42086*
X29477Y42091*
X29481Y42097*
X29485Y42102*
X29489Y42109*
X29492Y42115*
X29494Y42121*
X29497Y42128*
X29498Y42135*
X295Y42142*
X295Y42149*
X295Y42155*
X28359Y31011D02*
D01*
X28359Y31018*
X28359Y31025*
X28357Y31032*
X28356Y31039*
X28353Y31046*
X28351Y31052*
X28348Y31058*
X28344Y31064*
X2834Y3107*
X28336Y31076*
X28331Y31081*
X28326Y31086*
X28321Y3109*
X28315Y31094*
X28309Y31098*
X28303Y31101*
X28297Y31104*
X2829Y31107*
X28284Y31109*
X28277Y3111*
X2827Y31111*
X28263Y31111*
X28256*
X28249Y31111*
X28242Y3111*
X28235Y31109*
X28229Y31107*
X28222Y31104*
X28216Y31101*
X28209Y31098*
X28204Y31094*
X28198Y3109*
X28193Y31086*
X28188Y31081*
X28183Y31076*
X28179Y3107*
X28175Y31064*
X28171Y31058*
X28168Y31052*
X28166Y31046*
X28163Y31039*
X28162Y31032*
X2816Y31025*
X2816Y31018*
X28159Y31011*
X2816Y31005*
X2816Y30998*
X28162Y30991*
X28163Y30984*
X28166Y30977*
X28168Y30971*
X28171Y30965*
X28175Y30958*
X28179Y30953*
X28183Y30947*
X28188Y30942*
X28193Y30937*
X28198Y30933*
X28204Y30929*
X28209Y30925*
X28216Y30922*
X28222Y30919*
X28229Y30916*
X28235Y30914*
X28242Y30913*
X28249Y30912*
X28256Y30912*
X28263*
X2827Y30912*
X28277Y30913*
X28284Y30914*
X2829Y30916*
X28297Y30919*
X28303Y30922*
X28309Y30925*
X28315Y30929*
X28321Y30933*
X28326Y30937*
X28331Y30942*
X28336Y30947*
X2834Y30953*
X28344Y30958*
X28348Y30965*
X28351Y30971*
X28353Y30977*
X28356Y30984*
X28357Y30991*
X28359Y30998*
X28359Y31005*
X28359Y31011*
X2815Y42234D02*
D01*
X2815Y42241*
X2815Y42248*
X28148Y42255*
X28147Y42262*
X28144Y42269*
X28142Y42275*
X28139Y42281*
X28135Y42287*
X28131Y42293*
X28127Y42299*
X28122Y42304*
X28117Y42309*
X28112Y42313*
X28106Y42317*
X281Y42321*
X28094Y42324*
X28088Y42327*
X28081Y4233*
X28075Y42332*
X28068Y42333*
X28061Y42334*
X28054Y42334*
X28047*
X2804Y42334*
X28033Y42333*
X28026Y42332*
X2802Y4233*
X28013Y42327*
X28007Y42324*
X28Y42321*
X27995Y42317*
X27989Y42313*
X27984Y42309*
X27979Y42304*
X27974Y42299*
X2797Y42293*
X27966Y42287*
X27962Y42281*
X27959Y42275*
X27957Y42269*
X27954Y42262*
X27953Y42255*
X27951Y42248*
X27951Y42241*
X2795Y42234*
X27951Y42228*
X27951Y42221*
X27953Y42214*
X27954Y42207*
X27957Y422*
X27959Y42194*
X27962Y42188*
X27966Y42181*
X2797Y42176*
X27974Y4217*
X27979Y42165*
X27984Y4216*
X27989Y42156*
X27995Y42152*
X28Y42148*
X28007Y42145*
X28013Y42142*
X2802Y42139*
X28026Y42137*
X28033Y42136*
X2804Y42135*
X28047Y42135*
X28054*
X28061Y42135*
X28068Y42136*
X28075Y42137*
X28081Y42139*
X28088Y42142*
X28094Y42145*
X281Y42148*
X28106Y42152*
X28112Y42156*
X28117Y4216*
X28122Y42165*
X28127Y4217*
X28131Y42176*
X28135Y42181*
X28139Y42188*
X28142Y42194*
X28144Y422*
X28147Y42207*
X28148Y42214*
X2815Y42221*
X2815Y42228*
X2815Y42234*
X07977Y39119D02*
D01*
X07977Y39126*
X07977Y39133*
X07975Y3914*
X07974Y39147*
X07971Y39154*
X07969Y3916*
X07966Y39166*
X07962Y39172*
X07958Y39178*
X07954Y39184*
X07949Y39189*
X07944Y39194*
X07939Y39198*
X07933Y39202*
X07927Y39206*
X07921Y39209*
X07915Y39212*
X07908Y39215*
X07902Y39217*
X07895Y39218*
X07888Y39219*
X07881Y39219*
X07874*
X07867Y39219*
X0786Y39218*
X07853Y39217*
X07847Y39215*
X0784Y39212*
X07834Y39209*
X07827Y39206*
X07822Y39202*
X07816Y39198*
X07811Y39194*
X07806Y39189*
X07801Y39184*
X07797Y39178*
X07793Y39172*
X07789Y39166*
X07786Y3916*
X07784Y39154*
X07781Y39147*
X0778Y3914*
X07778Y39133*
X07778Y39126*
X07777Y39119*
X07778Y39113*
X07778Y39106*
X0778Y39099*
X07781Y39092*
X07784Y39085*
X07786Y39079*
X07789Y39073*
X07793Y39067*
X07797Y39061*
X07801Y39055*
X07806Y3905*
X07811Y39045*
X07816Y39041*
X07822Y39037*
X07827Y39033*
X07834Y3903*
X0784Y39027*
X07847Y39024*
X07853Y39022*
X0786Y39021*
X07867Y3902*
X07874Y3902*
X07881*
X07888Y3902*
X07895Y39021*
X07902Y39022*
X07908Y39024*
X07915Y39027*
X07921Y3903*
X07927Y39033*
X07933Y39037*
X07939Y39041*
X07944Y39045*
X07949Y3905*
X07954Y39055*
X07958Y39061*
X07962Y39067*
X07966Y39073*
X07969Y39079*
X07971Y39085*
X07974Y39092*
X07975Y39099*
X07977Y39106*
X07977Y39113*
X07977Y39119*
G54D14*
X06989Y25486D02*
X08289D01*
Y23486D02*
Y25486D01*
X06989Y23486D02*
X08289D01*
X06989D02*
Y25486D01*
X09148Y23486D02*
Y25486D01*
Y23486D02*
X10448D01*
Y25486*
X09148D02*
X10448D01*
X21126Y21384D02*
Y23384D01*
X19826D02*
X21126D01*
X19826Y21384D02*
Y23384D01*
Y21384D02*
X21126D01*
X23626D02*
Y23384D01*
X22326D02*
X23626D01*
X22326Y21384D02*
Y23384D01*
Y21384D02*
X23626D01*
X11307Y23486D02*
Y25486D01*
Y23486D02*
X12607D01*
Y25486*
X11307D02*
X12607D01*
X09017Y07591D02*
X11016D01*
Y06291D02*
Y07591D01*
X09017Y06291D02*
X11016D01*
X09017D02*
Y07591D01*
X341Y39655D02*
Y43655D01*
X312D02*
X341D01*
X312Y39655D02*
Y43655D01*
Y39655D02*
X341D01*
X06657Y14095D02*
Y16095D01*
Y14095D02*
X07957D01*
Y16095*
X06657D02*
X07957D01*
X01704Y13968D02*
Y15968D01*
Y13968D02*
X03004D01*
Y15968*
X01704D02*
X03004D01*
X10385Y33663D02*
Y35423D01*
X09425Y33663D02*
Y35423D01*
X10385*
X09425Y33663D02*
X10385D01*
X27749Y32496D02*
X30669D01*
Y33796*
X27749D02*
X30669D01*
X27749Y32496D02*
Y33796D01*
X25982Y06307D02*
Y07607D01*
X23982D02*
X25982D01*
X23982Y06307D02*
Y07607D01*
Y06307D02*
X25982D01*
X258Y40634D02*
X283D01*
X258Y36834D02*
Y40634D01*
Y36834D02*
X283D01*
Y40634*
X02227Y36276D02*
X08947D01*
X02227Y32556D02*
Y36276D01*
Y32556D02*
X08947D01*
Y36276*
X01495Y33536D02*
Y35296D01*
X00535Y33536D02*
Y35296D01*
X01495*
X00535Y33536D02*
X01495D01*
G54D71*
X20999Y13999D02*
Y20999D01*
X13999Y13999D02*
X20999D01*
X13999D02*
Y20999D01*
X20999*
X20499D02*
X20999Y20499D01*
G54D72*
X16995Y27601D02*
Y28397D01*
X169Y27601D02*
X18098D01*
X169Y28397D02*
X18098D01*
X18004Y27601D02*
Y28397D01*
X18098Y27601D02*
Y28397D01*
X169Y27601D02*
Y28397D01*
X18099Y27599D02*
Y28399D01*
X17999Y27599D02*
X18299D01*
Y28399*
X17999D02*
X18299D01*
X16699D02*
X16999D01*
X16899Y27599D02*
Y28398D01*
X16699Y27599D02*
Y28399D01*
Y27599D02*
X16999D01*
X16899Y28398D02*
X18099Y28399D01*
X16899Y276D02*
X18099Y27599D01*
X28495Y04101D02*
Y04897D01*
X284Y04101D02*
X29598D01*
X284Y04897D02*
X29598D01*
X29504Y04101D02*
Y04897D01*
X29598Y04101D02*
Y04897D01*
X284Y04101D02*
Y04897D01*
X29599Y04099D02*
Y04899D01*
X29499Y04099D02*
X29799D01*
Y04899*
X29499D02*
X29799D01*
X28199D02*
X28499D01*
X28399Y04099D02*
Y04898D01*
X28199Y04099D02*
Y04899D01*
Y04099D02*
X28499D01*
X28399Y04898D02*
X29599Y04899D01*
X28399Y041D02*
X29599Y04099D01*
X06504Y04101D02*
Y04897D01*
X054D02*
X06598D01*
X054Y04101D02*
X06598D01*
X05495D02*
Y04897D01*
X054Y04101D02*
Y04897D01*
X06598Y04101D02*
Y04897D01*
X05399Y04099D02*
Y04899D01*
X05199D02*
X05499D01*
X05199Y04099D02*
Y04899D01*
Y04099D02*
X05499D01*
X06499D02*
X06799D01*
X06599Y041D02*
Y04899D01*
X06799Y04099D02*
Y04899D01*
X06499D02*
X06799D01*
X05399Y04099D02*
X06599Y041D01*
X05399Y04899D02*
X06599Y04898D01*
M02*