%FSTAX23Y23*%
%MOMM*%
%SFA1B1*%

%IPPOS*%
%ADD20R,0.979998X0.919998*%
%ADD53C,1.499997*%
%ADD54R,1.499997X1.499997*%
%ADD55C,1.523997*%
%ADD56C,3.799992*%
%ADD57O,2.999994X3.799992*%
%ADD58C,3.599993*%
%ADD59R,1.499997X1.499997*%
%ADD63R,0.899998X0.949998*%
%ADD64R,1.449997X0.699999*%
%ADD65R,0.919998X0.979998*%
%LNpcb1-1*%
%LPD*%
G54D20*
X20899Y25999D03*
X23991Y26035D03*
X28298Y14605D03*
X15899Y25999D03*
X14099D03*
X19099D03*
X30099Y14605D03*
X09386Y28067D03*
X11186D03*
X31899Y06999D03*
X03099D03*
X2398Y28321D03*
X25781D03*
X25791Y26035D03*
X30099Y06999D03*
X04899D03*
X254Y04499D03*
X23599D03*
X09599D03*
X11399D03*
G54D53*
X23999Y01778D03*
X21459D03*
X18919D03*
X16379D03*
X13839D03*
X32893Y29845D03*
Y37465D03*
Y34925D03*
Y32385D03*
Y27305D03*
G54D54*
X11299Y01778D03*
G54D55*
X18999Y45849D03*
X03759D03*
X18999Y54999D03*
X03759D03*
G54D56*
X26922Y51897D03*
Y46897D03*
G54D57*
X22069Y36322D03*
X12669D03*
X17369D03*
G54D58*
X32499Y02499D03*
X02499D03*
X32004Y57785D03*
G54D59*
X32893Y24765D03*
G54D63*
X08838Y07239D03*
X11988D03*
G54D64*
X07307Y14195D03*
X02354Y14068D03*
X11957Y25386D03*
X22976Y21484D03*
X20476D03*
X09798Y25386D03*
X07639D03*
Y23586D03*
X09798D03*
X20476Y23284D03*
X22976D03*
X11957Y23586D03*
X07307Y15995D03*
X02354Y15868D03*
G54D65*
X04953Y27569D03*
Y25769D03*
M02*