%FSTAX23Y23*%
%MOMM*%
%SFA1B1*%

%IPPOS*%
%ADD34R,1.129998X1.069998*%
%ADD42C,1.649997*%
%ADD43R,1.649997X1.649997*%
%ADD44C,1.673997*%
%ADD45C,3.949992*%
%ADD46O,3.149994X3.949992*%
%ADD47C,3.749993*%
%ADD48R,1.649997X1.649997*%
%ADD63R,0.899998X0.949998*%
%ADD69R,1.599997X0.849998*%
%ADD70R,1.069998X1.129998*%
%LNpcb1-1*%
%LPD*%
G54D34*
X20899Y25999D03*
X23991Y26035D03*
X28298Y14605D03*
X15899Y25999D03*
X14099D03*
X19099D03*
X30099Y14605D03*
X09386Y28067D03*
X11186D03*
X31899Y06999D03*
X03099D03*
X2398Y28321D03*
X25781D03*
X25791Y26035D03*
X30099Y06999D03*
X04899D03*
X254Y04499D03*
X23599D03*
X09599D03*
X11399D03*
G54D42*
X23999Y01778D03*
X21459D03*
X18919D03*
X16379D03*
X13839D03*
X32893Y29845D03*
Y37465D03*
Y34925D03*
Y32385D03*
Y27305D03*
G54D43*
X11299Y01778D03*
G54D44*
X18999Y45849D03*
X03759D03*
X18999Y54999D03*
X03759D03*
G54D45*
X26922Y51897D03*
Y46897D03*
G54D46*
X22069Y36322D03*
X12669D03*
X17369D03*
G54D47*
X32499Y02499D03*
X02499D03*
X32004Y57785D03*
G54D48*
X32893Y24765D03*
G54D63*
X08838Y07239D03*
X11988D03*
G54D69*
X07307Y14195D03*
X02354Y14068D03*
X11957Y25386D03*
X22976Y21484D03*
X20476D03*
X09798Y25386D03*
X07639D03*
Y23586D03*
X09798D03*
X20476Y23284D03*
X22976D03*
X11957Y23586D03*
X07307Y15995D03*
X02354Y15868D03*
G54D70*
X04953Y27569D03*
Y25769D03*
M02*