%FSTAX23Y23*%
%MOMM*%
%SFA1B1*%

%IPPOS*%
%ADD10C,0.200000*%
%ADD11C,0.100000*%
%ADD14C,0.127000*%
%ADD77C,0.050000*%
%LNpcb1-1*%
%LPD*%
G54D10*
X28486Y24915D02*
D01*
X28486Y24922*
X28486Y24929*
X28484Y24936*
X28483Y24943*
X2848Y2495*
X28478Y24956*
X28475Y24962*
X28471Y24968*
X28467Y24974*
X28463Y2498*
X28458Y24985*
X28453Y2499*
X28448Y24994*
X28442Y24998*
X28436Y25002*
X2843Y25005*
X28424Y25008*
X28417Y25011*
X28411Y25013*
X28404Y25014*
X28397Y25015*
X2839Y25015*
X28383*
X28376Y25015*
X28369Y25014*
X28362Y25013*
X28356Y25011*
X28349Y25008*
X28343Y25005*
X28336Y25002*
X28331Y24998*
X28325Y24994*
X2832Y2499*
X28315Y24985*
X2831Y2498*
X28306Y24974*
X28302Y24968*
X28298Y24962*
X28295Y24956*
X28293Y2495*
X2829Y24943*
X28289Y24936*
X28287Y24929*
X28287Y24922*
X28286Y24915*
X28287Y24909*
X28287Y24902*
X28289Y24895*
X2829Y24888*
X28293Y24881*
X28295Y24875*
X28298Y24869*
X28302Y24862*
X28306Y24857*
X2831Y24851*
X28315Y24846*
X2832Y24841*
X28325Y24837*
X28331Y24833*
X28336Y24829*
X28343Y24826*
X28349Y24823*
X28356Y2482*
X28362Y24818*
X28369Y24817*
X28376Y24816*
X28383Y24816*
X2839*
X28397Y24816*
X28404Y24817*
X28411Y24818*
X28417Y2482*
X28424Y24823*
X2843Y24826*
X28436Y24829*
X28442Y24833*
X28448Y24837*
X28453Y24841*
X28458Y24846*
X28463Y24851*
X28467Y24857*
X28471Y24862*
X28475Y24869*
X28478Y24875*
X2848Y24881*
X28483Y24888*
X28484Y24895*
X28486Y24902*
X28486Y24909*
X28486Y24915*
X29099Y33499D02*
D01*
X29099Y33506*
X29099Y33513*
X29097Y3352*
X29096Y33527*
X29093Y33534*
X29091Y3354*
X29088Y33546*
X29084Y33552*
X2908Y33558*
X29076Y33564*
X29071Y33569*
X29066Y33574*
X29061Y33578*
X29055Y33582*
X29049Y33586*
X29043Y33589*
X29037Y33592*
X2903Y33595*
X29024Y33597*
X29017Y33598*
X2901Y33599*
X29003Y33599*
X28996*
X28989Y33599*
X28982Y33598*
X28975Y33597*
X28969Y33595*
X28962Y33592*
X28956Y33589*
X28949Y33586*
X28944Y33582*
X28938Y33578*
X28933Y33574*
X28928Y33569*
X28923Y33564*
X28919Y33558*
X28915Y33552*
X28911Y33546*
X28908Y3354*
X28906Y33534*
X28903Y33527*
X28902Y3352*
X289Y33513*
X289Y33506*
X28899Y33499*
X289Y33493*
X289Y33486*
X28902Y33479*
X28903Y33472*
X28906Y33465*
X28908Y33459*
X28911Y33453*
X28915Y33446*
X28919Y33441*
X28923Y33435*
X28928Y3343*
X28933Y33425*
X28938Y33421*
X28944Y33417*
X28949Y33413*
X28956Y3341*
X28962Y33407*
X28969Y33404*
X28975Y33402*
X28982Y33401*
X28989Y334*
X28996Y334*
X29003*
X2901Y334*
X29017Y33401*
X29024Y33402*
X2903Y33404*
X29037Y33407*
X29043Y3341*
X29049Y33413*
X29055Y33417*
X29061Y33421*
X29066Y33425*
X29071Y3343*
X29076Y33435*
X2908Y33441*
X29084Y33446*
X29088Y33453*
X29091Y33459*
X29093Y33465*
X29096Y33472*
X29097Y33479*
X29099Y33486*
X29099Y33493*
X29099Y33499*
X28099Y36499D02*
D01*
X28099Y36506*
X28099Y36513*
X28097Y3652*
X28096Y36527*
X28093Y36534*
X28091Y3654*
X28088Y36546*
X28084Y36552*
X2808Y36558*
X28076Y36564*
X28071Y36569*
X28066Y36574*
X28061Y36578*
X28055Y36582*
X28049Y36586*
X28043Y36589*
X28037Y36592*
X2803Y36595*
X28024Y36597*
X28017Y36598*
X2801Y36599*
X28003Y36599*
X27996*
X27989Y36599*
X27982Y36598*
X27975Y36597*
X27969Y36595*
X27962Y36592*
X27956Y36589*
X27949Y36586*
X27944Y36582*
X27938Y36578*
X27933Y36574*
X27928Y36569*
X27923Y36564*
X27919Y36558*
X27915Y36552*
X27911Y36546*
X27908Y3654*
X27906Y36534*
X27903Y36527*
X27902Y3652*
X279Y36513*
X279Y36506*
X27899Y36499*
X279Y36493*
X279Y36486*
X27902Y36479*
X27903Y36472*
X27906Y36465*
X27908Y36459*
X27911Y36453*
X27915Y36446*
X27919Y36441*
X27923Y36435*
X27928Y3643*
X27933Y36425*
X27938Y36421*
X27944Y36417*
X27949Y36413*
X27956Y3641*
X27962Y36407*
X27969Y36404*
X27975Y36402*
X27982Y36401*
X27989Y364*
X27996Y364*
X28003*
X2801Y364*
X28017Y36401*
X28024Y36402*
X2803Y36404*
X28037Y36407*
X28043Y3641*
X28049Y36413*
X28055Y36417*
X28061Y36421*
X28066Y36425*
X28071Y3643*
X28076Y36435*
X2808Y36441*
X28084Y36446*
X28088Y36453*
X28091Y36459*
X28093Y36465*
X28096Y36472*
X28097Y36479*
X28099Y36486*
X28099Y36493*
X28099Y36499*
X07977Y39119D02*
D01*
X07977Y39126*
X07977Y39133*
X07975Y3914*
X07974Y39147*
X07971Y39154*
X07969Y3916*
X07966Y39166*
X07962Y39172*
X07958Y39178*
X07954Y39184*
X07949Y39189*
X07944Y39194*
X07939Y39198*
X07933Y39202*
X07927Y39206*
X07921Y39209*
X07915Y39212*
X07908Y39215*
X07902Y39217*
X07895Y39218*
X07888Y39219*
X07881Y39219*
X07874*
X07867Y39219*
X0786Y39218*
X07853Y39217*
X07847Y39215*
X0784Y39212*
X07834Y39209*
X07827Y39206*
X07822Y39202*
X07816Y39198*
X07811Y39194*
X07806Y39189*
X07801Y39184*
X07797Y39178*
X07793Y39172*
X07789Y39166*
X07786Y3916*
X07784Y39154*
X07781Y39147*
X0778Y3914*
X07778Y39133*
X07778Y39126*
X07777Y39119*
X07778Y39113*
X07778Y39106*
X0778Y39099*
X07781Y39092*
X07784Y39085*
X07786Y39079*
X07789Y39073*
X07793Y39067*
X07797Y39061*
X07801Y39055*
X07806Y3905*
X07811Y39045*
X07816Y39041*
X07822Y39037*
X07827Y39033*
X07834Y3903*
X0784Y39027*
X07847Y39024*
X07853Y39022*
X0786Y39021*
X07867Y3902*
X07874Y3902*
X07881*
X07888Y3902*
X07895Y39021*
X07902Y39022*
X07908Y39024*
X07915Y39027*
X07921Y3903*
X07927Y39033*
X07933Y39037*
X07939Y39041*
X07944Y39045*
X07949Y3905*
X07954Y39055*
X07958Y39061*
X07962Y39067*
X07966Y39073*
X07969Y39079*
X07971Y39085*
X07974Y39092*
X07975Y39099*
X07977Y39106*
X07977Y39113*
X07977Y39119*
G54D11*
X15979Y06499D02*
Y07899D01*
X19019Y06499D02*
Y07899D01*
X15979Y06499D02*
X19019D01*
X15979Y07899D02*
X19019D01*
X22499Y11999D02*
Y21999D01*
X12499Y11999D02*
X22499D01*
X12499D02*
Y21999D01*
X22499*
X21999D02*
X22499Y21499D01*
X22273Y00223D02*
Y0063D01*
X22477*
X22544Y00562*
Y00427*
X22477Y00359*
X22273*
X22951Y00562D02*
X22883Y0063D01*
X22747*
X2268Y00562*
Y00291*
X22747Y00223*
X22883*
X22951Y00291*
X23086Y0063D02*
Y00223D01*
X23289*
X23357Y00291*
Y00359*
X23289Y00427*
X23086*
X23289*
X23357Y00494*
Y00562*
X23289Y0063*
X23086*
X24169D02*
X23899D01*
Y00223*
X24169*
X23899Y00427D02*
X24034D01*
X24305Y00223D02*
Y0063D01*
X24576Y00223*
Y0063*
X24711D02*
Y00223D01*
X24914*
X24982Y00291*
Y00562*
X24914Y0063*
X24711*
G54D14*
X20924Y-00673D02*
D01*
X20916Y-00707*
X20911Y-00741*
X20908Y-00775*
X20907Y-00809*
X20909Y-00843*
X20913Y-00877*
X2092Y-00911*
X20929Y-00944*
X2094Y-00977*
X20953Y-01008*
X20969Y-01039*
X20987Y-01068*
X21006Y-01096*
X21028Y-01123*
X21051Y-01148*
X21076Y-01171*
X21103Y-01193*
X21131Y-01212*
X2116Y-0123*
X21191Y-01246*
X21222Y-01259*
X21255Y-0127*
X21271Y-01275*
X21323Y-00575D02*
D01*
X21315Y-00594*
X21307Y-00614*
X21301Y-00634*
X21297Y-00654*
X21293Y-00674*
X21291Y-00695*
X21291Y-00716*
X21292Y-00736*
X21295Y-00757*
X21299Y-00777*
X21304Y-00797*
X21311Y-00817*
X21319Y-00836*
X21328Y-00855*
X21339Y-00872*
X21351Y-00889*
X21364Y-00906*
X21378Y-00921*
X21393Y-00935*
X2141Y-00948*
X21427Y-0096*
X21444Y-00971*
X21453Y-00975*
X13777Y-01225D02*
D01*
X13808Y-01216*
X13839Y-01206*
X13868Y-01193*
X13897Y-01179*
X13925Y-01162*
X13951Y-01144*
X13976Y-01123*
X13999Y-01101*
X14021Y-01078*
X14042Y-01053*
X1406Y-01027*
X14077Y-00999*
X14091Y-0097*
X14104Y-00941*
X14114Y-0091*
X14123Y-00879*
X14129Y-00848*
X14133Y-00816*
X14134Y-00784*
X14134Y-00751*
X14131Y-00719*
X14126Y-00688*
X14123Y-00672*
X13593Y-00975D02*
D01*
X13612Y-00965*
X13629Y-00954*
X13646Y-00942*
X13661Y-00928*
X13676Y-00913*
X1369Y-00898*
X13702Y-00881*
X13713Y-00864*
X13723Y-00846*
X13732Y-00827*
X1374Y-00807*
X13746Y-00787*
X1375Y-00767*
X13754Y-00747*
X13755Y-00726*
X13756Y-00705*
X13755Y-00685*
X13752Y-00664*
X13748Y-00644*
X13743Y-00624*
X13736Y-00604*
X13728Y-00585*
X13723Y-00575*
X10385Y33663D02*
Y35423D01*
X09425Y33663D02*
Y35423D01*
X10385*
X09425Y33663D02*
X10385D01*
X21323Y00073D02*
X23673D01*
X21273Y-01275D02*
X21453Y-00975D01*
X20723Y-01225D02*
Y-00675D01*
X14323Y-01225D02*
X20723D01*
X14323D02*
Y-00675D01*
X13593Y-00975D02*
X13773Y-01225D01*
X13723Y-00575D02*
Y04423D01*
Y-00625D02*
Y-00575D01*
Y-00625D02*
X21323D01*
Y00073*
Y04423*
X13723D02*
X21323D01*
X27876Y264D02*
X30796D01*
Y277*
X27876D02*
X30796D01*
X27876Y264D02*
Y277D01*
X25982Y06307D02*
Y07607D01*
X23982D02*
X25982D01*
X23982Y06307D02*
Y07607D01*
Y06307D02*
X25982D01*
X21407Y07516D02*
X22707D01*
Y09516*
X21407D02*
X22707D01*
X21407Y07516D02*
Y09516D01*
X27525Y17407D02*
Y18707D01*
X25525D02*
X27525D01*
X25525Y17407D02*
Y18707D01*
Y17407D02*
X27525D01*
X27482Y19907D02*
Y21207D01*
X25482D02*
X27482D01*
X25482Y19907D02*
Y21207D01*
Y19907D02*
X27482D01*
Y22407D02*
Y23707D01*
X25482D02*
X27482D01*
X25482Y22407D02*
Y23707D01*
Y22407D02*
X27482D01*
X07516Y19791D02*
Y21091D01*
Y19791D02*
X09516D01*
Y21091*
X07516D02*
X09516D01*
X07516Y22291D02*
Y23591D01*
Y22291D02*
X09516D01*
Y23591*
X07516D02*
X09516D01*
X30799Y30999D02*
X33699D01*
X30799D02*
Y34999D01*
X33699*
Y30999D02*
Y34999D01*
X25749Y34899D02*
X28249D01*
X25749Y31099D02*
Y34899D01*
Y31099D02*
X28249D01*
Y34899*
X02227Y36276D02*
X08947D01*
X02227Y32556D02*
Y36276D01*
Y32556D02*
X08947D01*
Y36276*
X06657Y16095D02*
X07957D01*
Y14095D02*
Y16095D01*
X06657Y14095D02*
X07957D01*
X06657D02*
Y16095D01*
X01704Y15968D02*
X03004D01*
Y13968D02*
Y15968D01*
X01704Y13968D02*
X03004D01*
X01704D02*
Y15968D01*
X20791Y2689D02*
X22091D01*
X20791Y2489D02*
Y2689D01*
Y2489D02*
X22091D01*
Y2689*
X18291D02*
X19591D01*
X18291Y2489D02*
Y2689D01*
Y2489D02*
X19591D01*
Y2689*
X09017Y06291D02*
Y07591D01*
Y06291D02*
X11016D01*
Y07591*
X09017D02*
X11016D01*
X01495Y33536D02*
Y35296D01*
X00535Y33536D02*
Y35296D01*
X01495*
X00535Y33536D02*
X01495D01*
X15291Y2689D02*
X16591D01*
X15291Y2489D02*
Y2689D01*
Y2489D02*
X16591D01*
Y2689*
X12791D02*
X14091D01*
X12791Y2489D02*
Y2689D01*
Y2489D02*
X14091D01*
Y2689*
X07516Y12291D02*
Y13591D01*
Y12291D02*
X09516D01*
Y13591*
X07516D02*
X09516D01*
G54D77*
X28495Y04101D02*
Y04897D01*
X284Y04101D02*
X29598D01*
X284Y04897D02*
X29598D01*
X29504Y04101D02*
Y04897D01*
X29598Y04101D02*
Y04897D01*
X284Y04101D02*
Y04897D01*
X29599Y04099D02*
Y04899D01*
X29499Y04099D02*
X29799D01*
Y04899*
X29499D02*
X29799D01*
X28199D02*
X28499D01*
X28399Y04099D02*
Y04898D01*
X28199Y04099D02*
Y04899D01*
Y04099D02*
X28499D01*
X28399Y04898D02*
X29599Y04899D01*
X28399Y041D02*
X29599Y04099D01*
X06504Y04101D02*
Y04897D01*
X054D02*
X06598D01*
X054Y04101D02*
X06598D01*
X05495D02*
Y04897D01*
X054Y04101D02*
Y04897D01*
X06598Y04101D02*
Y04897D01*
X05399Y04099D02*
Y04899D01*
X05199D02*
X05499D01*
X05199Y04099D02*
Y04899D01*
Y04099D02*
X05499D01*
X06499D02*
X06799D01*
X06599Y041D02*
Y04899D01*
X06799Y04099D02*
Y04899D01*
X06499D02*
X06799D01*
X05399Y04099D02*
X06599Y041D01*
X05399Y04899D02*
X06599Y04898D01*
M02*