%FSTAX23Y23*%
%MOMM*%
%SFA1B1*%

%IPPOS*%
%ADD60C,0.699999*%
%ADD61C,0.999998*%
%ADD62C,0.899998*%
%LNpcb1-1*%
%LPD*%
G54D60*
X27251Y26047D03*
X27954Y06999D03*
X26924Y04445D03*
X08128D03*
X1016Y10668D03*
X25735Y09175D03*
X01651Y05842D03*
X31623Y1651D03*
X127Y28067D03*
X13335Y11938D03*
X27432Y21463D03*
X33528Y22479D03*
X31877Y14605D03*
X13843Y23876D03*
X11049Y16129D03*
X0635Y17272D03*
X17543Y10752D03*
X15748Y10795D03*
X19177Y23241D03*
X19431Y08255D03*
X10795Y17272D03*
X08988Y1491D03*
X02599Y13099D03*
Y20099D03*
Y23599D03*
Y27099D03*
Y41099D03*
Y48099D03*
Y51599D03*
X06099Y02599D03*
Y06099D03*
Y13099D03*
Y41099D03*
X09599Y02599D03*
Y30599D03*
Y37599D03*
Y41099D03*
X13099Y13099D03*
Y30599D03*
Y41099D03*
Y44599D03*
Y48099D03*
Y51599D03*
Y55099D03*
X16599Y44599D03*
Y48099D03*
Y51599D03*
Y55099D03*
X20099Y02599D03*
Y16599D03*
Y20099D03*
Y27099D03*
Y30599D03*
X23599Y20099D03*
Y27099D03*
Y30599D03*
X27099Y02599D03*
Y06099D03*
Y16599D03*
Y34099D03*
Y55099D03*
X30599Y09599D03*
Y20099D03*
Y23599D03*
Y27099D03*
Y44599D03*
Y48099D03*
Y51599D03*
Y55099D03*
X09906Y12446D03*
X07074Y07069D03*
G54D61*
X01524Y28448D03*
G54D62*
X05722Y23657D03*
X05595Y28651D03*
M02*