%FSTAX23Y23*%
%MOMM*%
%SFA1B1*%

%IPPOS*%
%ADD11C,0.253999*%
%LNpcb1-1*%
%LPD*%
G54D11*
X068Y15349D02*
X06546Y15603D01*
Y16111*
X068Y16365*
X07815*
X08069Y16111*
Y15603*
X07815Y15349*
X06546Y14842D02*
Y13826D01*
X068*
X07815Y14842*
X08069*
X07662Y2255D02*
X07408Y22296D01*
X069*
X06646Y2255*
Y23565*
X069Y23819*
X07408*
X07662Y23565*
X0817Y23819D02*
X08677D01*
X08423*
Y22296*
X0817Y2255*
X09439D02*
X09693Y22296D01*
X10201*
X10455Y2255*
Y22804*
X10201Y23057*
X09947*
X10201*
X10455Y23311*
Y23565*
X10201Y23819*
X09693*
X09439Y23565*
X01847Y15222D02*
X01593Y15476D01*
Y15984*
X01847Y16238*
X02862*
X03116Y15984*
Y15476*
X02862Y15222*
X01847Y14715D02*
X01593Y14461D01*
Y13953*
X01847Y13699*
X02101*
X02354Y13953*
X02608Y13699*
X02862*
X03116Y13953*
Y14461*
X02862Y14715*
X02608*
X02354Y14461*
X02101Y14715*
X01847*
X02354Y14461D02*
Y13953D01*
X27083Y20949D02*
X27337Y21203D01*
X27845*
X28099Y20949*
Y19934*
X27845Y1968*
X27337*
X27083Y19934*
X26575Y1968D02*
X26068D01*
X26321*
Y21203*
X26575Y20949*
X25306Y1968D02*
X24798D01*
X25052*
Y21203*
X25306Y20949*
X23611Y29082D02*
Y27559D01*
X24373*
X24627Y27813*
Y28321*
X24373Y28574*
X23611*
X24119D02*
X24627Y29082D01*
X25134Y27813D02*
X25388Y27559D01*
X25896*
X2615Y27813*
Y28067*
X25896Y28321*
X2615Y28574*
Y28828*
X25896Y29082*
X25388*
X25134Y28828*
Y28574*
X25388Y28321*
X25134Y28067*
Y27813*
X25388Y28321D02*
X25896D01*
X04191Y24765D02*
X05714D01*
Y25527*
X0546Y25781*
X04953*
X04699Y25527*
Y24765*
Y25273D02*
X04191Y25781D01*
Y26289D02*
Y26797D01*
Y26543*
X05714*
X0546Y26289*
Y27558D02*
X05714Y27812D01*
Y2832*
X0546Y28574*
X04445*
X04191Y2832*
Y27812*
X04445Y27558*
X0546*
X23622Y26796D02*
Y25273D01*
X24384*
X24638Y25527*
Y26035*
X24384Y26288*
X23622*
X2413D02*
X24638Y26796D01*
X25145Y26542D02*
X25399Y26796D01*
X25907*
X26161Y26542*
Y25527*
X25907Y25273*
X25399*
X25145Y25527*
Y25781*
X25399Y26035*
X26161*
X2738Y18449D02*
X27634Y18703D01*
X28142*
X28396Y18449*
Y17434*
X28142Y1718*
X27634*
X2738Y17434*
X26872Y1718D02*
X26364D01*
X26618*
Y18703*
X26872Y18449*
X24587Y1718D02*
X25603D01*
X24587Y18195*
Y18449*
X24841Y18703*
X25349*
X25603Y18449*
X07662Y2005D02*
X07408Y19796D01*
X069*
X06646Y2005*
Y21065*
X069Y21319*
X07408*
X07662Y21065*
X0817Y21319D02*
X08677D01*
X08423*
Y19796*
X0817Y2005*
X09439Y19796D02*
X10455D01*
Y2005*
X09439Y21065*
Y21319*
X2973Y07761D02*
Y06238D01*
X30492*
X30746Y06492*
Y06999*
X30492Y07253*
X2973*
X30238D02*
X30746Y07761D01*
X32269Y06238D02*
X31253D01*
Y06999*
X31761Y06746*
X32015*
X32269Y06999*
Y07507*
X32015Y07761*
X31507*
X31253Y07507*
X05015Y06238D02*
Y07761D01*
X04253*
X03999Y07507*
Y06999*
X04253Y06746*
X05015*
X04507D02*
X03999Y06238D01*
X03492D02*
X02984D01*
X03238*
Y07761*
X03492Y07507*
X2323Y05261D02*
Y03738D01*
X23992*
X24246Y03992*
Y04499*
X23992Y04753*
X2323*
X23738D02*
X24246Y05261D01*
X25769Y03738D02*
X25261Y03992D01*
X24753Y04499*
Y05007*
X25007Y05261*
X25515*
X25769Y05007*
Y04753*
X25515Y04499*
X24753*
X11769Y03738D02*
Y05261D01*
X11007*
X10753Y05007*
Y04499*
X11007Y04246*
X11769*
X11261D02*
X10753Y03738D01*
X0923D02*
X10246D01*
X0923Y04753*
Y05007*
X09484Y05261*
X09992*
X10246Y05007*
X16269Y25238D02*
Y26761D01*
X15507*
X15253Y26507*
Y25999*
X15507Y25746*
X16269*
X15761D02*
X15253Y25238D01*
X14746Y26507D02*
X14492Y26761D01*
X13984*
X1373Y26507*
Y26253*
X13984Y25999*
X14238*
X13984*
X1373Y25746*
Y25492*
X13984Y25238*
X14492*
X14746Y25492*
X21269Y25238D02*
Y26761D01*
X20507*
X20253Y26507*
Y25999*
X20507Y25746*
X21269*
X20761D02*
X20253Y25238D01*
X18984D02*
Y26761D01*
X19746Y25999*
X1873*
M02*