%FSTAX23Y23*%
%MOMM*%
%SFA1B1*%

%IPPOS*%
%ADD12C,0.253999*%
%LNpcb1-1*%
%LPD*%
G54D12*
X1919Y02623D02*
X18682D01*
X18936*
Y01353*
X18682Y01099*
X18428*
X18175Y01353*
X19698Y01099D02*
X20206D01*
X19952*
Y02623*
X19698Y02369*
X05714Y25146D02*
X04191D01*
Y25908*
X04445Y26162*
X04953*
X05206Y25908*
Y25146*
Y25654D02*
X05714Y26162D01*
Y2667D02*
Y27178D01*
Y26924*
X04191*
X04445Y2667*
Y27939D02*
X04191Y28193D01*
Y28701*
X04445Y28955*
X0546*
X05714Y28701*
Y28193*
X0546Y27939*
X04445*
X2973Y06238D02*
Y07761D01*
X30492*
X30746Y07507*
Y06999*
X30492Y06746*
X2973*
X30238D02*
X30746Y06238D01*
X32269Y07761D02*
X31253D01*
Y06999*
X31761Y07253*
X32015*
X32269Y06999*
Y06492*
X32015Y06238*
X31507*
X31253Y06492*
X02984Y06238D02*
Y07761D01*
X03746*
X03999Y07507*
Y06999*
X03746Y06746*
X02984*
X03492D02*
X03999Y06238D01*
X04507D02*
X05015D01*
X04761*
Y07761*
X04507Y07507*
X11769Y05261D02*
Y03738D01*
X11007*
X10753Y03992*
Y04499*
X11007Y04753*
X11769*
X11261D02*
X10753Y05261D01*
X0923D02*
X10246D01*
X0923Y04246*
Y03992*
X09484Y03738*
X09992*
X10246Y03992*
X2323Y03738D02*
Y05261D01*
X23992*
X24246Y05007*
Y04499*
X23992Y04246*
X2323*
X23738D02*
X24246Y03738D01*
X25769Y05261D02*
X25261Y05007D01*
X24753Y04499*
Y03992*
X25007Y03738*
X25515*
X25769Y03992*
Y04246*
X25515Y04499*
X24753*
X25236Y0645D02*
X2549Y06196D01*
X25998*
X26252Y0645*
Y07465*
X25998Y07719*
X2549*
X25236Y07465*
X23713Y07719D02*
X24729D01*
X23713Y06704*
Y0645*
X23967Y06196*
X24475*
X24729Y0645*
X2155Y07628D02*
X21296Y07374D01*
Y06866*
X2155Y06612*
X22565*
X22819Y06866*
Y07374*
X22565Y07628*
X22819Y08136D02*
Y08643D01*
Y08389*
X21296*
X2155Y08136*
X21296Y10421D02*
Y09405D01*
X22057*
X21804Y09913*
Y10167*
X22057Y10421*
X22565*
X22819Y10167*
Y09659*
X22565Y09405*
X27951Y14097D02*
Y1562D01*
X28713*
X28967Y15366*
Y14859*
X28713Y14605*
X27951*
X28459D02*
X28967Y14097D01*
X29474Y1562D02*
X3049D01*
Y15366*
X29474Y14351*
Y14097*
X27414Y1755D02*
X27668Y17296D01*
X28176*
X2843Y1755*
Y18565*
X28176Y18819*
X27668*
X27414Y18565*
X26906Y18819D02*
X26398D01*
X26652*
Y17296*
X26906Y1755*
X24621Y18819D02*
X25637D01*
X24621Y17804*
Y1755*
X24875Y17296*
X25383*
X25637Y1755*
X23622Y25273D02*
Y26796D01*
X24384*
X24638Y26542*
Y26035*
X24384Y25781*
X23622*
X2413D02*
X24638Y25273D01*
X25145Y25527D02*
X25399Y25273D01*
X25907*
X26161Y25527*
Y26542*
X25907Y26796*
X25399*
X25145Y26542*
Y26288*
X25399Y26035*
X26161*
X23611Y27559D02*
Y29082D01*
X24373*
X24627Y28828*
Y28321*
X24373Y28067*
X23611*
X24119D02*
X24627Y27559D01*
X25134Y28828D02*
X25388Y29082D01*
X25896*
X2615Y28828*
Y28574*
X25896Y28321*
X2615Y28067*
Y27813*
X25896Y27559*
X25388*
X25134Y27813*
Y28067*
X25388Y28321*
X25134Y28574*
Y28828*
X25388Y28321D02*
X25896D01*
X27117Y2005D02*
X27371Y19796D01*
X27879*
X28133Y2005*
Y21065*
X27879Y21319*
X27371*
X27117Y21065*
X26609Y21319D02*
X26102D01*
X26355*
Y19796*
X26609Y2005*
X2534Y21319D02*
X24832D01*
X25086*
Y19796*
X2534Y2005*
X27371Y2255D02*
X27625Y22296D01*
X28133*
X28387Y2255*
Y23565*
X28133Y23819*
X27625*
X27371Y23565*
X26863Y23819D02*
X26355D01*
X26609*
Y22296*
X26863Y2255*
X24578Y22296D02*
X25086Y2255D01*
X25594Y23057*
Y23565*
X2534Y23819*
X24832*
X24578Y23565*
Y23311*
X24832Y23057*
X25594*
X07628Y20949D02*
X07374Y21203D01*
X06866*
X06612Y20949*
Y19934*
X06866Y1968*
X07374*
X07628Y19934*
X08136Y1968D02*
X08643D01*
X08389*
Y21203*
X08136Y20949*
X09405Y21203D02*
X10421D01*
Y20949*
X09405Y19934*
Y1968*
X07628Y23449D02*
X07374Y23703D01*
X06866*
X06612Y23449*
Y22434*
X06866Y2218*
X07374*
X07628Y22434*
X08136Y2218D02*
X08643D01*
X08389*
Y23703*
X08136Y23449*
X09405D02*
X09659Y23703D01*
X10167*
X10421Y23449*
Y23195*
X10167Y22941*
X09913*
X10167*
X10421Y22688*
Y22434*
X10167Y2218*
X09659*
X09405Y22434*
X04826Y39428D02*
X05841D01*
X06349Y3892*
X05841Y38412*
X04826*
X05588*
Y39428*
X04826Y37904D02*
X06349D01*
X05841Y37397*
X06349Y36889*
X04826*
X06095Y35365D02*
X06349Y35619D01*
Y36127*
X06095Y36381*
X05841*
X05588Y36127*
Y35619*
X05334Y35365*
X0508*
X04826Y35619*
Y36127*
X0508Y36381*
X04826Y34857D02*
Y3435D01*
Y34603*
X06349*
X06095Y34857*
X04826Y33588D02*
Y3308D01*
Y33334*
X06349*
X06095Y33588*
X04826Y32318D02*
Y3181D01*
Y32064*
X06349*
X06095Y32318*
X06349Y31049D02*
Y30033D01*
X06095*
X0508Y31049*
X04826*
X03484Y54136D02*
Y52613D01*
X04245*
X04499Y52867*
Y53121*
X04245Y53374*
X03484*
X04245*
X04499Y53628*
Y53882*
X04245Y54136*
X03484*
X05007D02*
Y52867D01*
X05261Y52613*
X05769*
X06023Y52867*
Y54136*
X07546Y53882D02*
X07292Y54136D01*
X06785*
X06531Y53882*
Y52867*
X06785Y52613*
X07292*
X07546Y52867*
X08054Y54136D02*
Y52613D01*
Y53121*
X0907Y54136*
X08308Y53374*
X0907Y52613*
X09578Y53882D02*
X09832Y54136D01*
X10339*
X10593Y53882*
Y53628*
X10339Y53374*
X10085*
X10339*
X10593Y53121*
Y52867*
X10339Y52613*
X09832*
X09578Y52867*
X12117Y54136D02*
X11609Y53882D01*
X11101Y53374*
Y52867*
X11355Y52613*
X11863*
X12117Y52867*
Y53121*
X11863Y53374*
X11101*
X12625Y53882D02*
X12879Y54136D01*
X13386*
X1364Y53882*
Y52867*
X13386Y52613*
X12879*
X12625Y52867*
Y53882*
X2324Y3556D02*
X23747D01*
X24001Y35814*
Y36829*
X23747Y37083*
X2324*
X22986Y36829*
Y35814*
X2324Y3556*
X21462D02*
X22478D01*
Y36322*
X2197*
X22478*
Y37083*
X19939Y3556D02*
X20954D01*
Y36322*
X20447*
X20954*
Y37083*
X12575Y3556D02*
X13083D01*
X13337Y35814*
Y36829*
X13083Y37083*
X12575*
X12321Y36829*
Y35814*
X12575Y3556*
X11813Y37083D02*
Y3556D01*
X10798Y37083*
Y3556*
X21949Y26144D02*
X22203Y26398D01*
Y26906*
X21949Y2716*
X20934*
X2068Y26906*
Y26398*
X20934Y26144*
X22203Y24621D02*
X21949Y25129D01*
X21441Y25637*
X20934*
X2068Y25383*
Y24875*
X20934Y24621*
X21188*
X21441Y24875*
Y25637*
X19449Y26144D02*
X19703Y26398D01*
Y26906*
X19449Y2716*
X18434*
X1818Y26906*
Y26398*
X18434Y26144*
X19703Y24621D02*
Y25637D01*
X18941*
X19195Y25129*
Y24875*
X18941Y24621*
X18434*
X1818Y24875*
Y25383*
X18434Y25637*
X10016Y07449D02*
X09763Y07703D01*
X09255*
X09001Y07449*
Y06434*
X09255Y0618*
X09763*
X10016Y06434*
X10524Y0618D02*
X11032D01*
X10778*
Y07703*
X10524Y07449*
X16449Y26779D02*
X16703Y27033D01*
Y27541*
X16449Y27795*
X15434*
X1518Y27541*
Y27033*
X15434Y26779*
X1518Y26271D02*
Y25763D01*
Y26017*
X16703*
X16449Y26271*
Y25002D02*
X16703Y24748D01*
Y2424*
X16449Y23986*
X15434*
X1518Y2424*
Y24748*
X15434Y25002*
X16449*
X13949Y26144D02*
X14203Y26398D01*
Y26906*
X13949Y2716*
X12934*
X1268Y26906*
Y26398*
X12934Y26144*
Y25637D02*
X1268Y25383D01*
Y24875*
X12934Y24621*
X13949*
X14203Y24875*
Y25383*
X13949Y25637*
X13695*
X13441Y25383*
Y24621*
X07628Y13449D02*
X07374Y13703D01*
X06866*
X06612Y13449*
Y12434*
X06866Y1218*
X07374*
X07628Y12434*
X08136Y1218D02*
X08643D01*
X08389*
Y13703*
X08136Y13449*
X10167Y1218D02*
Y13703D01*
X09405Y12941*
X10421*
M02*