%FSTAX23Y23*%
%MOMM*%
%SFA1B1*%

%IPPOS*%
%ADD10C,0.250000*%
%ADD11C,0.253999*%
%ADD12C,0.200000*%
%LNpcb1-1*%
%LPD*%
G54D10*
X07963Y07213D02*
D01*
X07963Y07222*
X07962Y07231*
X07961Y07239*
X07959Y07248*
X07956Y07256*
X07953Y07264*
X07949Y07272*
X07944Y0728*
X0794Y07287*
X07934Y07294*
X07928Y073*
X07922Y07306*
X07915Y07312*
X07908Y07317*
X07901Y07322*
X07893Y07326*
X07885Y07329*
X07877Y07332*
X07869Y07335*
X0786Y07337*
X07852Y07338*
X07843Y07338*
X07834*
X07825Y07338*
X07817Y07337*
X07808Y07335*
X078Y07332*
X07792Y07329*
X07784Y07326*
X07776Y07322*
X07769Y07317*
X07762Y07312*
X07755Y07306*
X07749Y073*
X07743Y07294*
X07737Y07287*
X07732Y0728*
X07728Y07272*
X07724Y07264*
X07721Y07256*
X07718Y07248*
X07716Y07239*
X07715Y07231*
X07714Y07222*
X07713Y07213*
X07714Y07205*
X07715Y07196*
X07716Y07187*
X07718Y07179*
X07721Y07171*
X07724Y07163*
X07728Y07155*
X07732Y07147*
X07737Y0714*
X07743Y07133*
X07749Y07127*
X07755Y07121*
X07762Y07115*
X07769Y0711*
X07776Y07105*
X07784Y07101*
X07792Y07098*
X078Y07095*
X07808Y07092*
X07817Y0709*
X07825Y07089*
X07834Y07089*
X07843*
X07852Y07089*
X0786Y0709*
X07869Y07092*
X07877Y07095*
X07885Y07098*
X07893Y07101*
X07901Y07105*
X07908Y0711*
X07915Y07115*
X07922Y07121*
X07928Y07127*
X07934Y07133*
X0794Y0714*
X07944Y07147*
X07949Y07155*
X07953Y07163*
X07956Y07171*
X07959Y07179*
X07961Y07187*
X07962Y07196*
X07963Y07205*
X07963Y07213*
G54D11*
X13124Y25076D02*
Y26922D01*
X16874Y25076D02*
Y26922D01*
X13124D02*
X16874D01*
X13124Y25076D02*
X16874D01*
X31073Y13681D02*
Y15527D01*
X27323Y13681D02*
Y15527D01*
Y13681D02*
X31073D01*
X27323Y15527D02*
X31073D01*
X08411Y28989D02*
X12161D01*
X08411Y27143D02*
X12161D01*
X08411D02*
Y28989D01*
X12161Y27143D02*
Y28989D01*
X23005Y29243D02*
X26755D01*
X23005Y27397D02*
X26755D01*
X23005D02*
Y29243D01*
X26755Y27397D02*
Y29243D01*
X04029Y28544D02*
X05875D01*
X04029Y24794D02*
X05875D01*
Y28544*
X04029Y24794D02*
Y28544D01*
X26766Y25111D02*
Y26957D01*
X23016Y25111D02*
Y26957D01*
Y25111D02*
X26766D01*
X23016Y26957D02*
X26766D01*
X32874Y06076D02*
Y07922D01*
X29124Y06076D02*
Y07922D01*
Y06076D02*
X32874D01*
X29124Y07922D02*
X32874D01*
X02124Y06076D02*
Y07922D01*
X05874Y06076D02*
Y07922D01*
X02124D02*
X05874D01*
X02124Y06076D02*
X05874D01*
X26374Y03576D02*
Y05422D01*
X22624Y03576D02*
Y05422D01*
Y03576D02*
X26374D01*
X22624Y05422D02*
X26374D01*
X08624Y03576D02*
Y05422D01*
X12374Y03576D02*
Y05422D01*
X08624D02*
X12374D01*
X08624Y03576D02*
X12374D01*
X18124Y25076D02*
X21874D01*
X18124Y26922D02*
X21874D01*
Y25076D02*
Y26922D01*
X18124Y25076D02*
Y26922D01*
X1441Y06375D02*
X13411D01*
Y06875*
X13577Y07041*
X14244*
X1441Y06875*
Y06375*
X14244Y07375D02*
X1441Y07541D01*
Y07874*
X14244Y08041*
X14077*
X13744Y07708*
X13577D02*
X13411D01*
X33782Y42291D02*
Y4299D01*
X33432*
X33315Y42874*
Y4264*
X33432Y42524*
X33782*
X33082Y42291D02*
X32848D01*
X32965*
Y4299*
X33082*
X32382Y42757D02*
X32149D01*
X32032Y4264*
Y42291*
X32382*
X32499Y42407*
X32382Y42524*
X32032*
X31332Y42757D02*
X31682D01*
X31799Y4264*
Y42407*
X31682Y42291*
X31332*
X30982Y42757D02*
X30749D01*
X30632Y4264*
Y42291*
X30982*
X31099Y42407*
X30982Y42524*
X30632*
X29233Y4299D02*
Y42291D01*
X29583*
X29699Y42407*
Y4264*
X29583Y42757*
X29233*
X2865Y42291D02*
X28883D01*
X29Y42407*
Y4264*
X28883Y42757*
X2865*
X28533Y4264*
Y42524*
X29*
X276Y4299D02*
Y42291D01*
X27134*
X269Y42757D02*
Y42407D01*
X26784Y42291*
X26434*
Y42757*
X26201Y42291D02*
X25967D01*
X26084*
Y42757*
X26201*
X25617D02*
X25151D01*
X25617Y42291*
X25151*
X24218Y4299D02*
Y42524D01*
X23985Y42291*
X23751Y42524*
Y4299*
X23168Y42291D02*
X23401D01*
X23518Y42407*
Y4264*
X23401Y42757*
X23168*
X23052Y4264*
Y42524*
X23518*
X22702Y42874D02*
Y42757D01*
X22818*
X22585*
X22702*
Y42407*
X22585Y42291*
X22119Y42874D02*
Y42757D01*
X22235*
X22002*
X22119*
Y42407*
X22002Y42291*
X21535D02*
X21302D01*
X21186Y42407*
Y4264*
X21302Y42757*
X21535*
X21652Y4264*
Y42407*
X21535Y42291*
X20952Y42757D02*
Y42291D01*
Y42524*
X20836Y4264*
X20719Y42757*
X20602*
X20136D02*
X19903D01*
X19786Y4264*
Y42291*
X20136*
X20252Y42407*
X20136Y42524*
X19786*
X19553Y42757D02*
X19086D01*
X19553Y42291*
X19086*
X18853Y42757D02*
X18386D01*
X18853Y42291*
X18386*
X18153D02*
X1792D01*
X18037*
Y42757*
X18153*
X1687Y4264D02*
X16404D01*
X15004Y42291D02*
X15471D01*
X15004Y42757*
Y42874*
X15121Y4299*
X15354*
X15471Y42874*
X14304Y4299D02*
X14538Y42874D01*
X14771Y4264*
Y42407*
X14654Y42291*
X14421*
X14304Y42407*
Y42524*
X14421Y4264*
X14771*
X14071Y42291D02*
Y42407D01*
X13954*
Y42291*
X14071*
X13021D02*
X13488D01*
X13021Y42757*
Y42874*
X13138Y4299*
X13371*
X13488Y42874*
X1021Y2987D02*
Y3087D01*
X0971*
X09544Y30703*
Y3037*
X0971Y30203*
X1021*
X09877D02*
X09544Y2987D01*
X09211Y3087D02*
X08544D01*
Y30703*
X09211Y30036*
Y2987*
X057Y29114D02*
Y29813D01*
X0535*
X05234Y29697*
Y29464*
X0535Y29347*
X057*
X05467D02*
X05234Y29114D01*
X05D02*
X04767D01*
X04884*
Y29813*
X05Y29697*
X04417D02*
X04301Y29813D01*
X04067*
X03951Y29697*
Y2923*
X04067Y29114*
X04301*
X04417Y2923*
Y29697*
X26793Y23907D02*
Y24606D01*
X26443*
X26326Y2449*
Y24257*
X26443Y2414*
X26793*
X26559D02*
X26326Y23907D01*
X26093D02*
X2586D01*
X25976*
Y24606*
X26093Y2449*
X2551Y23907D02*
X25276D01*
X25393*
Y24606*
X2551Y2449*
X26618Y29876D02*
Y30575D01*
X26268*
X26151Y30459*
Y30226*
X26268Y30109*
X26618*
X26384D02*
X26151Y29876D01*
X25918Y29992D02*
X25801Y29876D01*
X25568*
X25451Y29992*
Y30459*
X25568Y30575*
X25801*
X25918Y30459*
Y30342*
X25801Y30226*
X25451*
X32819Y14763D02*
Y15462D01*
X32469*
X32352Y15346*
Y15113*
X32469Y14996*
X32819*
X32585D02*
X32352Y14763D01*
X32119Y15346D02*
X32002Y15462D01*
X31769*
X31652Y15346*
Y15229*
X31769Y15113*
X31652Y14996*
Y14879*
X31769Y14763*
X32002*
X32119Y14879*
Y14996*
X32002Y15113*
X32119Y15229*
Y15346*
X32002Y15113D02*
X31769D01*
X22046Y03587D02*
Y04286D01*
X21696*
X21579Y0417*
Y03937*
X21696Y0382*
X22046*
X21812D02*
X21579Y03587D01*
X20879Y04286D02*
X21113Y0417D01*
X21346Y03937*
Y03703*
X21229Y03587*
X20996*
X20879Y03703*
Y0382*
X20996Y03937*
X21346*
X34492Y07173D02*
Y07872D01*
X34142*
X34025Y07756*
Y07522*
X34142Y07406*
X34492*
X34258D02*
X34025Y07173D01*
X33325Y07872D02*
X33792D01*
Y07522*
X33559Y07639*
X33442*
X33325Y07522*
Y07289*
X33442Y07173*
X33675*
X33792Y07289*
X19405Y27813D02*
Y28512D01*
X19055*
X18939Y28396*
Y28162*
X19055Y28046*
X19405*
X19172D02*
X18939Y27813D01*
X18355D02*
Y28512D01*
X18705Y28162*
X18239*
X14427Y27813D02*
Y28512D01*
X14077*
X1396Y28396*
Y28162*
X14077Y28046*
X14427*
X14193D02*
X1396Y27813D01*
X13727Y28396D02*
X1361Y28512D01*
X13377*
X1326Y28396*
Y28279*
X13377Y28162*
X13494*
X13377*
X1326Y28046*
Y27929*
X13377Y27813*
X1361*
X13727Y27929*
X14045Y03587D02*
Y04286D01*
X13695*
X13578Y0417*
Y03937*
X13695Y0382*
X14045*
X13811D02*
X13578Y03587D01*
X12878D02*
X13345D01*
X12878Y04053*
Y0417*
X12995Y04286*
X13228*
X13345Y0417*
X07323Y06254D02*
Y06953D01*
X06973*
X06856Y06837*
Y06604*
X06973Y06487*
X07323*
X0709D02*
X06856Y06254D01*
X06623D02*
X0639D01*
X06507*
Y06953*
X06623Y06837*
X12199Y21953D02*
X12315Y22069D01*
X12549*
X12665Y21953*
Y21486*
X12549Y2137*
X12315*
X12199Y21486*
X11966Y2137D02*
X11732D01*
X11849*
Y22069*
X11966Y21953*
X11382Y2137D02*
X11149D01*
X11266*
Y22069*
X11382Y21953*
X10156D02*
X10273Y22069D01*
X10506*
X10623Y21953*
Y21486*
X10506Y2137*
X10273*
X10156Y21486*
X09923Y2137D02*
X0969D01*
X09806*
Y22069*
X09923Y21953*
X0934D02*
X09223Y22069D01*
X0899*
X08873Y21953*
Y21486*
X0899Y2137*
X09223*
X0934Y21486*
Y21953*
X07706D02*
X07822Y22069D01*
X08056*
X08172Y21953*
Y21486*
X08056Y2137*
X07822*
X07706Y21486*
X07473D02*
X07356Y2137D01*
X07123*
X07006Y21486*
Y21953*
X07123Y22069*
X07356*
X07473Y21953*
Y21836*
X07356Y2172*
X07006*
X02276Y18083D02*
X02393Y182D01*
X02626*
X02743Y18083*
Y17617*
X02626Y175*
X02393*
X02276Y17617*
X02043Y18083D02*
X01926Y182D01*
X01693*
X01576Y18083*
Y17967*
X01693Y1785*
X01576Y17733*
Y17617*
X01693Y175*
X01926*
X02043Y17617*
Y17733*
X01926Y1785*
X02043Y17967*
Y18083*
X01926Y1785D02*
X01693D01*
X07229Y1821D02*
X07346Y18327D01*
X07579*
X07696Y1821*
Y17744*
X07579Y17627*
X07346*
X07229Y17744*
X06996Y18327D02*
X06529D01*
Y1821*
X06996Y17744*
Y17627*
X2323Y20172D02*
X23347Y20288D01*
X2358*
X23697Y20172*
Y19705*
X2358Y19589*
X23347*
X2323Y19705*
X2253Y20288D02*
X22764Y20172D01*
X22997Y19939*
Y19705*
X2288Y19589*
X22647*
X2253Y19705*
Y19822*
X22647Y19939*
X22997*
X20563Y20172D02*
X2068Y20288D01*
X20913*
X2103Y20172*
Y19705*
X20913Y19589*
X2068*
X20563Y19705*
X19863Y20288D02*
X2033D01*
Y19939*
X20097Y20055*
X1998*
X19863Y19939*
Y19705*
X1998Y19589*
X20213*
X2033Y19705*
G54D12*
X09663Y06388D02*
X11163D01*
X09663Y08088D02*
X11163D01*
M02*