%FSTAX23Y23*%
%MOMM*%
%SFA1B1*%

%IPPOS*%
%ADD14C,0.127000*%
%ADD75C,0.169300*%
%ADD76C,0.101600*%
%LNpcb1-1*%
%LPD*%
G54D14*
X23491Y0127D02*
Y02286D01*
X24507*
Y0127*
X23491*
X23695Y01473D02*
Y02082D01*
X24304*
Y01473*
X23695*
X20951Y0127D02*
Y02286D01*
X21967*
Y0127*
X20951*
X21155Y01473D02*
Y02082D01*
X21764*
Y01473*
X21155*
X18411Y0127D02*
Y02286D01*
X19427*
Y0127*
X18411*
X18615Y01473D02*
Y02082D01*
X19224*
Y01473*
X18615*
X15871Y0127D02*
Y02286D01*
X16887*
Y0127*
X15871*
X16075Y01473D02*
Y02082D01*
X16684*
Y01473*
X16075*
X13331Y0127D02*
Y02286D01*
X14347*
Y0127*
X13331*
X13535Y01473D02*
Y02082D01*
X14144*
Y01473*
X13535*
X10791Y0127D02*
Y02286D01*
X11807*
Y0127*
X10791*
X10995Y01473D02*
Y02082D01*
X11604*
Y01473*
X10995*
X18491Y45341D02*
Y46357D01*
X19507*
Y45341*
X18491*
X03251D02*
Y46357D01*
X04267*
Y45341*
X03251*
X32385Y29337D02*
Y30353D01*
X33401*
Y29337*
X32385*
X32588Y2954D02*
Y30149D01*
X33197*
Y2954*
X32588*
X18491Y54491D02*
Y55507D01*
X19507*
Y54491*
X18491*
X22069Y35814D02*
X22323Y36068D01*
X22577*
X22323Y36322*
X22577Y36576*
X22323*
X22069Y3683*
X21815Y36576*
X21561*
X21815Y36322*
X21561Y36068*
X21815*
X22069Y35814*
X32385Y36957D02*
Y37973D01*
X33401*
Y36957*
X32385*
X32588Y3716D02*
Y37769D01*
X33197*
Y3716*
X32588*
X32385Y34417D02*
Y35433D01*
X33401*
Y34417*
X32385*
X32588Y3462D02*
Y35229D01*
X33197*
Y3462*
X32588*
X32385Y31877D02*
Y32893D01*
X33401*
Y31877*
X32385*
X32588Y3208D02*
Y32689D01*
X33197*
Y3208*
X32588*
X32385Y26797D02*
Y27813D01*
X33401*
Y26797*
X32385*
X32588Y27D02*
Y27609D01*
X33197*
Y27*
X32588*
X32385Y24257D02*
Y25273D01*
X33401*
Y24257*
X32385*
X32588Y2446D02*
Y25069D01*
X33197*
Y2446*
X32588*
X12669Y35814D02*
X12923Y36068D01*
X13177*
X12923Y36322*
X13177Y36576*
X12923*
X12669Y3683*
X12415Y36576*
X12161*
X12415Y36322*
X12161Y36068*
X12415*
X12669Y35814*
X17369D02*
X17623Y36068D01*
X17877*
X17623Y36322*
X17877Y36576*
X17623*
X17369Y3683*
X17115Y36576*
X16861*
X17115Y36322*
X16861Y36068*
X17115*
X17369Y35814*
X03251Y54491D02*
Y55507D01*
X04267*
Y54491*
X03251*
X0682Y06815D02*
Y06561D01*
X07328*
Y06815*
X07582*
Y07323*
X07328*
Y07577*
X0682*
Y07323*
X06566*
Y06815*
X0682*
X09652Y12192D02*
Y11938D01*
X1016*
Y12192*
X10414*
Y127*
X1016*
Y12954*
X09652*
Y127*
X09398*
Y12192*
X09652*
X30345Y54845D02*
Y54591D01*
X30853*
Y54845*
X31107*
Y55353*
X30853*
Y55607*
X30345*
Y55353*
X30091*
Y54845*
X30345*
Y51345D02*
Y51091D01*
X30853*
Y51345*
X31107*
Y51853*
X30853*
Y52107*
X30345*
Y51853*
X30091*
Y51345*
X30345*
Y47845D02*
Y47591D01*
X30853*
Y47845*
X31107*
Y48353*
X30853*
Y48607*
X30345*
Y48353*
X30091*
Y47845*
X30345*
Y44345D02*
Y44091D01*
X30853*
Y44345*
X31107*
Y44853*
X30853*
Y45107*
X30345*
Y44853*
X30091*
Y44345*
X30345*
Y26845D02*
Y26591D01*
X30853*
Y26845*
X31107*
Y27353*
X30853*
Y27607*
X30345*
Y27353*
X30091*
Y26845*
X30345*
Y23345D02*
Y23091D01*
X30853*
Y23345*
X31107*
Y23853*
X30853*
Y24107*
X30345*
Y23853*
X30091*
Y23345*
X30345*
Y19845D02*
Y19591D01*
X30853*
Y19845*
X31107*
Y20353*
X30853*
Y20607*
X30345*
Y20353*
X30091*
Y19845*
X30345*
Y09345D02*
Y09091D01*
X30853*
Y09345*
X31107*
Y09853*
X30853*
Y10107*
X30345*
Y09853*
X30091*
Y09345*
X30345*
X26845Y54845D02*
Y54591D01*
X27353*
Y54845*
X27607*
Y55353*
X27353*
Y55607*
X26845*
Y55353*
X26591*
Y54845*
X26845*
Y33845D02*
Y33591D01*
X27353*
Y33845*
X27607*
Y34353*
X27353*
Y34607*
X26845*
Y34353*
X26591*
Y33845*
X26845*
Y16345D02*
Y16091D01*
X27353*
Y16345*
X27607*
Y16853*
X27353*
Y17107*
X26845*
Y16853*
X26591*
Y16345*
X26845*
Y05845D02*
Y05591D01*
X27353*
Y05845*
X27607*
Y06353*
X27353*
Y06607*
X26845*
Y06353*
X26591*
Y05845*
X26845*
Y02345D02*
Y02091D01*
X27353*
Y02345*
X27607*
Y02853*
X27353*
Y03107*
X26845*
Y02853*
X26591*
Y02345*
X26845*
X23345Y30345D02*
Y30091D01*
X23853*
Y30345*
X24107*
Y30853*
X23853*
Y31107*
X23345*
Y30853*
X23091*
Y30345*
X23345*
Y26845D02*
Y26591D01*
X23853*
Y26845*
X24107*
Y27353*
X23853*
Y27607*
X23345*
Y27353*
X23091*
Y26845*
X23345*
Y19845D02*
Y19591D01*
X23853*
Y19845*
X24107*
Y20353*
X23853*
Y20607*
X23345*
Y20353*
X23091*
Y19845*
X23345*
X19845Y30345D02*
Y30091D01*
X20353*
Y30345*
X20607*
Y30853*
X20353*
Y31107*
X19845*
Y30853*
X19591*
Y30345*
X19845*
Y26845D02*
Y26591D01*
X20353*
Y26845*
X20607*
Y27353*
X20353*
Y27607*
X19845*
Y27353*
X19591*
Y26845*
X19845*
Y19845D02*
Y19591D01*
X20353*
Y19845*
X20607*
Y20353*
X20353*
Y20607*
X19845*
Y20353*
X19591*
Y19845*
X19845*
Y16345D02*
Y16091D01*
X20353*
Y16345*
X20607*
Y16853*
X20353*
Y17107*
X19845*
Y16853*
X19591*
Y16345*
X19845*
Y02345D02*
Y02091D01*
X20353*
Y02345*
X20607*
Y02853*
X20353*
Y03107*
X19845*
Y02853*
X19591*
Y02345*
X19845*
X16345Y54845D02*
Y54591D01*
X16853*
Y54845*
X17107*
Y55353*
X16853*
Y55607*
X16345*
Y55353*
X16091*
Y54845*
X16345*
Y51345D02*
Y51091D01*
X16853*
Y51345*
X17107*
Y51853*
X16853*
Y52107*
X16345*
Y51853*
X16091*
Y51345*
X16345*
Y47845D02*
Y47591D01*
X16853*
Y47845*
X17107*
Y48353*
X16853*
Y48607*
X16345*
Y48353*
X16091*
Y47845*
X16345*
Y44345D02*
Y44091D01*
X16853*
Y44345*
X17107*
Y44853*
X16853*
Y45107*
X16345*
Y44853*
X16091*
Y44345*
X16345*
X12845Y54845D02*
Y54591D01*
X13353*
Y54845*
X13607*
Y55353*
X13353*
Y55607*
X12845*
Y55353*
X12591*
Y54845*
X12845*
Y51345D02*
Y51091D01*
X13353*
Y51345*
X13607*
Y51853*
X13353*
Y52107*
X12845*
Y51853*
X12591*
Y51345*
X12845*
Y47845D02*
Y47591D01*
X13353*
Y47845*
X13607*
Y48353*
X13353*
Y48607*
X12845*
Y48353*
X12591*
Y47845*
X12845*
Y44345D02*
Y44091D01*
X13353*
Y44345*
X13607*
Y44853*
X13353*
Y45107*
X12845*
Y44853*
X12591*
Y44345*
X12845*
Y40845D02*
Y40591D01*
X13353*
Y40845*
X13607*
Y41353*
X13353*
Y41607*
X12845*
Y41353*
X12591*
Y40845*
X12845*
Y30345D02*
Y30091D01*
X13353*
Y30345*
X13607*
Y30853*
X13353*
Y31107*
X12845*
Y30853*
X12591*
Y30345*
X12845*
Y12845D02*
Y12591D01*
X13353*
Y12845*
X13607*
Y13353*
X13353*
Y13607*
X12845*
Y13353*
X12591*
Y12845*
X12845*
X09345Y40845D02*
Y40591D01*
X09853*
Y40845*
X10107*
Y41353*
X09853*
Y41607*
X09345*
Y41353*
X09091*
Y40845*
X09345*
Y37345D02*
Y37091D01*
X09853*
Y37345*
X10107*
Y37853*
X09853*
Y38107*
X09345*
Y37853*
X09091*
Y37345*
X09345*
Y30345D02*
Y30091D01*
X09853*
Y30345*
X10107*
Y30853*
X09853*
Y31107*
X09345*
Y30853*
X09091*
Y30345*
X09345*
Y02345D02*
Y02091D01*
X09853*
Y02345*
X10107*
Y02853*
X09853*
Y03107*
X09345*
Y02853*
X09091*
Y02345*
X09345*
X05845Y40845D02*
Y40591D01*
X06353*
Y40845*
X06607*
Y41353*
X06353*
Y41607*
X05845*
Y41353*
X05591*
Y40845*
X05845*
Y12845D02*
Y12591D01*
X06353*
Y12845*
X06607*
Y13353*
X06353*
Y13607*
X05845*
Y13353*
X05591*
Y12845*
X05845*
Y05845D02*
Y05591D01*
X06353*
Y05845*
X06607*
Y06353*
X06353*
Y06607*
X05845*
Y06353*
X05591*
Y05845*
X05845*
Y02345D02*
Y02091D01*
X06353*
Y02345*
X06607*
Y02853*
X06353*
Y03107*
X05845*
Y02853*
X05591*
Y02345*
X05845*
X02345Y51345D02*
Y51091D01*
X02853*
Y51345*
X03107*
Y51853*
X02853*
Y52107*
X02345*
Y51853*
X02091*
Y51345*
X02345*
Y47845D02*
Y47591D01*
X02853*
Y47845*
X03107*
Y48353*
X02853*
Y48607*
X02345*
Y48353*
X02091*
Y47845*
X02345*
Y40845D02*
Y40591D01*
X02853*
Y40845*
X03107*
Y41353*
X02853*
Y41607*
X02345*
Y41353*
X02091*
Y40845*
X02345*
Y26845D02*
Y26591D01*
X02853*
Y26845*
X03107*
Y27353*
X02853*
Y27607*
X02345*
Y27353*
X02091*
Y26845*
X02345*
Y23345D02*
Y23091D01*
X02853*
Y23345*
X03107*
Y23853*
X02853*
Y24107*
X02345*
Y23853*
X02091*
Y23345*
X02345*
Y19845D02*
Y19591D01*
X02853*
Y19845*
X03107*
Y20353*
X02853*
Y20607*
X02345*
Y20353*
X02091*
Y19845*
X02345*
Y12845D02*
Y12591D01*
X02853*
Y12845*
X03107*
Y13353*
X02853*
Y13607*
X02345*
Y13353*
X02091*
Y12845*
X02345*
X08734Y14656D02*
Y14402D01*
X09242*
Y14656*
X09496*
Y15164*
X09242*
Y15418*
X08734*
Y15164*
X0848*
Y14656*
X08734*
X10541Y17018D02*
Y16764D01*
X11049*
Y17018*
X11303*
Y17526*
X11049*
Y1778*
X10541*
Y17526*
X10287*
Y17018*
X10541*
X19177Y08001D02*
Y07747D01*
X19685*
Y08001*
X19939*
Y08509*
X19685*
Y08763*
X19177*
Y08509*
X18923*
Y08001*
X19177*
X01016Y2794D02*
X0127Y28448D01*
X01016Y28956*
X01524Y28702*
X02032Y28956*
X01778Y28448*
X02032Y2794*
X01524Y28194*
X01016Y2794*
X18923Y22987D02*
Y22733D01*
X19431*
Y22987*
X19685*
Y23495*
X19431*
Y23749*
X18923*
Y23495*
X18669*
Y22987*
X18923*
X15494Y10541D02*
Y10287D01*
X16002*
Y10541*
X16256*
Y11049*
X16002*
Y11303*
X15494*
Y11049*
X1524*
Y10541*
X15494*
X17289Y10498D02*
Y10244D01*
X17797*
Y10498*
X18051*
Y11006*
X17797*
Y1126*
X17289*
Y11006*
X17035*
Y10498*
X17289*
X06096Y17018D02*
Y16764D01*
X06604*
Y17018*
X06858*
Y17526*
X06604*
Y1778*
X06096*
Y17526*
X05842*
Y17018*
X06096*
X10795Y15875D02*
Y15621D01*
X11303*
Y15875*
X11557*
Y16383*
X11303*
Y16637*
X10795*
Y16383*
X10541*
Y15875*
X10795*
X13589Y23622D02*
Y23368D01*
X14097*
Y23622*
X14351*
Y2413*
X14097*
Y24384*
X13589*
Y2413*
X13335*
Y23622*
X13589*
X31623Y14351D02*
Y14097D01*
X32131*
Y14351*
X32385*
Y14859*
X32131*
Y15113*
X31623*
Y14859*
X31369*
Y14351*
X31623*
X33274Y22225D02*
Y21971D01*
X33782*
Y22225*
X34036*
Y22733*
X33782*
Y22987*
X33274*
Y22733*
X3302*
Y22225*
X33274*
X27178Y21209D02*
Y20955D01*
X27686*
Y21209*
X2794*
Y21717*
X27686*
Y21971*
X27178*
Y21717*
X26924*
Y21209*
X27178*
X13081Y11684D02*
Y1143D01*
X13589*
Y11684*
X13843*
Y12192*
X13589*
Y12446*
X13081*
Y12192*
X12827*
Y11684*
X13081*
X12446Y27813D02*
Y27559D01*
X12954*
Y27813*
X13208*
Y28321*
X12954*
Y28575*
X12446*
Y28321*
X12192*
Y27813*
X12446*
X31369Y16256D02*
Y16002D01*
X31877*
Y16256*
X32131*
Y16764*
X31877*
Y17018*
X31369*
Y16764*
X31115*
Y16256*
X31369*
X05087Y28143D02*
X05341D01*
X05595Y28397*
X05849Y28143*
X06103*
Y28397*
X05849Y28651*
X06103Y28905*
Y29159*
X05849*
X05595Y28905*
X05341Y29159*
X05087*
Y28905*
X05341Y28651*
X05087Y28397*
Y28143*
X01397Y05588D02*
Y05334D01*
X01905*
Y05588*
X02159*
Y06096*
X01905*
Y0635*
X01397*
Y06096*
X01143*
Y05588*
X01397*
X25481Y08921D02*
Y08667D01*
X25989*
Y08921*
X26243*
Y09429*
X25989*
Y09683*
X25481*
Y09429*
X25227*
Y08921*
X25481*
X09906Y10414D02*
Y1016D01*
X10414*
Y10414*
X10668*
Y10922*
X10414*
Y11176*
X09906*
Y10922*
X09652*
Y10414*
X09906*
X07874Y04191D02*
Y03937D01*
X08382*
Y04191*
X08636*
Y04699*
X08382*
Y04953*
X07874*
Y04699*
X0762*
Y04191*
X07874*
X2667D02*
Y03937D01*
X27178*
Y04191*
X27432*
Y04699*
X27178*
Y04953*
X2667*
Y04699*
X26416*
Y04191*
X2667*
X277Y06745D02*
Y06491D01*
X28208*
Y06745*
X28462*
Y07253*
X28208*
Y07507*
X277*
Y07253*
X27446*
Y06745*
X277*
X26997Y25793D02*
Y25539D01*
X27505*
Y25793*
X27759*
Y26301*
X27505*
Y26555*
X26997*
Y26301*
X26743*
Y25793*
X26997*
X05214Y23149D02*
X05468D01*
X05722Y23403*
X05976Y23149*
X0623*
Y23403*
X05976Y23657*
X0623Y23911*
Y24165*
X05976*
X05722Y23911*
X05468Y24165*
X05214*
Y23911*
X05468Y23657*
X05214Y23403*
Y23149*
G54D75*
X2743Y51897D02*
D01*
X27429Y51933*
X27426Y51968*
X27419Y52003*
X27411Y52038*
X274Y52071*
X27387Y52104*
X27371Y52136*
X27353Y52167*
X27333Y52196*
X27312Y52224*
X27288Y5225*
X27262Y52275*
X27235Y52298*
X27207Y52319*
X27176Y52337*
X27145Y52354*
X27113Y52369*
X27079Y52381*
X27045Y5239*
X27011Y52398*
X26976Y52403*
X2694Y52405*
X26905*
X26869Y52403*
X26834Y52398*
X268Y5239*
X26766Y52381*
X26732Y52369*
X267Y52354*
X26668Y52337*
X26638Y52319*
X2661Y52298*
X26583Y52275*
X26557Y5225*
X26533Y52224*
X26512Y52196*
X26492Y52167*
X26474Y52136*
X26458Y52104*
X26445Y52071*
X26434Y52038*
X26426Y52003*
X26419Y51968*
X26416Y51933*
X26414Y51897*
X26416Y51862*
X26419Y51827*
X26426Y51792*
X26434Y51757*
X26445Y51724*
X26458Y51691*
X26474Y51659*
X26492Y51628*
X26512Y51599*
X26533Y51571*
X26557Y51545*
X26583Y5152*
X2661Y51497*
X26638Y51476*
X26668Y51458*
X267Y51441*
X26732Y51426*
X26766Y51414*
X268Y51405*
X26834Y51397*
X26869Y51392*
X26905Y5139*
X2694*
X26976Y51392*
X27011Y51397*
X27045Y51405*
X27079Y51414*
X27113Y51426*
X27145Y51441*
X27176Y51458*
X27207Y51476*
X27235Y51497*
X27262Y5152*
X27288Y51545*
X27312Y51571*
X27333Y51599*
X27353Y51628*
X27371Y51659*
X27387Y51691*
X274Y51724*
X27411Y51757*
X27419Y51792*
X27426Y51827*
X27429Y51862*
X2743Y51897*
X33007Y02499D02*
D01*
X33006Y02535*
X33003Y0257*
X32996Y02605*
X32988Y02639*
X32977Y02673*
X32964Y02706*
X32948Y02738*
X3293Y02769*
X3291Y02798*
X32889Y02826*
X32865Y02852*
X32839Y02877*
X32812Y029*
X32784Y02921*
X32753Y02939*
X32722Y02956*
X3269Y0297*
X32656Y02983*
X32622Y02992*
X32588Y03*
X32553Y03005*
X32517Y03007*
X32482*
X32446Y03005*
X32411Y03*
X32377Y02992*
X32343Y02983*
X32309Y0297*
X32277Y02956*
X32245Y02939*
X32215Y02921*
X32187Y029*
X3216Y02877*
X32134Y02852*
X3211Y02826*
X32089Y02798*
X32069Y02769*
X32051Y02738*
X32035Y02706*
X32022Y02673*
X32011Y02639*
X32003Y02605*
X31996Y0257*
X31993Y02535*
X31991Y02499*
X31993Y02464*
X31996Y02429*
X32003Y02394*
X32011Y02359*
X32022Y02326*
X32035Y02293*
X32051Y02261*
X32069Y0223*
X32089Y02201*
X3211Y02173*
X32134Y02147*
X3216Y02122*
X32187Y02099*
X32215Y02078*
X32245Y0206*
X32277Y02043*
X32309Y02028*
X32343Y02016*
X32377Y02007*
X32411Y01999*
X32446Y01994*
X32482Y01992*
X32517*
X32553Y01994*
X32588Y01999*
X32622Y02007*
X32656Y02016*
X3269Y02028*
X32722Y02043*
X32753Y0206*
X32784Y02078*
X32812Y02099*
X32839Y02122*
X32865Y02147*
X32889Y02173*
X3291Y02201*
X3293Y0223*
X32948Y02261*
X32964Y02293*
X32977Y02326*
X32988Y02359*
X32996Y02394*
X33003Y02429*
X33006Y02464*
X33007Y02499*
X03007D02*
D01*
X03006Y02535*
X03003Y0257*
X02996Y02605*
X02988Y02639*
X02977Y02673*
X02964Y02706*
X02948Y02738*
X0293Y02769*
X0291Y02798*
X02889Y02826*
X02865Y02852*
X02839Y02877*
X02812Y029*
X02784Y02921*
X02753Y02939*
X02722Y02956*
X0269Y0297*
X02656Y02983*
X02622Y02992*
X02588Y03*
X02553Y03005*
X02517Y03007*
X02482*
X02446Y03005*
X02411Y03*
X02377Y02992*
X02342Y02983*
X02309Y0297*
X02277Y02956*
X02245Y02939*
X02215Y02921*
X02187Y029*
X0216Y02877*
X02134Y02852*
X0211Y02826*
X02088Y02798*
X02069Y02769*
X02051Y02738*
X02035Y02706*
X02022Y02673*
X02011Y02639*
X02003Y02605*
X01996Y0257*
X01993Y02535*
X01991Y02499*
X01993Y02464*
X01996Y02429*
X02003Y02394*
X02011Y02359*
X02022Y02326*
X02035Y02293*
X02051Y02261*
X02069Y0223*
X02088Y02201*
X0211Y02173*
X02134Y02147*
X0216Y02122*
X02187Y02099*
X02215Y02078*
X02245Y0206*
X02277Y02043*
X02309Y02028*
X02342Y02016*
X02377Y02007*
X02411Y01999*
X02446Y01994*
X02482Y01992*
X02517*
X02553Y01994*
X02588Y01999*
X02622Y02007*
X02656Y02016*
X0269Y02028*
X02722Y02043*
X02753Y0206*
X02784Y02078*
X02812Y02099*
X02839Y02122*
X02865Y02147*
X02889Y02173*
X0291Y02201*
X0293Y0223*
X02948Y02261*
X02964Y02293*
X02977Y02326*
X02988Y02359*
X02996Y02394*
X03003Y02429*
X03006Y02464*
X03007Y02499*
X2743Y46897D02*
D01*
X27429Y46933*
X27426Y46968*
X27419Y47003*
X27411Y47038*
X274Y47071*
X27387Y47104*
X27371Y47136*
X27353Y47167*
X27333Y47196*
X27312Y47224*
X27288Y4725*
X27262Y47275*
X27235Y47298*
X27207Y47319*
X27176Y47337*
X27145Y47354*
X27113Y47368*
X27079Y47381*
X27045Y4739*
X27011Y47398*
X26976Y47403*
X2694Y47405*
X26905*
X26869Y47403*
X26834Y47398*
X268Y4739*
X26766Y47381*
X26732Y47368*
X267Y47354*
X26668Y47337*
X26638Y47319*
X2661Y47298*
X26583Y47275*
X26557Y4725*
X26533Y47224*
X26512Y47196*
X26492Y47167*
X26474Y47136*
X26458Y47104*
X26445Y47071*
X26434Y47038*
X26426Y47003*
X26419Y46968*
X26416Y46933*
X26414Y46897*
X26416Y46862*
X26419Y46827*
X26426Y46792*
X26434Y46757*
X26445Y46724*
X26458Y46691*
X26474Y46659*
X26492Y46628*
X26512Y46599*
X26533Y46571*
X26557Y46545*
X26583Y4652*
X2661Y46497*
X26638Y46476*
X26668Y46458*
X267Y46441*
X26732Y46426*
X26766Y46414*
X268Y46405*
X26834Y46397*
X26869Y46392*
X26905Y4639*
X2694*
X26976Y46392*
X27011Y46397*
X27045Y46405*
X27079Y46414*
X27113Y46426*
X27145Y46441*
X27176Y46458*
X27207Y46476*
X27235Y46497*
X27262Y4652*
X27288Y46545*
X27312Y46571*
X27333Y46599*
X27353Y46628*
X27371Y46659*
X27387Y46691*
X274Y46724*
X27411Y46757*
X27419Y46792*
X27426Y46827*
X27429Y46862*
X2743Y46897*
X32512Y57785D02*
D01*
X3251Y5782*
X32507Y57855*
X325Y5789*
X32492Y57925*
X32481Y57958*
X32468Y57991*
X32452Y58023*
X32434Y58054*
X32414Y58083*
X32393Y58111*
X32369Y58137*
X32343Y58162*
X32316Y58185*
X32288Y58206*
X32258Y58224*
X32226Y58241*
X32194Y58255*
X3216Y58268*
X32126Y58277*
X32092Y58285*
X32057Y5829*
X32021Y58292*
X31986*
X3195Y5829*
X31915Y58285*
X31881Y58277*
X31847Y58268*
X31813Y58255*
X31781Y58241*
X3175Y58224*
X31719Y58206*
X31691Y58185*
X31664Y58162*
X31638Y58137*
X31614Y58111*
X31593Y58083*
X31573Y58054*
X31555Y58023*
X31539Y57991*
X31526Y57958*
X31515Y57925*
X31507Y5789*
X315Y57855*
X31497Y5782*
X31496Y57785*
X31497Y57749*
X315Y57714*
X31507Y57679*
X31515Y57644*
X31526Y57611*
X31539Y57578*
X31555Y57546*
X31573Y57515*
X31593Y57486*
X31614Y57458*
X31638Y57432*
X31664Y57407*
X31691Y57384*
X31719Y57363*
X3175Y57345*
X31781Y57328*
X31813Y57313*
X31847Y57301*
X31881Y57292*
X31915Y57284*
X3195Y57279*
X31986Y57277*
X32021*
X32057Y57279*
X32092Y57284*
X32126Y57292*
X3216Y57301*
X32194Y57313*
X32226Y57328*
X32258Y57345*
X32288Y57363*
X32316Y57384*
X32343Y57407*
X32369Y57432*
X32393Y57458*
X32414Y57486*
X32434Y57515*
X32452Y57546*
X32468Y57578*
X32481Y57611*
X32492Y57644*
X325Y57679*
X32507Y57714*
X3251Y57749*
X32512Y57785*
G54D76*
X32804Y02499D02*
D01*
X32804Y02521*
X32801Y02542*
X32798Y02563*
X32792Y02583*
X32786Y02604*
X32778Y02623*
X32769Y02643*
X32758Y02661*
X32746Y02679*
X32733Y02695*
X32719Y02711*
X32703Y02726*
X32687Y0274*
X3267Y02752*
X32652Y02763*
X32633Y02773*
X32614Y02782*
X32594Y02789*
X32573Y02795*
X32552Y028*
X32531Y02803*
X3251Y02804*
X32489*
X32468Y02803*
X32447Y028*
X32426Y02795*
X32405Y02789*
X32385Y02782*
X32366Y02773*
X32347Y02763*
X32329Y02752*
X32312Y0274*
X32296Y02726*
X3228Y02711*
X32266Y02695*
X32253Y02679*
X32241Y02661*
X3223Y02643*
X32221Y02623*
X32213Y02604*
X32206Y02583*
X32201Y02563*
X32198Y02542*
X32195Y02521*
X32195Y02499*
X32195Y02478*
X32198Y02457*
X32201Y02436*
X32206Y02415*
X32213Y02395*
X32221Y02376*
X3223Y02356*
X32241Y02338*
X32253Y0232*
X32266Y02304*
X3228Y02288*
X32296Y02273*
X32312Y02259*
X32329Y02247*
X32347Y02236*
X32366Y02226*
X32385Y02217*
X32405Y0221*
X32426Y02204*
X32447Y02199*
X32468Y02196*
X32489Y02195*
X3251*
X32531Y02196*
X32552Y02199*
X32573Y02204*
X32594Y0221*
X32614Y02217*
X32633Y02226*
X32652Y02236*
X3267Y02247*
X32687Y02259*
X32703Y02273*
X32719Y02288*
X32733Y02304*
X32746Y0232*
X32758Y02338*
X32769Y02356*
X32778Y02376*
X32786Y02395*
X32792Y02415*
X32798Y02436*
X32801Y02457*
X32804Y02478*
X32804Y02499*
X02804D02*
D01*
X02804Y02521*
X02801Y02542*
X02798Y02563*
X02792Y02583*
X02786Y02604*
X02778Y02623*
X02769Y02643*
X02758Y02661*
X02746Y02679*
X02733Y02695*
X02719Y02711*
X02703Y02726*
X02687Y0274*
X0267Y02752*
X02652Y02763*
X02633Y02773*
X02614Y02782*
X02594Y02789*
X02573Y02795*
X02552Y028*
X02531Y02803*
X0251Y02804*
X02489*
X02468Y02803*
X02447Y028*
X02426Y02795*
X02405Y02789*
X02385Y02782*
X02366Y02773*
X02347Y02763*
X02329Y02752*
X02312Y0274*
X02296Y02726*
X0228Y02711*
X02266Y02695*
X02253Y02679*
X02241Y02661*
X0223Y02643*
X02221Y02623*
X02213Y02604*
X02207Y02583*
X02201Y02563*
X02198Y02542*
X02195Y02521*
X02195Y02499*
X02195Y02478*
X02198Y02457*
X02201Y02436*
X02207Y02415*
X02213Y02395*
X02221Y02376*
X0223Y02356*
X02241Y02338*
X02253Y0232*
X02266Y02304*
X0228Y02288*
X02296Y02273*
X02312Y02259*
X02329Y02247*
X02347Y02236*
X02366Y02226*
X02385Y02217*
X02405Y0221*
X02426Y02204*
X02447Y02199*
X02468Y02196*
X02489Y02195*
X0251*
X02531Y02196*
X02552Y02199*
X02573Y02204*
X02594Y0221*
X02614Y02217*
X02633Y02226*
X02652Y02236*
X0267Y02247*
X02687Y02259*
X02703Y02273*
X02719Y02288*
X02733Y02304*
X02746Y0232*
X02758Y02338*
X02769Y02356*
X02778Y02376*
X02786Y02395*
X02792Y02415*
X02798Y02436*
X02801Y02457*
X02804Y02478*
X02804Y02499*
X32308Y57785D02*
D01*
X32308Y57806*
X32305Y57827*
X32302Y57848*
X32296Y57868*
X3229Y57889*
X32282Y57908*
X32273Y57928*
X32262Y57946*
X3225Y57964*
X32237Y5798*
X32223Y57996*
X32207Y58011*
X32191Y58025*
X32174Y58037*
X32156Y58048*
X32137Y58058*
X32118Y58067*
X32098Y58074*
X32077Y5808*
X32056Y58085*
X32035Y58088*
X32014Y58089*
X31993*
X31972Y58088*
X31951Y58085*
X3193Y5808*
X31909Y58074*
X31889Y58067*
X3187Y58058*
X31851Y58048*
X31833Y58037*
X31816Y58025*
X318Y58011*
X31784Y57996*
X3177Y5798*
X31757Y57964*
X31745Y57946*
X31734Y57928*
X31725Y57908*
X31717Y57889*
X3171Y57868*
X31705Y57848*
X31702Y57827*
X31699Y57806*
X31699Y57785*
X31699Y57763*
X31702Y57742*
X31705Y57721*
X3171Y577*
X31717Y5768*
X31725Y57661*
X31734Y57641*
X31745Y57623*
X31757Y57605*
X3177Y57589*
X31784Y57573*
X318Y57558*
X31816Y57544*
X31833Y57532*
X31851Y57521*
X3187Y57511*
X31889Y57502*
X31909Y57495*
X3193Y57489*
X31951Y57484*
X31972Y57481*
X31993Y5748*
X32014*
X32035Y57481*
X32056Y57484*
X32077Y57489*
X32098Y57495*
X32118Y57502*
X32137Y57511*
X32156Y57521*
X32174Y57532*
X32191Y57544*
X32207Y57558*
X32223Y57573*
X32237Y57589*
X3225Y57605*
X32262Y57623*
X32273Y57641*
X32282Y57661*
X3229Y5768*
X32296Y577*
X32302Y57721*
X32305Y57742*
X32308Y57763*
X32308Y57785*
M02*